<?xml version="1.0" encoding="UTF-8" standalone="no"?><!-- Generator: Gravit.io --><svg xmlns="http://www.w3.org/2000/svg" xmlns:xlink="http://www.w3.org/1999/xlink" style="isolation:isolate" viewBox="0 0 500 500" width="500pt" height="500pt"><defs><clipPath id="_clipPath_5taFTTrr9a87DgimudGebxjTnkQmA2Zp"><rect x="0" y="0" width="500" height="500"/></clipPath></defs><g clip-path="url(#_clipPath_5taFTTrr9a87DgimudGebxjTnkQmA2Zp)"><g><clipPath id="_clipPath_G0ZbP8FzqY2thhYQOJZRNuvrWOuNdKKr"><path d=" M 0 0 L 0 500 L 500 500 L 500 0 L 0 0 Z " fill="rgb(255,255,255)"/></clipPath><g clip-path="url(#_clipPath_G0ZbP8FzqY2thhYQOJZRNuvrWOuNdKKr)"><path d=" M 500 0 L 0 0 L 0 500 L 500 500 L 500 0 Z " fill="none"/><path d=" M 244.938 466.442 C 236.828 466.443 230.452 464.905 226.619 461.484 C 220.237 455.788 219.431 447.161 220.525 438.105 L 332.002 438.105 C 332.002 438.105 342.06 353.221 295.511 338.05 C 263.624 327.658 256.833 320.411 267.032 290.596 C 274.251 269.496 302.409 262.937 286.502 216.169 C 287.588 215.879 288.661 215.453 289.725 214.873 C 289.725 214.873 289.563 208.49 287.171 200.515 C 287.148 200.421 283.351 185.3 272.264 177.382 C 266.228 172.741 258.111 169.59 247.189 169.59 C 246.331 169.59 245.458 169.609 244.565 169.649 C 208.823 171.237 201.227 207.756 206.315 213.151 C 199.232 229.196 199.374 248.821 214.326 268.261 C 239.02 300.368 245.594 328.667 196.738 343.324 C 166.876 352.282 161.837 385.696 162.432 410.325 C 159.153 410.537 155.923 410.641 152.754 410.641 C 84.598 410.641 43.324 362.857 83.256 320.721 C 103.244 299.63 167.941 256.99 126.591 252.469 C 58.554 245.03 14.562 212.174 120.292 150.741 C 120.292 150.741 208.517 96.226 271.048 96.226 C 284.328 96.226 296.438 98.681 306.311 104.64 C 357.933 135.799 284.251 215.604 307.27 215.604 C 309.382 215.604 312.304 214.935 316.216 213.493 C 328.068 209.125 340.518 207.054 352.59 207.054 C 389.767 207.054 423.434 226.668 425.62 259.202 C 429.502 316.974 329.301 361.075 343.301 361.075 C 343.7 361.075 344.192 361.039 344.783 360.966 C 351.712 360.116 358.184 359.694 364.088 359.694 C 397.108 359.694 412.365 372.906 390.463 398.382 C 362.303 431.14 283.784 466.439 244.938 466.442 Z " fill="rgb(137,50,149)"/><path d=" M 387.061 266.514 C 387.061 273.269 381.584 278.746 374.829 278.746 C 368.073 278.746 362.597 273.269 362.597 266.514 C 362.597 259.758 368.073 254.282 374.829 254.282 C 381.584 254.282 387.061 259.758 387.061 266.514 Z " fill="rgb(244,238,220)"/><path d=" M 356.172 277.267 C 356.172 283.165 351.391 287.946 345.493 287.946 C 339.595 287.946 334.814 283.165 334.814 277.267 C 334.814 271.369 339.595 266.588 345.493 266.588 C 351.391 266.588 356.172 271.369 356.172 277.267 Z " fill="rgb(244,238,220)"/><path d=" M 461.111 157.638 C 461.111 143.518 449.664 132.071 435.543 132.071 C 435.189 132.071 434.837 132.083 434.486 132.098 C 435.169 130.019 435.543 127.801 435.543 125.493 C 435.543 113.81 426.072 104.339 414.389 104.339 C 408.573 104.339 403.306 106.688 399.482 110.486 C 398.63 104.947 393.857 100.701 388.08 100.701 C 382.702 100.701 378.196 104.381 376.909 109.357 C 373.06 104.11 366.852 100.701 359.845 100.701 C 350.695 100.701 342.904 106.51 339.954 114.641 C 337.58 113.913 335.06 113.519 332.447 113.519 C 318.327 113.519 306.88 124.966 306.88 139.087 C 306.88 143.772 308.146 148.159 310.346 151.935 C 304.782 152.766 300.511 157.55 300.511 163.345 C 300.511 167.951 303.213 171.915 307.112 173.77 C 303.01 178.305 300.511 184.317 300.511 190.914 C 300.511 205.035 311.958 216.482 326.078 216.482 C 326.978 216.482 327.866 216.434 328.741 216.343 C 328.544 217.504 328.436 218.696 328.436 219.913 C 328.436 231.596 337.907 241.067 349.59 241.067 C 355.673 241.067 361.153 238.496 365.012 234.385 C 364.999 234.611 364.978 234.836 364.978 235.066 C 364.978 241.445 370.149 246.617 376.529 246.617 C 382.908 246.617 388.08 241.445 388.08 235.066 C 388.08 234.909 388.062 234.756 388.056 234.6 L 388.151 234.588 C 388.514 240.64 393.523 245.439 399.666 245.439 C 406.046 245.439 411.217 240.268 411.217 233.888 C 411.217 232.095 410.797 230.404 410.068 228.89 C 413.626 231.606 418.068 233.223 422.89 233.223 C 434.573 233.223 444.044 223.752 444.044 212.068 C 444.044 208.192 442.997 204.562 441.176 201.438 C 441.441 201.456 441.705 201.478 441.975 201.478 C 448.354 201.478 453.526 196.306 453.526 189.927 C 453.526 185.716 451.265 182.042 447.898 180.024 C 455.775 175.667 461.111 167.277 461.111 157.638 Z " fill="rgb(244,238,220)"/><path d=" M 380.481 204.39 L 372.429 132.84 C 372.429 132.84 344.855 137.036 346.927 162.025 C 349.111 188.36 366.569 177.156 368.194 205.773 L 380.481 204.39 Z " fill="rgb(241,191,105)"/><path d=" M 380.481 204.39 L 372.429 132.84 C 372.429 132.84 398.156 127.942 403.779 155.626 C 409.039 181.523 387.992 174.745 392.769 203.007 L 380.481 204.39 Z " fill="rgb(241,191,105)"/><path d=" M 367.969 202.98 L 392.258 199.241 L 394.484 219.016 L 370.083 221.762 L 367.969 202.98 Z " fill="rgb(70,72,80)"/><path d=" M 374.829 216.724 L 388.678 214.663 L 389.791 224.551 L 375.886 226.116 L 374.829 216.724 Z " fill="rgb(70,72,80)"/><path d=" M 378.846 169.076 L 378.689 169.086 C 378.511 169.339 378.664 170.461 379.106 171.62 C 379.362 170.853 379.461 170.095 379.332 169.553 C 379.242 169.179 379.097 169.076 378.846 169.076 Z  M 373.443 169.824 C 373.095 170.18 373.254 171.088 373.582 171.849 C 373.674 172.065 373.784 172.28 373.904 172.488 C 373.91 172.324 373.911 172.159 373.907 171.992 C 373.876 170.865 373.627 170.115 373.443 169.824 Z  M 371.4 202.417 L 367.706 169.599 L 369.348 169.318 C 370.047 172.342 371.422 175.788 372.354 176.099 C 372.396 176.111 372.46 176.133 372.623 175.994 C 372.97 175.702 373.26 175.256 373.476 174.708 C 372.892 174.081 372.397 173.317 372.049 172.508 C 371.197 170.527 371.501 168.888 372.843 168.231 C 373.408 167.954 374.23 167.983 374.828 168.903 C 375.552 170.013 375.815 172.208 375.38 174.174 C 375.898 174.546 376.429 174.715 376.871 174.55 C 377.331 174.378 377.769 173.986 378.148 173.482 C 377.274 171.909 376.761 169.863 377.102 168.684 C 377.311 167.964 377.82 167.506 378.502 167.429 C 379.738 167.29 380.659 167.938 380.954 169.165 C 381.241 170.366 380.892 172.045 380.13 173.472 L 380.201 173.557 C 380.539 173.953 380.825 174.115 380.927 174.057 C 382.048 173.442 382.565 170.045 382.574 167.829 L 384.236 167.739 L 387.95 200.731 L 386.292 200.918 L 383.228 173.69 C 382.869 174.491 382.385 175.16 381.728 175.52 C 381.324 175.742 380.495 175.994 379.496 175.194 C 379.381 175.102 379.267 174.998 379.157 174.884 C 378.658 175.441 378.082 175.878 377.454 176.112 C 376.581 176.437 375.664 176.274 374.82 175.795 C 374.534 176.37 374.163 176.878 373.698 177.27 C 373.131 177.748 372.465 177.893 371.827 177.681 C 371.19 177.468 370.619 176.88 370.117 176.106 L 373.058 202.231 L 371.4 202.417 Z " fill="rgb(254,249,240)"/><path d=" M 375.007 136.373 C 375.007 136.373 392.368 140.245 397.281 153.163 C 402.193 166.082 398.685 173.73 399.484 172.744 C 400.284 171.759 403.92 167.275 400.752 154.896 C 397.585 142.517 386.714 131.961 375.007 136.373 Z " fill="rgb(244,238,220)"/><path d=" M 368.234 205.276 L 368.128 204.448 L 392.488 201.344 L 392.594 202.172 L 368.234 205.276 Z " fill="rgb(254,249,240)"/><path d=" M 368.713 209.593 L 368.62 208.764 L 393.021 206.018 L 393.114 206.847 L 368.713 209.593 Z " fill="rgb(254,249,240)"/><path d=" M 369.339 214.871 L 369.183 214.052 L 393.373 209.438 L 393.53 210.258 L 369.339 214.871 Z " fill="rgb(254,249,240)"/><path d=" M 369.573 217.233 L 369.48 216.404 L 393.881 213.658 L 393.974 214.487 L 369.573 217.233 Z " fill="rgb(254,249,240)"/><path d=" M 371.036 127.258 C 370.199 127.258 369.477 126.629 369.381 125.777 L 368.692 119.656 C 368.589 118.741 369.248 117.916 370.163 117.813 C 371.072 117.707 371.903 118.367 372.007 119.283 L 372.696 125.404 C 372.799 126.319 372.14 127.145 371.225 127.248 L 371.036 127.258 Z " fill="rgb(118,203,205)"/><path d=" M 386.186 127.738 C 386.051 127.738 385.912 127.721 385.775 127.686 C 384.882 127.46 384.342 126.552 384.569 125.66 L 386.085 119.69 C 386.312 118.798 387.215 118.255 388.112 118.484 C 389.004 118.711 389.544 119.618 389.318 120.511 L 387.802 126.48 C 387.609 127.235 386.931 127.738 386.186 127.738 Z " fill="rgb(118,203,205)"/><path d=" M 398.76 133.603 C 398.46 133.603 398.155 133.521 397.881 133.35 C 397.098 132.864 396.86 131.835 397.346 131.053 L 400.601 125.824 C 401.087 125.043 402.114 124.801 402.898 125.29 C 403.68 125.776 403.919 126.805 403.433 127.587 L 400.178 132.816 C 399.862 133.323 399.317 133.603 398.76 133.603 Z " fill="rgb(118,203,205)"/><path d=" M 407.444 142.35 C 406.843 142.35 406.261 142.023 405.964 141.453 C 405.538 140.636 405.856 139.629 406.672 139.203 L 412.134 136.357 C 412.952 135.93 413.958 136.25 414.383 137.065 C 414.809 137.882 414.492 138.889 413.675 139.315 L 408.213 142.161 C 407.967 142.289 407.703 142.35 407.444 142.35 Z " fill="rgb(118,203,205)"/><path d=" M 411.21 151.871 C 410.437 151.871 409.744 151.331 409.58 150.545 C 409.391 149.643 409.968 148.76 410.869 148.571 L 416.897 147.307 C 417.797 147.12 418.683 147.696 418.871 148.597 C 419.06 149.499 418.483 150.383 417.581 150.572 L 411.553 151.835 C 411.439 151.859 411.323 151.871 411.21 151.871 Z " fill="rgb(118,203,205)"/><path d=" M 417.712 177.213 C 417.47 177.213 417.225 177.161 416.993 177.05 L 411.438 174.391 C 410.607 173.993 410.255 172.998 410.654 172.167 C 411.051 171.336 412.049 170.986 412.878 171.382 L 418.433 174.041 C 419.264 174.438 419.615 175.434 419.217 176.265 C 418.931 176.864 418.334 177.213 417.712 177.213 Z " fill="rgb(118,203,205)"/><path d=" M 411.049 189.159 C 410.684 189.159 410.316 189.04 410.009 188.795 L 405.194 184.955 C 404.474 184.381 404.356 183.332 404.93 182.612 C 405.505 181.891 406.555 181.774 407.274 182.348 L 412.089 186.188 C 412.809 186.762 412.927 187.811 412.353 188.531 C 412.024 188.944 411.538 189.159 411.049 189.159 Z " fill="rgb(118,203,205)"/><path d=" M 419.635 164.007 L 419.435 163.995 L 413.319 163.265 C 412.404 163.156 411.751 162.326 411.86 161.411 C 411.97 160.497 412.794 159.843 413.715 159.953 L 419.83 160.683 C 420.745 160.793 421.398 161.622 421.289 162.537 C 421.187 163.385 420.467 164.007 419.635 164.007 Z " fill="rgb(118,203,205)"/><path d=" M 358.62 130.841 C 358.013 130.841 357.428 130.509 357.134 129.932 L 354.329 124.449 C 353.91 123.629 354.234 122.624 355.054 122.204 C 355.876 121.784 356.88 122.11 357.298 122.93 L 360.103 128.413 C 360.522 129.233 360.198 130.238 359.378 130.658 C 359.134 130.782 358.875 130.841 358.62 130.841 Z " fill="rgb(118,203,205)"/><path d=" M 347.66 139.354 C 347.231 139.354 346.802 139.189 346.476 138.86 L 342.14 134.485 C 341.492 133.831 341.497 132.775 342.151 132.127 C 342.806 131.479 343.861 131.484 344.51 132.138 L 348.845 136.512 C 349.494 137.166 349.489 138.222 348.835 138.87 C 348.509 139.193 348.085 139.354 347.66 139.354 Z " fill="rgb(118,203,205)"/><path d=" M 341.142 149.812 C 341.003 149.812 340.861 149.795 340.719 149.757 L 334.76 148.197 C 333.87 147.964 333.336 147.052 333.57 146.161 C 333.803 145.271 334.712 144.738 335.606 144.97 L 341.564 146.531 C 342.455 146.764 342.989 147.676 342.755 148.567 C 342.559 149.316 341.883 149.812 341.142 149.812 Z " fill="rgb(118,203,205)"/><path d=" M 333.424 160.041 C 332.517 160.041 331.773 159.313 331.757 158.402 C 331.741 157.481 332.475 156.721 333.396 156.705 L 339.554 156.597 L 339.584 156.597 C 340.491 156.597 341.234 157.324 341.251 158.235 C 341.267 159.156 340.533 159.916 339.612 159.932 L 333.454 160.04 L 333.424 160.041 Z " fill="rgb(118,203,205)"/><path d=" M 338.878 186.086 C 338.387 186.086 337.9 185.87 337.57 185.454 C 336.998 184.733 337.119 183.684 337.84 183.112 L 342.666 179.285 C 343.388 178.713 344.436 178.832 345.01 179.555 C 345.581 180.276 345.461 181.326 344.739 181.898 L 339.914 185.725 C 339.607 185.968 339.241 186.086 338.878 186.086 Z " fill="rgb(118,203,205)"/><path d=" M 348.029 196.252 C 347.664 196.252 347.296 196.133 346.989 195.888 C 346.27 195.313 346.151 194.264 346.726 193.544 L 350.567 188.729 C 351.141 188.01 352.191 187.892 352.911 188.466 C 353.63 189.04 353.748 190.09 353.174 190.81 L 349.333 195.624 C 349.003 196.037 348.518 196.252 348.029 196.252 Z " fill="rgb(118,203,205)"/><path d=" M 334.071 173.637 C 333.386 173.637 332.743 173.212 332.5 172.53 C 332.19 171.662 332.642 170.708 333.51 170.398 L 339.31 168.327 C 340.177 168.019 341.133 168.469 341.442 169.337 C 341.752 170.205 341.3 171.159 340.432 171.469 L 334.632 173.54 C 334.446 173.606 334.257 173.637 334.071 173.637 Z " fill="rgb(118,203,205)"/><path d=" M 190.638 161.292 C 189.136 159.768 188.674 157.498 189.376 155.477 L 190.839 151.266 C 191.173 150.063 192.204 147.081 194.811 144.069 C 197.59 140.858 202.774 136.945 211.691 136.531 C 219.289 136.179 220.912 130.261 221.178 128.946 C 221.247 128.465 221.339 128.229 221.544 127.643 C 223.198 122.91 221.829 117.601 218.008 114.355 C 210.503 107.983 200.011 111.603 197.36 119.972 C 196.738 121.935 195.032 123.396 192.997 123.71 C 187.714 124.525 184.339 119.797 185.805 115.579 C 190.336 102.54 204.631 95.617 217.67 100.148 C 230.553 104.625 237.465 118.634 233.258 131.545 C 232.034 137.561 226.284 148.219 212.263 148.87 C 204.168 149.245 202.787 154.375 202.775 154.427 C 202.724 154.653 202.661 154.877 202.584 155.096 L 201.158 159.201 C 199.714 163.356 194.279 164.987 190.638 161.292 Z " fill="rgb(244,238,220)"/><path d=" M 197.204 173.347 C 195.972 176.891 192.1 178.766 188.555 177.535 C 185.011 176.303 183.136 172.431 184.368 168.886 C 185.599 165.342 189.471 163.467 193.016 164.698 C 196.56 165.93 198.435 169.802 197.204 173.347 Z " fill="rgb(244,238,220)"/><path d=" M 139.428 188.893 C 136.605 189.413 133.737 188.218 132.022 185.917 L 128.447 181.125 C 127.362 179.848 124.826 176.459 123.443 171.298 C 121.97 165.796 121.526 157.094 127.777 146.881 C 133.103 138.18 127.754 131.924 126.493 130.638 C 126.011 130.199 125.819 129.92 125.322 129.251 C 121.312 123.853 114.385 121.377 107.906 123.178 C 95.182 126.716 91.306 141.092 98.604 150.333 C 100.316 152.501 100.655 155.494 99.472 157.99 C 96.401 164.471 88.611 164.66 85.03 159.858 C 73.961 145.014 77.032 123.931 91.875 112.862 C 106.542 101.925 127.299 104.792 138.47 119.18 C 144.229 125.067 151.738 139.472 141.908 155.531 C 136.233 164.802 140.891 170.197 140.939 170.249 C 141.153 170.476 141.352 170.714 141.538 170.964 L 145.023 175.637 C 148.551 180.367 146.272 187.63 139.428 188.893 Z " fill="rgb(244,238,220)"/><path d=" M 157.755 190.673 C 160.765 194.708 159.933 200.419 155.898 203.428 C 151.862 206.437 146.152 205.606 143.143 201.57 C 140.134 197.535 140.965 191.825 145.001 188.815 C 149.036 185.806 154.746 186.638 157.755 190.673 Z " fill="rgb(244,238,220)"/><path d=" M 187.298 224.397 C 187.298 234.112 195.173 241.987 204.888 241.987 C 214.602 241.987 222.477 234.112 222.477 224.397 C 222.477 214.683 214.602 206.808 204.888 206.808 C 195.173 206.808 187.298 214.683 187.298 224.397 Z " fill="rgb(70,72,80)"/><path d=" M 267.033 224.397 C 267.033 234.112 274.907 241.987 284.622 241.987 C 294.336 241.987 302.211 234.112 302.211 224.397 C 302.211 214.683 294.336 206.808 284.622 206.808 C 274.907 206.808 267.033 214.683 267.033 224.397 Z " fill="rgb(70,72,80)"/><path d=" M 334.605 500 C 334.605 500 347.542 426.049 347.842 410.38 C 348.142 394.711 156.471 421.445 156.471 421.445 L 170.916 500 L 334.605 500 Z " fill="rgb(254,249,239)"/><path d=" M 165.47 438.105 C 165.47 438.105 147.881 357.98 196.738 343.324 C 245.594 328.667 239.02 300.368 214.326 268.261 C 170.25 210.954 254.851 152.048 273.931 187.96 C 312.792 261.099 275.501 265.841 267.032 290.596 C 256.833 320.411 263.624 327.658 295.511 338.05 C 342.06 353.221 332.002 438.105 332.002 438.105 L 165.47 438.105 Z " fill="rgb(244,189,161)"/><path d=" M 225.557 328.019 C 225.557 328.019 225.122 359.216 249.95 355.741 C 270.645 352.845 271.184 326.918 271.184 326.918 C 271.184 326.918 296.812 335.107 306.4 340.264 C 315.988 345.42 363.762 369.866 342.401 438.105 L 165.47 438.105 C 165.47 438.105 150.41 401.797 165.47 369.205 C 182.433 332.493 215.99 335.939 225.557 328.019 Z " fill="rgb(254,249,239)"/><path d=" M 209.467 369.347 C 209.467 369.347 236.241 462.667 315.156 400.667 L 315.156 500 L 211.54 500 L 209.467 369.347 Z " fill="rgb(214,236,225)"/><path d=" M 207.75 244.994 C 209.379 252.249 209.369 262.258 203.612 262.258 C 197.855 262.258 186.904 250.751 186.904 244.994 C 186.904 239.238 191.57 234.571 197.327 234.571 C 203.084 234.571 206.489 239.377 207.75 244.994 Z " fill="rgb(244,189,161)"/><path d=" M 285.553 244.994 C 283.925 252.249 283.935 262.258 289.692 262.258 C 295.448 262.258 306.4 250.751 306.4 244.994 C 306.4 239.238 301.733 234.571 295.977 234.571 C 290.22 234.571 286.814 239.377 285.553 244.994 Z " fill="rgb(244,189,161)"/><path d=" M 233.114 312.326 C 233.114 312.326 252.924 318.462 263.303 303.694 C 263.303 303.694 266.381 289.293 267.25 287.556 C 268.118 285.819 266.381 289.293 266.381 289.293 L 225.557 289.293 C 225.557 289.293 234.157 299.311 233.114 312.326 Z " fill="rgb(233,152,117)"/><path d=" M 211.659 211.119 C 211.659 211.119 201.779 259.001 217.848 273.333 C 233.917 287.664 232.535 256.393 249.118 255.755 C 260.409 255.32 265.347 284.645 282.218 266.24 C 293.257 254.198 281.965 206.808 281.965 206.808 L 291.454 213.073 C 291.454 213.073 302.771 296.497 249.781 300.33 C 195.737 304.238 197.009 221.026 201.658 211.444 C 201.658 211.444 207.75 206.776 211.659 211.119 Z " fill="rgb(70,72,80)"/><path d=" M 232.505 236.205 C 232.505 238.243 230.853 239.896 228.814 239.896 C 226.775 239.896 225.122 238.243 225.122 236.205 C 225.122 234.166 226.775 232.513 228.814 232.513 C 230.853 232.513 232.505 234.166 232.505 236.205 Z " fill="rgb(70,72,80)"/><path d=" M 274.876 234.571 C 274.876 236.61 273.223 238.263 271.184 238.263 C 269.146 238.263 267.493 236.61 267.493 234.571 C 267.493 232.532 269.146 230.879 271.184 230.879 C 273.223 230.879 274.876 232.532 274.876 234.571 Z " fill="rgb(70,72,80)"/><path d=" M 249.679 255.619 C 249.578 255.619 249.477 255.608 249.375 255.586 C 246.286 254.924 244.621 248.079 244.318 246.714 L 246.27 246.281 C 246.937 249.281 248.288 252.609 249.417 253.445 C 250.06 251.216 249.312 241.677 248.165 233.446 L 250.145 233.169 C 251.184 240.621 252.632 253.394 250.661 255.226 C 250.385 255.482 250.038 255.618 249.679 255.619 Z " fill="rgb(70,72,80)"/><path d=" M 226.86 253.626 C 226.86 256.504 224.526 258.838 221.648 258.838 C 218.77 258.838 216.436 256.504 216.436 253.626 C 216.436 250.748 218.77 248.414 221.648 248.414 C 224.526 248.414 226.86 250.748 226.86 253.626 Z " fill="rgb(233,152,117)"/><path d=" M 279.388 253.626 C 279.388 256.504 277.054 258.838 274.176 258.838 C 271.298 258.838 268.965 256.504 268.965 253.626 C 268.965 250.748 271.298 248.414 274.176 248.414 C 277.054 248.414 279.388 250.748 279.388 253.626 Z " fill="rgb(233,152,117)"/><path d=" M 198.775 256.065 C 198.216 247.361 196.353 245.616 195.578 245.269 C 194.831 244.937 194.131 245.476 194.101 245.499 L 192.837 243.949 C 193.44 243.451 194.859 242.78 196.356 243.426 C 198.855 244.507 200.299 248.6 200.771 255.937 L 198.775 256.065 Z " fill="rgb(70,72,80)"/><path d=" M 293.359 256.065 L 291.363 255.937 C 291.835 248.6 293.279 244.507 295.778 243.426 C 297.271 242.78 298.693 243.451 299.297 243.949 L 298.032 245.499 C 298.003 245.476 297.301 244.937 296.557 245.269 C 295.781 245.616 293.919 247.361 293.359 256.065 Z " fill="rgb(70,72,80)"/><path d=" M 211.659 211.119 C 211.659 211.119 224.318 197.788 236.764 199.952 C 249.21 202.117 253.248 223.239 283.967 216.601 C 283.967 216.601 266.011 209.746 255.879 201.688 C 245.747 193.629 234.986 172.774 211.659 211.119 Z " fill="rgb(233,152,117)"/><path d=" M 211.659 211.119 C 211.659 211.119 226.317 186.364 239.346 190.272 C 252.375 194.181 272.678 224.165 289.725 214.873 C 289.725 214.873 288.538 167.695 244.565 169.649 C 200.592 171.603 199.219 226.429 211.659 211.119 Z " fill="rgb(70,72,80)"/><path d=" M 247.579 365.502 C 219.651 365.502 216.58 336.283 216.551 335.985 L 217.547 335.892 C 217.575 336.184 220.632 365.071 248.332 364.495 C 276.05 363.969 278.864 331.981 278.89 331.658 L 279.886 331.736 C 279.86 332.068 276.981 364.952 248.35 365.495 C 248.092 365.5 247.833 365.502 247.579 365.502 Z " fill="rgb(214,236,225)"/><path d=" M 191.867 231.379 L 191.833 230.38 C 191.899 230.377 198.446 230.093 202.549 225.113 C 205.563 221.456 206.552 216.211 205.491 209.523 L 206.478 209.366 C 207.588 216.355 206.523 221.87 203.313 225.758 C 198.916 231.086 192.152 231.37 191.867 231.379 Z " fill="rgb(94,126,137)"/><path d=" M 187.302 224.897 L 187.294 223.897 C 187.337 223.897 191.637 223.834 195.871 221.686 C 201.494 218.834 204.359 213.828 204.388 206.806 L 205.388 206.81 C 205.315 224.553 187.482 224.896 187.302 224.897 Z " fill="rgb(94,126,137)"/><path d=" M 295.042 228.49 C 294.579 228.49 294.13 228.412 293.695 228.255 C 288.033 226.211 287.289 211.291 287.261 210.657 L 288.259 210.611 C 288.266 210.76 288.997 225.497 294.035 227.314 C 295.798 227.949 297.977 226.854 300.517 224.061 L 301.257 224.734 C 298.982 227.232 296.899 228.49 295.042 228.49 Z " fill="rgb(94,126,137)"/><path d=" M 237.957 227.242 C 237.957 227.242 234.651 229.6 230.364 230.192 C 226.076 230.784 213.603 230.341 212.378 230.51 C 211.153 230.679 222.448 218.928 237.957 227.242 Z " fill="rgb(70,72,80)"/><path d=" M 258.237 222.967 C 258.237 222.967 270.014 213.834 274.884 216.572 C 280.133 219.524 279.683 222.967 279.683 222.967 C 279.683 222.967 272.228 221.041 271.284 221.457 C 267.042 223.328 261.85 225.829 258.237 222.967 Z " fill="rgb(70,72,80)"/><path d=" M 261.263 281.482 C 261.263 281.482 255.028 259.656 247.97 261.099 C 240.912 262.542 235.291 278.055 237.471 284.909 C 239.65 291.763 261.593 291.943 261.263 281.482 Z " fill="rgb(244,189,161)"/><path d=" M 242.198 274.974 L 240.708 273.641 C 240.952 273.367 246.749 266.993 251.865 267.077 C 253.563 267.118 254.995 267.844 256.119 269.233 L 254.564 270.491 C 253.816 269.566 252.918 269.104 251.817 269.076 L 251.714 269.075 C 248.244 269.075 243.679 273.32 242.198 274.974 Z " fill="rgb(70,72,80)"/><path d=" M 252.995 275.256 C 249.467 274.094 246.661 275.22 246.633 275.231 L 245.872 273.382 C 246.014 273.323 249.4 271.965 253.622 273.357 L 252.995 275.256 Z " fill="rgb(70,72,80)"/><path d=" M 287.171 200.515 C 284.874 192.856 280.513 183.727 272.264 177.382 C 283.351 185.3 287.148 200.421 287.171 200.515 Z " fill="rgb(76,156,168)"/><path d=" M 279.181 205.314 C 267.686 205.312 252.585 184.258 243.979 177.946 C 240.054 175.068 236.149 174.151 232.765 174.151 C 228.862 174.151 225.652 175.372 223.905 176.211 C 232.008 171.921 239.063 170.029 246.195 170.029 C 252.528 170.029 258.923 171.521 266.165 174.151 C 268.407 174.966 270.434 176.076 272.264 177.382 C 280.513 183.727 284.874 192.856 287.171 200.515 C 287.171 200.516 287.172 200.516 287.172 200.516 C 284.862 203.919 282.142 205.314 279.181 205.314 Z  M 222.477 176.986 C 222.477 176.986 222.99 176.65 223.905 176.211 C 223.433 176.461 222.957 176.719 222.477 176.986 Z " fill="rgb(75,84,94)"/><path d=" M 280.83 214.807 C 277.019 214.807 272.68 210.194 267.271 204.444 C 261.955 198.794 255.34 191.762 247.41 187.403 C 227.901 176.679 210.32 207.993 210.145 208.311 L 209.27 207.827 C 209.45 207.5 227.511 175.319 247.892 186.527 C 255.96 190.962 262.635 198.058 267.998 203.759 C 273.544 209.653 277.906 214.309 281.383 213.764 C 283.04 213.503 284.493 212.013 285.824 209.208 L 286.729 209.636 C 285.244 212.763 283.547 214.436 281.538 214.752 C 281.304 214.789 281.068 214.807 280.83 214.807 Z " fill="rgb(94,126,137)"/><path d=" M 281.231 209.957 C 276.929 209.957 274.106 206.087 270.005 200.466 C 266.312 195.402 261.714 189.1 254.024 182.474 C 247.809 177.118 241.495 175.165 235.251 176.665 C 218.958 180.583 208.114 206.733 208.006 206.997 L 207.08 206.619 C 207.107 206.552 209.868 199.839 214.647 192.725 C 219.081 186.124 226.214 177.81 235.016 175.693 C 241.591 174.112 248.204 176.138 254.677 181.716 C 262.454 188.417 267.089 194.771 270.813 199.876 C 276.73 207.988 279.435 211.689 287.495 206.668 L 288.024 207.517 C 285.314 209.204 283.129 209.957 281.231 209.957 Z " fill="rgb(94,126,137)"/><path d=" M 285.589 204.71 L 285.364 204.704 C 282.7 204.567 278.004 201.894 270.757 189.93 C 258.414 169.552 240.962 172.569 237.588 173.382 L 237.354 172.409 C 240.845 171.57 258.908 168.439 271.612 189.411 C 278.968 201.555 283.391 203.578 285.373 203.703 C 286.725 203.786 287.339 203.046 287.363 203.014 L 288.158 203.621 C 288.123 203.667 287.314 204.71 285.589 204.71 Z " fill="rgb(94,126,137)"/><path d=" M 220.358 204.21 C 220.358 204.21 211.717 211.398 211.659 225.967 C 211.601 240.536 212.477 277.773 228.814 275.388 C 228.814 275.388 223.354 281.984 215.99 270.459 C 208.625 258.935 204.141 237.437 211.659 211.119 C 211.659 211.119 218.562 202.245 220.358 204.21 Z " fill="rgb(233,152,117)"/><path d=" M 285.31 331.697 C 285.31 331.697 282.699 486.134 283.967 500 L 336.061 500 C 336.061 500 352.835 401.205 347.212 377.68 C 339.333 344.71 285.31 331.697 285.31 331.697 Z " fill="rgb(70,72,80)"/><path d=" M 214.389 332.822 C 214.389 332.822 223.745 486.134 222.477 500 L 170.916 500 C 170.916 500 146.864 401.205 152.487 377.68 C 160.367 344.71 214.389 332.822 214.389 332.822 Z " fill="rgb(70,72,80)"/><path d=" M 163.967 462.953 L 164.086 461.235 C 164.102 461.018 165.909 439.251 191.612 425.341 L 192.088 426.22 C 171.112 437.572 166.359 454.158 165.344 459.546 C 173.632 450.143 199.095 434.027 200.231 433.311 L 200.764 434.156 C 200.473 434.34 171.574 452.629 164.988 461.567 L 163.967 462.953 Z " fill="rgb(94,126,137)"/><path d=" M 211.834 436.959 C 199.02 409.71 191.437 375.979 191.362 375.641 L 192.338 375.424 C 192.413 375.76 199.973 409.387 212.74 436.533 L 211.834 436.959 Z " fill="rgb(94,126,137)"/><path d=" M 300.798 446.572 C 300.798 446.572 224.044 488.66 196.093 490.721 C 168.142 492.783 164.586 461.271 164.586 461.271 C 164.586 461.271 199.352 443.871 217.582 435.942 C 217.582 435.942 258.655 424.227 304.398 425.78 C 304.398 425.78 310.121 438.81 300.798 446.572 Z " fill="rgb(244,189,161)"/><path d=" M 197.471 445.207 C 197.471 445.207 171.887 456.699 173.257 468.116 C 174.627 479.532 181.939 491.552 203.854 485.438 C 225.768 479.324 287.767 444.113 303.575 443.525 L 304.398 446.591 C 304.398 446.591 270.294 462.835 254.824 469.808 C 239.354 476.78 177.362 522.397 164.586 461.271 C 164.586 461.271 170.087 458.893 197.471 445.207 Z " fill="rgb(233,152,117)"/><path d=" M 321.663 318.189 C 321.663 318.189 302.026 284.037 292.964 280.277 C 283.903 276.517 262.98 284.316 262.98 284.316 L 265.737 291.307 C 265.737 291.307 292.473 278.156 297.284 298.34 C 297.284 298.34 282.071 294.701 275.493 302.008 C 268.636 309.624 269.087 321.429 269.087 321.429 L 277.17 323.074 C 277.17 323.074 274.199 304.644 292.321 303.949 C 292.321 303.949 276.98 305.731 280.858 326.14 L 288.022 328.159 C 288.022 328.159 285.679 307.479 298.192 308.126 C 298.192 308.126 284.916 311.646 292.061 328.49 L 298.693 327.896 C 298.693 327.896 293.184 315.539 300.52 313.412 C 300.52 313.412 299.544 327.896 309.514 336.42 C 309.514 336.42 305.248 374.924 303.286 399.416 C 300.865 429.631 287.372 508.428 347.517 474.424 C 347.517 474.424 338.74 346.035 321.663 318.189 Z " fill="rgb(244,189,161)"/><path d=" M 266.68 289.943 L 266.223 289.055 C 268.478 287.893 270.99 286.32 271.366 285.705 C 270.813 285.394 267.683 285.188 265.003 285.231 L 264.987 284.231 C 269.591 284.152 272.075 284.557 272.363 285.422 C 272.476 285.759 272.817 286.782 266.68 289.943 Z " fill="rgb(70,72,80)"/><path d=" M 280.619 285.524 L 280.089 280.327 L 281.083 280.226 L 281.613 285.423 L 280.619 285.524 Z " fill="rgb(70,72,80)"/><path d=" M 282.738 286.041 L 282.314 280.313 L 283.313 280.239 L 283.736 285.967 L 282.738 286.041 Z " fill="rgb(70,72,80)"/><path d=" M 285.644 285.524 L 284.649 285.423 L 285.18 280.226 L 286.174 280.327 L 285.644 285.524 Z " fill="rgb(70,72,80)"/><path d=" M 275.677 321.125 L 274.677 321.096 C 274.756 318.444 274.502 313.935 273.485 313.122 C 272.882 313.205 271.762 316.362 271.107 319.721 L 270.125 319.529 C 270.435 317.944 271.563 312.727 273.107 312.16 C 273.449 312.032 273.807 312.099 274.11 312.341 C 275.81 313.7 275.713 319.896 275.677 321.125 Z " fill="rgb(70,72,80)"/><path d=" M 286.177 325.68 L 285.177 325.662 C 285.217 323.377 284.818 319.862 283.839 319.574 C 283.746 319.548 283.688 319.56 283.61 319.614 C 282.923 320.108 282.526 322.721 282.465 324.417 L 281.465 324.38 C 281.493 323.616 281.698 319.759 283.025 318.803 C 283.355 318.566 283.734 318.5 284.12 318.615 C 286.186 319.222 286.195 324.606 286.177 325.68 Z " fill="rgb(70,72,80)"/><path d=" M 292.709 327.157 C 292.561 324.573 292.647 321.434 293.898 321.15 C 294.594 320.995 295.485 321.446 297.253 325.776 L 296.327 326.155 C 294.797 322.405 294.145 322.146 294.075 322.128 C 293.78 322.394 293.571 324.725 293.707 327.101 L 292.709 327.157 Z " fill="rgb(70,72,80)"/><path d=" M 281.512 304.97 C 280.972 303.818 279.348 301.738 279.331 301.718 L 280.118 301.101 C 280.188 301.189 281.829 303.291 282.418 304.546 L 281.512 304.97 Z " fill="rgb(70,72,80)"/><path d=" M 279.814 305.678 C 279.711 305.212 278.394 303.821 277.232 302.799 L 277.893 302.049 C 278.517 302.598 280.569 304.466 280.791 305.461 L 279.814 305.678 Z " fill="rgb(70,72,80)"/><path d=" M 289.075 310.424 C 287.935 309.859 285.368 309.244 285.342 309.238 L 285.574 308.266 C 285.684 308.292 288.276 308.913 289.519 309.527 L 289.075 310.424 Z " fill="rgb(70,72,80)"/><path d=" M 288.188 312.035 C 287.817 311.736 285.92 311.468 284.375 311.392 L 284.424 310.394 C 285.254 310.434 288.023 310.617 288.817 311.258 L 288.188 312.035 Z " fill="rgb(70,72,80)"/><path d=" M 296.594 314.183 C 295.551 313.738 293.15 313.338 293.127 313.334 L 293.289 312.348 C 293.393 312.364 295.833 312.771 296.986 313.263 L 296.594 314.183 Z " fill="rgb(70,72,80)"/><path d=" M 295.623 315.716 C 295.313 315.482 293.539 315.356 292.07 315.387 L 292.051 314.387 C 292.842 314.367 295.488 314.36 296.227 314.919 L 295.623 315.716 Z " fill="rgb(70,72,80)"/><path d=" M 308.357 347.105 C 308.357 347.105 296.839 455.078 312.539 468.641 C 328.238 482.205 347.09 468.641 347.09 468.641 L 347.517 474.424 C 347.517 474.424 313.177 501.451 302.897 465.006 C 294.999 437.005 308.357 347.105 308.357 347.105 Z " fill="rgb(233,152,117)"/><path d=" M 319.316 273.994 C 319.316 278.125 315.967 281.474 311.836 281.474 C 307.705 281.474 304.356 278.125 304.356 273.994 C 304.356 269.863 307.705 266.514 311.836 266.514 C 315.967 266.514 319.316 269.863 319.316 273.994 Z " fill="rgb(244,238,220)"/></g></g><g/></g></svg>