<?xml version="1.0" encoding="UTF-8" standalone="no"?><!-- Generator: Gravit.io --><svg xmlns="http://www.w3.org/2000/svg" xmlns:xlink="http://www.w3.org/1999/xlink" style="isolation:isolate" viewBox="0 0 750 500" width="750pt" height="500pt"><defs><clipPath id="_clipPath_Sz65bOZkXECCxdWojKlnCzrQGrQhftbd"><rect x="0" y="0" width="750" height="500"/></clipPath></defs><g clip-path="url(#_clipPath_Sz65bOZkXECCxdWojKlnCzrQGrQhftbd)"><rect x="0" y="0" width="750" height="500" transform="matrix(1,0,0,1,0,0)" fill="none"/><g><clipPath id="_clipPath_4vAJPTPVOppnwALqdlt01LbHo4iOFc6k"><path d=" M 0 0 L 0 500 L 750 500 L 750 0 L 0 0 Z " fill="rgb(255,255,255)"/></clipPath><g clip-path="url(#_clipPath_4vAJPTPVOppnwALqdlt01LbHo4iOFc6k)"><path d=" M 750 500 L 0 500 L 0 0 L 750 0 L 750 500 Z " fill="none"/><path d=" M 219.066 373.13 L 215.635 373.13 L 212.205 373.13 C 209.129 373.13 206.422 371.1 205.56 368.147 L 205.56 368.146 C 204.661 365.064 201.859 363.159 198.907 363.159 C 197.791 363.159 196.652 363.432 195.588 364.016 C 194.542 364.589 193.398 364.869 192.262 364.869 C 191.778 364.869 191.296 364.818 190.824 364.718 L 188.157 295.92 C 189.361 295.032 190.805 294.572 192.262 294.572 C 193.398 294.572 194.542 294.852 195.588 295.425 C 196.653 296.009 197.79 296.281 198.907 296.281 C 201.859 296.281 204.661 294.377 205.56 291.294 C 206.422 288.341 209.129 286.311 212.205 286.311 L 215.635 286.311 L 219.066 286.311 C 222.142 286.311 224.849 288.341 225.71 291.294 C 226.609 294.377 229.411 296.282 232.363 296.281 C 233.48 296.281 234.618 296.009 235.682 295.425 C 236.728 294.852 237.873 294.572 239.008 294.572 C 240.801 294.572 242.573 295.268 243.905 296.6 L 246.33 299.025 L 248.756 301.451 C 250.931 303.626 251.41 306.976 249.931 309.673 L 249.93 309.673 C 247.803 313.553 249.813 318.407 254.061 319.646 L 254.061 319.646 C 257.014 320.507 259.045 323.214 259.045 326.29 L 259.045 329.72 L 259.045 333.151 C 259.045 336.227 257.014 338.934 254.061 339.795 L 254.061 339.795 C 249.813 341.034 247.803 345.887 249.93 349.768 C 251.41 352.465 250.931 355.815 248.756 357.99 L 246.33 360.416 L 243.905 362.841 C 242.573 364.173 240.801 364.869 239.008 364.869 C 237.873 364.868 236.728 364.589 235.682 364.016 C 234.618 363.432 233.48 363.159 232.363 363.159 C 229.411 363.159 226.609 365.064 225.71 368.146 L 225.71 368.147 C 224.849 371.1 222.142 373.13 219.066 373.13 Z  M 215.635 311.987 C 205.841 311.987 197.902 319.927 197.902 329.72 C 197.902 339.514 205.841 347.454 215.635 347.454 C 225.429 347.454 233.368 339.514 233.368 329.72 C 233.368 319.927 225.429 311.987 215.635 311.987 Z " fill="rgb(243,182,68)"/><path d=" M 574.569 304.053 C 572.886 303.224 571.571 301.716 571.02 299.827 C 571.019 299.824 571.019 299.822 571.018 299.82 C 570.759 298.94 570.242 298.248 569.572 297.758 C 568.902 297.269 568.081 296.997 567.247 296.997 C 567.247 296.997 567.246 296.997 567.245 296.997 C 566.613 296.998 565.976 297.149 565.364 297.484 C 565.359 297.487 565.354 297.49 565.349 297.492 C 564.32 298.053 563.191 298.328 562.074 298.328 C 562.074 298.328 562.073 298.328 562.073 298.328 C 560.301 298.328 558.545 297.638 557.228 296.322 L 555.341 294.434 L 553.453 292.546 C 552.136 291.229 551.446 289.473 551.447 287.701 C 551.446 286.578 551.723 285.443 552.29 284.41 L 552.29 284.41 C 552.625 283.799 552.776 283.161 552.777 282.529 C 552.777 281.695 552.506 280.873 552.016 280.202 C 551.526 279.532 550.834 279.015 549.954 278.756 C 549.952 278.755 549.95 278.755 549.948 278.754 C 547.025 277.902 545.017 275.224 545.017 272.18 L 545.017 269.51 L 545.017 266.84 C 545.017 263.796 547.025 261.117 549.948 260.265 L 549.948 260.265 C 549.948 260.265 549.948 260.265 549.948 260.265 C 550.831 260.006 551.525 259.488 552.016 258.817 C 552.506 258.147 552.777 257.324 552.777 256.49 C 552.776 255.858 552.625 255.221 552.29 254.609 L 552.29 254.609 C 551.723 253.576 551.446 252.441 551.447 251.318 C 551.446 249.546 552.136 247.79 553.453 246.473 L 555.341 244.585 L 557.228 242.698 C 558.545 241.381 560.299 240.692 562.07 240.692 C 562.071 240.692 562.072 240.692 562.073 240.692 C 563.196 240.691 564.331 240.968 565.364 241.535 L 565.364 241.535 C 565.976 241.87 566.613 242.021 567.245 242.022 C 567.246 242.022 567.246 242.022 567.247 242.022 C 568.081 242.022 568.902 241.75 569.572 241.261 C 570.239 240.773 570.755 240.084 571.015 239.209 C 571.017 239.204 571.018 239.198 571.02 239.193 C 571.873 236.27 574.551 234.262 577.595 234.262 L 580.265 234.262 L 582.935 234.262 C 585.979 234.262 588.657 236.27 589.509 239.193 C 589.51 239.195 589.51 239.197 589.511 239.199 C 589.771 240.079 590.287 240.771 590.957 241.261 C 591.627 241.75 592.448 242.022 593.282 242.022 C 593.283 242.022 593.284 242.022 593.284 242.022 C 593.913 242.021 594.546 241.872 595.155 241.541 C 595.158 241.539 595.162 241.537 595.165 241.535 C 596.198 240.969 597.332 240.692 598.454 240.692 C 598.455 240.692 598.456 240.692 598.456 240.692 C 600.228 240.691 601.984 241.381 603.301 242.698 L 605.189 244.585 L 607.077 246.473 C 608.393 247.79 609.083 249.546 609.083 251.318 C 609.083 252.441 608.806 253.576 608.239 254.609 L 606.957 253.906 L 608.239 254.609 C 607.904 255.221 607.753 255.858 607.752 256.49 C 607.752 257.324 608.024 258.147 608.513 258.817 C 609.004 259.488 609.699 260.006 610.582 260.265 L 610.582 260.265 C 613.504 261.117 615.512 263.796 615.513 266.84 L 615.513 269.51 L 615.513 272.18 C 615.512 275.224 613.504 277.902 610.582 278.754 C 610.58 278.755 610.578 278.755 610.576 278.756 C 609.696 279.015 609.003 279.532 608.513 280.202 C 608.308 280.482 608.142 280.79 608.017 281.113 L 604.98 281.101 C 605.182 280.157 605.58 279.263 606.151 278.48 C 607 277.311 608.247 276.389 609.763 275.948 L 609.763 275.948 C 611.438 275.46 612.59 273.924 612.589 272.18 L 612.589 269.51 L 612.589 266.84 C 612.59 265.095 611.438 263.559 609.763 263.072 C 609.755 263.069 609.747 263.067 609.739 263.064 C 608.234 262.62 606.996 261.701 606.151 260.539 C 605.299 259.37 604.83 257.953 604.829 256.49 C 604.828 255.384 605.101 254.249 605.676 253.203 L 605.676 253.203 C 606.002 252.608 606.159 251.963 606.159 251.318 C 606.159 250.299 605.765 249.297 605.01 248.541 L 603.122 246.653 L 601.234 244.765 C 600.478 244.009 599.475 243.615 598.456 243.615 C 597.817 243.615 597.176 243.77 596.585 244.09 C 596.581 244.093 596.576 244.096 596.571 244.099 C 595.526 244.672 594.394 244.945 593.289 244.945 C 593.288 244.945 593.286 244.945 593.284 244.945 C 591.821 244.944 590.404 244.475 589.235 243.624 C 588.066 242.774 587.144 241.528 586.703 240.011 L 586.703 240.011 C 586.215 238.336 584.679 237.185 582.935 237.185 L 580.265 237.185 L 577.595 237.185 C 577.594 237.185 577.594 237.185 577.594 237.185 C 575.85 237.185 574.315 238.337 573.826 240.011 L 573.826 240.011 C 573.826 240.011 573.826 240.011 573.826 240.011 C 573.385 241.528 572.463 242.774 571.294 243.624 C 570.125 244.475 568.708 244.944 567.245 244.945 C 567.243 244.945 567.242 244.945 567.24 244.945 C 566.136 244.945 565.003 244.672 563.959 244.099 C 563.954 244.096 563.948 244.093 563.943 244.09 C 563.353 243.77 562.712 243.615 562.073 243.615 C 561.054 243.615 560.052 244.009 559.296 244.765 L 557.408 246.653 L 555.52 248.541 C 554.764 249.297 554.37 250.299 554.37 251.318 C 554.37 251.957 554.525 252.598 554.845 253.188 C 554.848 253.193 554.851 253.198 554.854 253.204 C 555.428 254.25 555.701 255.384 555.7 256.49 C 555.7 257.953 555.23 259.37 554.379 260.539 C 553.533 261.702 552.294 262.622 550.786 263.065 C 550.78 263.067 550.773 263.07 550.766 263.072 C 549.091 263.559 547.94 265.095 547.94 266.84 L 547.94 269.51 L 547.94 272.18 C 547.94 273.924 549.091 275.46 550.766 275.948 L 550.766 275.948 C 552.283 276.389 553.529 277.311 554.379 278.48 C 555.23 279.649 555.699 281.066 555.7 282.529 C 555.701 283.636 555.428 284.769 554.854 285.816 C 554.851 285.821 554.848 285.826 554.845 285.831 C 554.525 286.422 554.37 287.062 554.37 287.701 C 554.37 288.72 554.764 289.723 555.52 290.479 L 557.408 292.367 L 559.296 294.255 C 560.052 295.01 561.054 295.404 562.073 295.404 C 562.718 295.404 563.364 295.247 563.959 294.921 L 563.959 294.921 C 565.004 294.347 566.136 294.074 567.241 294.074 C 567.242 294.074 567.244 294.074 567.245 294.074 C 568.708 294.075 570.125 294.544 571.294 295.396 C 572.463 296.245 573.385 297.492 573.826 299.008 C 573.827 299.011 573.828 299.014 573.829 299.016 C 574.002 299.607 574.307 300.133 574.704 300.565 L 574.569 304.053 Z  M 550.357 261.668 M 595.868 242.817 M 572.423 239.602" fill="rgb(250,222,234)"/><path d=" M 575.348 283.964 C 569.33 281.917 565.002 276.22 565.001 269.51 C 565.002 261.079 571.834 254.247 580.265 254.246 C 588.695 254.247 595.527 261.079 595.528 269.51 L 595.528 269.51 L 595.528 269.51 L 595.528 269.51 C 595.528 274.116 593.487 278.246 590.261 281.044 L 584.717 281.023 C 586.333 280.397 587.784 279.441 588.991 278.236 C 591.226 275.998 592.604 272.922 592.605 269.51 C 592.604 266.097 591.226 263.022 588.991 260.784 C 586.753 258.548 583.677 257.17 580.265 257.169 C 576.852 257.17 573.777 258.548 571.539 260.784 C 569.303 263.021 567.925 266.097 567.924 269.51 C 567.925 272.922 569.303 275.998 571.539 278.236 C 572.723 279.419 574.143 280.362 575.723 280.988 L 575.463 280.987 L 575.348 283.964 Z  M 595.528 269.51 L 595.528 269.51 L 595.528 269.51 Z " fill="rgb(250,222,234)"/><path d=" M 559.868 401.485 L 556.438 401.485 L 553.007 401.485 C 549.931 401.485 547.224 399.455 546.363 396.502 C 545.464 393.419 542.662 391.515 539.709 391.515 C 538.593 391.515 537.455 391.787 536.39 392.371 C 535.344 392.945 534.2 393.224 533.064 393.224 C 531.272 393.224 529.5 392.528 528.168 391.196 L 525.743 388.771 L 523.317 386.345 C 521.142 384.17 520.663 380.82 522.142 378.123 C 524.27 374.243 522.26 369.39 518.012 368.151 L 518.012 368.151 C 515.059 367.289 513.028 364.582 513.028 361.506 L 513.028 358.076 L 513.028 354.645 C 513.028 351.569 515.059 348.862 518.012 348.001 L 518.012 348.001 C 522.26 346.762 524.27 341.909 522.142 338.028 C 520.663 335.331 521.142 331.981 523.317 329.806 L 525.743 327.381 L 528.168 324.955 C 529.5 323.623 531.271 322.928 533.064 322.928 C 534.2 322.928 535.344 323.207 536.39 323.78 C 537.455 324.364 538.593 324.637 539.709 324.637 C 542.662 324.637 545.464 322.732 546.363 319.65 L 546.363 319.65 C 547.224 316.697 549.931 314.667 553.007 314.667 L 556.438 314.667 L 559.868 314.667 C 562.944 314.667 565.651 316.697 566.513 319.65 L 566.513 319.65 C 567.412 322.733 570.213 324.637 573.166 324.637 C 573.367 324.637 573.57 324.628 573.772 324.61 L 572.745 351.099 C 570.036 344.774 563.754 340.343 556.438 340.343 C 546.644 340.343 538.705 348.282 538.705 358.076 C 538.705 367.869 546.644 375.809 556.438 375.809 C 563.266 375.809 569.193 371.95 572.156 366.292 L 571.167 391.81 C 569.021 392.457 567.204 394.131 566.513 396.502 C 565.651 399.455 562.944 401.485 559.868 401.485 Z  M 598.914 364.976 L 599.847 356.234 L 599.847 358.076 L 599.847 361.506 C 599.847 362.757 599.511 363.947 598.914 364.976 Z " fill="rgb(238,78,52)"/><path d=" M 374.359 355.431 C 300.36 355.431 240.372 295.443 240.372 221.444 C 240.372 206.243 242.908 191.636 247.572 178.016 L 288.533 197.205 C 286.361 204.912 285.197 213.042 285.197 221.444 C 285.197 270.687 325.116 310.606 374.359 310.606 C 378.501 310.606 382.576 310.317 386.568 309.77 L 401.052 352.768 C 392.425 354.512 383.499 355.431 374.359 355.431 Z " fill="rgb(238,78,52)"/><path d=" M 430.568 344.709 L 430.929 341.317 C 431.835 340.889 432.736 340.451 433.63 340.003 L 433.878 343.143 C 432.784 343.679 431.678 344.202 430.568 344.709 Z  M 402.958 332.481 L 394.331 306.871 L 395.864 306.485 C 398.652 305.782 401.388 304.945 404.063 303.982 L 403.941 307.125 C 402.024 307.787 400.079 308.385 398.106 308.92 L 403.276 324.268 L 402.958 332.481 Z  M 462.008 324.709 L 461.881 320.953 C 489.474 296.669 506.885 261.091 506.884 221.444 C 506.883 196.126 499.787 172.477 487.474 152.358 L 489.967 150.832 C 502.552 171.392 509.807 195.577 509.807 221.444 C 509.805 262.823 491.251 299.866 462.008 324.709 Z  M 442.548 281.133 L 438.625 281.117 C 453.166 265.466 462.061 244.493 462.059 221.444 C 462.058 197.222 452.245 175.306 436.372 159.431 C 420.497 143.558 398.581 133.745 374.359 133.744 C 374.357 133.744 374.356 133.744 374.354 133.744 C 337.58 133.744 306.098 156.387 293.069 188.485 L 292.489 189.912 L 249.175 169.621 L 249.73 168.322 C 270.385 119.921 318.409 85.998 374.359 85.996 C 398.995 85.995 422.106 92.577 442.012 104.076 L 440.55 106.608 C 421.073 95.357 398.473 88.92 374.359 88.919 C 374.355 88.919 374.358 88.919 374.355 88.919 C 320.117 88.919 273.49 121.513 252.979 168.175 L 290.951 185.963 C 304.756 153.547 336.902 130.822 374.359 130.82 C 424.409 130.821 464.981 171.394 464.982 221.444 C 464.981 244.307 456.516 265.19 442.548 281.133 Z " fill="rgb(243,182,68)"/><path d=" M 209.88 394.774 L 191.989 394.774 L 191.838 390.876 L 209.88 390.876 L 209.88 394.774 Z " fill="rgb(254,254,254)"/><path d=" M 205.496 286.962 C 203.539 286.693 201.966 285.938 200.797 284.945 C 199.623 283.952 198.855 282.752 198.351 281.615 C 197.349 279.335 197.34 277.279 197.334 276.999 L 197.334 276.968 L 199.64 276.999 L 200.257 276.999 L 200.257 276.999 L 200.257 277.003 C 200.256 277.077 200.272 278.04 200.59 279.202 C 200.914 280.397 201.545 281.755 202.684 282.712 C 203.448 283.353 204.444 283.86 205.9 284.067 L 205.496 286.962 Z " fill="rgb(254,254,254)"/><path d=" M 374.359 287.544 C 337.852 287.543 308.26 257.951 308.259 221.444 C 308.26 184.938 337.852 155.345 374.359 155.344 C 393.802 155.345 411.282 163.737 423.377 177.099 L 419.357 177.099 C 419.249 176.99 419.14 176.88 419.031 176.772 C 407.594 165.337 391.809 158.268 374.359 158.268 C 356.908 158.268 341.123 165.337 329.686 176.772 C 318.251 188.209 311.183 203.994 311.182 221.444 C 311.183 238.895 318.251 254.679 329.686 266.117 C 341.123 277.552 356.908 284.62 374.359 284.621 C 391.809 284.62 407.594 277.552 419.031 266.117 C 430.466 254.679 437.535 238.895 437.535 221.444 C 437.535 217.958 437.253 214.539 436.71 211.207 C 437.762 210.707 438.654 210.136 439.395 209.57 C 440.094 213.422 440.459 217.391 440.459 221.444 L 440.459 221.444 L 440.459 221.444 L 440.459 221.444 C 440.458 257.951 410.865 287.543 374.359 287.544 Z  M 440.459 221.444 L 440.459 221.444 L 440.459 221.444 Z " fill="rgb(238,78,52)"/><path d=" M 374.359 264.157 C 350.768 264.157 331.646 245.035 331.645 221.444 C 331.646 197.854 350.768 178.732 374.359 178.731 C 397.949 178.732 417.071 197.854 417.072 221.444 L 417.072 221.444 L 417.072 221.444 L 417.072 221.444 C 417.071 245.035 397.949 264.157 374.359 264.157 Z  M 374.359 181.654 C 363.366 181.655 353.428 186.106 346.223 193.308 C 339.02 200.514 334.569 210.452 334.569 221.444 C 334.569 232.437 339.02 242.375 346.223 249.58 C 353.428 256.783 363.366 261.233 374.359 261.234 C 385.351 261.233 395.289 256.783 402.494 249.58 C 409.697 242.375 414.148 232.437 414.148 221.444 C 414.148 210.452 409.697 200.514 402.494 193.308 C 395.289 186.106 385.351 181.655 374.359 181.654 Z  M 417.072 221.444 L 417.072 221.444 L 417.072 221.444 Z " fill="rgb(243,182,68)"/><path d=" M 208.233 139.389 C 208.06 139.389 207.887 139.358 207.72 139.296 C 207.253 139.121 206.909 138.722 206.804 138.235 L 205.253 131.032 L 205.896 131.147 C 205.983 131.163 206.07 131.17 206.155 131.17 C 206.849 131.17 207.466 130.673 207.592 129.965 C 207.734 129.171 207.205 128.411 206.411 128.269 L 204.589 127.943 L 203.486 122.821 L 205.047 121.021 L 239.527 116.115 C 240.041 116.042 240.464 115.704 240.662 115.25 C 240.563 115.478 240.406 115.682 240.197 115.838 L 209.108 139.097 C 208.852 139.289 208.544 139.389 208.233 139.389 Z  M 206.058 120.877 L 209.182 135.391 L 233.872 116.92 L 206.058 120.877 Z  M 240.771 114.479 C 240.771 114.479 240.771 114.478 240.771 114.477 C 240.771 114.478 240.771 114.479 240.771 114.479 Z  M 240.769 114.467 C 240.714 114.066 240.493 113.71 240.171 113.479 C 240.389 113.634 240.565 113.85 240.672 114.109 C 240.721 114.226 240.753 114.346 240.769 114.467 Z " fill="rgb(243,182,68)"/><path d=" M 205.047 121.021 L 205.402 120.612 C 205.931 120.002 205.865 119.079 205.256 118.55 C 204.979 118.31 204.638 118.192 204.299 118.192 C 203.89 118.192 203.483 118.363 203.194 118.696 L 202.589 119.393 L 197.506 107.833 C 197.288 107.338 197.361 106.762 197.697 106.338 C 197.977 105.984 198.401 105.783 198.843 105.783 C 198.931 105.783 199.019 105.791 199.107 105.807 L 239.585 113.23 L 239.585 113.23 L 239.321 114.668 L 239.585 113.23 L 239.585 113.23 C 239.802 113.27 240.001 113.357 240.171 113.479 C 240.493 113.71 240.714 114.066 240.769 114.467 C 240.77 114.47 240.77 114.474 240.771 114.477 C 240.771 114.478 240.771 114.479 240.771 114.479 C 240.78 114.551 240.784 114.623 240.783 114.697 C 240.779 114.892 240.736 115.079 240.662 115.25 C 240.464 115.704 240.041 116.042 239.527 116.115 L 205.047 121.021 Z  M 201.291 109.18 L 205.191 118.048 L 230.225 114.486 L 201.291 109.18 Z " fill="rgb(243,182,68)"/><path d=" M 206.155 131.17 C 206.07 131.17 205.983 131.163 205.896 131.147 L 205.253 131.032 L 196.74 129.51 C 196.221 129.417 195.795 129.054 195.619 128.558 C 195.444 128.061 195.548 127.511 195.893 127.113 L 202.589 119.393 L 203.194 118.696 C 203.483 118.363 203.89 118.192 204.299 118.192 C 204.638 118.192 204.979 118.31 205.256 118.55 C 205.865 119.079 205.931 120.002 205.402 120.612 L 205.047 121.021 L 203.486 122.821 L 199.787 127.085 L 204.589 127.943 L 206.411 128.269 C 207.205 128.411 207.734 129.171 207.592 129.965 C 207.466 130.673 206.849 131.17 206.155 131.17 Z " fill="rgb(250,222,234)"/><path d=" M 192.05 113.886 L 189.983 111.819 L 191.017 110.785 L 193.084 112.852 L 192.05 113.886 Z " fill="rgb(205,192,215)"/><path d=" M 154.644 151.292 L 152.577 149.225 L 154.581 147.221 L 156.648 149.288 L 154.644 151.292 Z  M 159.32 146.616 L 157.253 144.549 L 159.257 142.545 L 161.324 144.612 L 159.32 146.616 Z  M 163.996 141.94 L 161.929 139.873 L 163.933 137.869 L 166 139.937 L 163.996 141.94 Z  M 168.671 137.265 L 166.604 135.197 L 168.608 133.194 L 170.675 135.261 L 168.671 137.265 Z  M 173.347 132.589 L 171.28 130.522 L 173.284 128.518 L 175.351 130.585 L 173.347 132.589 Z  M 178.023 127.913 L 175.956 125.846 L 177.96 123.842 L 180.027 125.909 L 178.023 127.913 Z  M 182.699 123.237 L 180.632 121.17 L 182.636 119.166 L 184.703 121.234 L 182.699 123.237 Z  M 187.374 118.562 L 185.307 116.494 L 187.311 114.491 L 189.378 116.558 L 187.374 118.562 Z " fill="rgb(238,78,52)"/><path d=" M 150.939 154.997 L 148.872 152.93 L 149.905 151.897 L 151.972 153.964 L 150.939 154.997 Z " fill="rgb(205,192,215)"/><path d=" M 203.5 143.363 L 201.433 141.296 L 202.466 140.262 L 204.534 142.329 L 203.5 143.363 Z " fill="rgb(205,192,215)"/><path d=" M 176.303 170.56 L 174.588 170.56 L 173.378 169.35 L 175.382 167.346 L 177.449 169.413 L 176.303 170.56 Z  M 180.121 166.742 L 178.054 164.675 L 180.058 162.671 L 182.125 164.738 L 180.121 166.742 Z  M 184.797 162.066 L 182.73 159.999 L 184.734 157.995 L 186.801 160.062 L 184.797 162.066 Z  M 189.473 157.39 L 187.406 155.323 L 189.41 153.319 L 191.477 155.386 L 189.473 157.39 Z  M 194.148 152.715 L 192.081 150.647 L 194.085 148.643 L 196.152 150.711 L 194.148 152.715 Z  M 198.824 148.039 L 196.757 145.972 L 198.761 143.968 L 200.828 146.035 L 198.824 148.039 Z " fill="rgb(238,78,52)"/><path d=" M 192.05 132.157 L 189.983 130.09 L 191.017 129.056 L 193.084 131.123 L 192.05 132.157 Z " fill="rgb(205,192,215)"/><path d=" M 154.644 169.563 L 152.577 167.496 L 154.581 165.492 L 156.648 167.559 L 154.644 169.563 Z  M 159.32 164.887 L 157.253 162.82 L 159.257 160.816 L 161.324 162.883 L 159.32 164.887 Z  M 163.996 160.211 L 161.929 158.144 L 163.933 156.14 L 166 158.207 L 163.996 160.211 Z  M 168.671 155.536 L 166.604 153.468 L 168.608 151.465 L 170.675 153.532 L 168.671 155.536 Z  M 173.347 150.86 L 171.28 148.793 L 173.284 146.789 L 175.351 148.856 L 173.347 150.86 Z  M 178.023 146.184 L 175.956 144.117 L 177.96 142.113 L 180.027 144.18 L 178.023 146.184 Z  M 182.699 141.508 L 180.632 139.441 L 182.636 137.437 L 184.703 139.505 L 182.699 141.508 Z  M 187.374 136.833 L 185.307 134.766 L 187.311 132.762 L 189.378 134.829 L 187.374 136.833 Z " fill="rgb(238,78,52)"/><path d=" M 150.939 173.268 L 148.872 171.201 L 149.905 170.167 L 151.585 171.847 C 151.595 172.07 151.607 172.317 151.62 172.587 L 150.939 173.268 Z " fill="rgb(205,192,215)"/><path d=" M 547.343 172.461 C 542.678 172.46 538.898 168.681 538.898 164.016 C 538.898 159.351 542.678 155.572 547.343 155.571 C 552.007 155.572 555.787 159.351 555.788 164.016 L 555.788 164.016 L 555.788 164.016 L 555.788 164.016 C 555.787 168.681 552.007 172.46 547.343 172.461 Z  M 547.343 158.494 C 545.813 158.495 544.442 159.11 543.438 160.111 C 542.437 161.115 541.822 162.486 541.821 164.016 C 541.822 165.545 542.437 166.917 543.438 167.92 C 544.442 168.922 545.813 169.537 547.343 169.538 C 548.872 169.537 550.243 168.922 551.247 167.92 C 552.249 166.917 552.864 165.545 552.865 164.016 C 552.864 162.486 552.249 161.115 551.247 160.111 C 550.243 159.11 548.872 158.495 547.343 158.494 Z  M 555.788 164.016 L 555.788 164.016 L 555.788 164.016 Z " fill="rgb(205,192,215)"/><path d=" M 547.343 196.822 L 547.118 196.816 C 545.948 196.757 544.924 196.192 544.23 195.396 C 543.532 194.598 543.122 193.558 543.12 192.443 L 543.12 187.435 C 543.121 184.118 541.429 180.993 538.616 179.404 C 533.26 176.37 529.641 170.616 529.64 164.016 C 529.64 163.461 529.666 162.9 529.718 162.335 C 530.53 153.68 537.688 146.819 546.363 146.34 C 546.691 146.322 547.018 146.313 547.343 146.313 C 557.12 146.314 565.044 154.239 565.045 164.016 L 565.045 164.016 L 565.045 164.016 L 565.045 164.016 C 565.045 170.576 561.469 176.3 556.167 179.348 C 553.288 180.999 551.565 184.213 551.565 187.618 L 551.565 192.6 C 551.564 194.932 549.675 196.821 547.343 196.822 Z  M 547.343 149.237 C 547.07 149.237 546.797 149.244 546.521 149.259 C 539.317 149.637 533.282 155.426 532.629 162.604 C 532.585 163.08 532.564 163.551 532.564 164.016 C 532.563 169.528 535.581 174.32 540.057 176.861 C 543.864 179.025 546.043 183.142 546.044 187.435 L 546.044 192.443 C 546.042 192.824 546.192 193.202 546.427 193.467 C 546.666 193.735 546.948 193.879 547.271 193.897 L 547.343 193.899 C 548.06 193.898 548.641 193.317 548.642 192.6 L 548.642 187.618 C 548.642 183.244 550.845 179.044 554.709 176.814 C 559.141 174.261 562.122 169.495 562.122 164.016 C 562.121 159.93 560.47 156.245 557.793 153.565 C 555.114 150.889 551.429 149.237 547.343 149.237 Z " fill="rgb(238,78,52)"/><path d=" M 481.83 144.534 L 449.443 144.534 C 444.829 144.533 441.091 140.795 441.09 136.182 L 441.09 120.678 C 441.091 118.102 442.257 115.799 444.089 114.267 C 443.984 114.358 443.89 114.466 443.812 114.589 C 443.38 115.271 443.582 116.174 444.264 116.606 L 445.249 117.231 C 444.476 118.17 444.014 119.364 444.014 120.678 L 444.014 136.182 C 444.014 137.686 444.619 139.034 445.604 140.021 C 446.591 141.005 447.939 141.61 449.443 141.611 L 481.83 141.611 L 481.83 143.072 L 481.83 144.534 Z  M 481.83 144.534 L 481.83 143.072 L 481.83 141.611 C 483.333 141.61 484.681 141.005 485.668 140.021 C 486.653 139.034 487.258 137.686 487.258 136.182 L 487.258 120.678 C 487.258 119.364 486.797 118.17 486.024 117.231 L 487.009 116.606 C 487.69 116.174 487.893 115.271 487.46 114.589 C 487.38 114.463 487.285 114.354 487.177 114.262 C 489.013 115.794 490.181 118.099 490.182 120.678 L 490.182 136.182 C 490.181 140.795 486.443 144.533 481.83 144.534 Z  M 447.921 115.464 L 445.829 114.137 C 445.586 113.983 445.316 113.91 445.048 113.91 C 444.721 113.91 444.399 114.02 444.138 114.226 C 445.58 113.039 447.428 112.326 449.443 112.325 L 456.796 112.325 C 456.718 112.801 456.677 113.289 456.677 113.787 C 456.677 114.594 457.332 115.249 458.139 115.249 L 449.443 115.249 C 448.913 115.249 448.403 115.324 447.921 115.464 Z  M 483.351 115.464 C 482.869 115.324 482.359 115.249 481.83 115.249 L 473.133 115.249 C 473.94 115.249 474.595 114.594 474.595 113.787 C 474.595 113.289 474.554 112.801 474.476 112.325 L 481.83 112.325 C 483.847 112.326 485.697 113.041 487.14 114.231 C 486.879 114.021 486.554 113.91 486.224 113.91 C 485.957 113.91 485.686 113.983 485.443 114.137 L 483.351 115.464 Z  M 473.133 115.249 L 458.139 115.249 C 458.946 115.249 459.601 114.594 459.601 113.787 C 459.601 113.282 459.662 112.792 459.778 112.325 L 471.494 112.325 C 471.61 112.792 471.671 113.282 471.672 113.787 C 471.672 114.594 472.326 115.249 473.133 115.249 Z " fill="rgb(243,182,68)"/><path d=" M 465.638 128.623 C 465.637 128.623 465.637 128.623 465.636 128.623 C 464.081 128.624 462.523 128.189 461.158 127.32 L 461.16 127.321 L 445.249 117.231 L 444.264 116.606 C 443.582 116.174 443.38 115.271 443.812 114.589 C 443.89 114.466 443.984 114.358 444.089 114.267 C 444.105 114.253 444.121 114.239 444.138 114.226 C 444.399 114.02 444.721 113.91 445.048 113.91 C 445.316 113.91 445.586 113.983 445.829 114.137 L 447.921 115.464 L 462.725 124.852 L 462.727 124.853 C 463.615 125.418 464.624 125.7 465.636 125.7 C 466.648 125.7 467.657 125.418 468.545 124.853 L 468.547 124.852 L 483.351 115.464 L 485.443 114.137 C 485.686 113.983 485.957 113.91 486.224 113.91 C 486.554 113.91 486.879 114.021 487.14 114.231 C 487.153 114.241 487.165 114.251 487.177 114.262 C 487.285 114.354 487.38 114.463 487.46 114.589 C 487.893 115.271 487.69 116.174 487.009 116.606 L 486.024 117.231 L 470.112 127.321 L 470.114 127.32 C 468.749 128.188 467.192 128.623 465.638 128.623 Z " fill="rgb(243,182,68)"/><path d=" M 473.133 115.249 L 473.133 115.249 C 472.326 115.249 471.672 114.594 471.672 113.787 C 471.671 113.282 471.61 112.792 471.494 112.325 C 471.226 111.246 470.668 110.284 469.904 109.519 C 468.807 108.425 467.308 107.752 465.636 107.751 C 463.964 107.752 462.465 108.425 461.368 109.519 C 460.604 110.284 460.046 111.246 459.778 112.325 C 459.662 112.792 459.601 113.282 459.601 113.787 C 459.601 114.594 458.946 115.249 458.139 115.249 L 458.139 115.249 L 458.139 115.249 C 457.332 115.249 456.677 114.594 456.677 113.787 C 456.677 113.289 456.718 112.801 456.796 112.325 C 457.494 108.072 461.185 104.829 465.636 104.828 C 470.087 104.829 473.778 108.072 474.476 112.325 C 474.554 112.801 474.595 113.289 474.595 113.787 C 474.595 114.594 473.94 115.249 473.133 115.249 L 473.133 115.249 Z " fill="rgb(243,182,68)"/><path d=" M 268.819 106.29 L 267.52 106.29 L 266.22 106.29 C 265.055 106.29 264.029 105.521 263.703 104.402 C 263.362 103.234 262.301 102.512 261.182 102.512 C 260.759 102.512 260.328 102.616 259.925 102.837 L 259.925 102.837 C 259.528 103.054 259.095 103.16 258.665 103.16 C 257.986 103.16 257.314 102.896 256.81 102.392 L 255.891 101.473 L 254.972 100.554 C 254.148 99.73 253.967 98.461 254.527 97.439 C 255.333 95.969 254.571 94.13 252.962 93.661 L 252.962 93.661 C 251.843 93.334 251.074 92.309 251.074 91.144 L 251.074 89.844 L 251.074 88.544 C 251.074 87.379 251.843 86.353 252.962 86.027 L 252.962 86.027 C 254.571 85.558 255.333 83.719 254.527 82.249 L 254.527 82.249 C 253.967 81.227 254.148 79.958 254.972 79.134 L 255.891 78.215 L 256.81 77.296 C 257.314 76.792 257.985 76.528 258.665 76.528 C 259.095 76.528 259.528 76.634 259.925 76.851 L 259.925 76.851 C 260.328 77.073 260.759 77.176 261.182 77.176 C 262.301 77.176 263.362 76.454 263.703 75.286 C 264.029 74.168 265.055 73.399 266.22 73.399 L 267.52 73.399 L 268.819 73.399 C 269.985 73.399 271.01 74.168 271.336 75.286 C 271.677 76.454 272.738 77.176 273.857 77.176 C 274.28 77.176 274.711 77.073 275.114 76.851 C 275.511 76.634 275.944 76.528 276.374 76.528 C 277.054 76.528 277.725 76.792 278.229 77.296 L 279.148 78.215 L 280.067 79.134 C 280.891 79.958 281.073 81.227 280.512 82.249 C 279.706 83.719 280.468 85.558 282.077 86.027 L 282.077 86.027 C 283.196 86.353 283.965 87.379 283.965 88.544 L 283.965 89.844 L 283.965 91.144 C 283.965 92.309 283.196 93.334 282.077 93.661 L 282.077 93.661 C 280.468 94.13 279.706 95.969 280.512 97.439 C 281.073 98.461 280.891 99.73 280.067 100.554 L 279.148 101.473 L 278.229 102.392 C 277.725 102.896 277.054 103.16 276.374 103.16 C 275.944 103.16 275.511 103.054 275.114 102.837 C 274.711 102.616 274.28 102.512 273.857 102.512 C 272.739 102.512 271.677 103.234 271.336 104.402 C 271.01 105.521 269.985 106.29 268.819 106.29 Z  M 267.52 83.126 C 263.809 83.126 260.802 86.134 260.802 89.844 C 260.802 93.554 263.809 96.562 267.52 96.562 C 271.23 96.562 274.238 93.554 274.238 89.844 C 274.238 86.134 271.23 83.126 267.52 83.126 Z " fill="rgb(243,182,68)"/><path d=" M 120.224 301.552 L 117.301 301.552 L 117.301 298.629 L 120.224 298.629 L 120.224 301.552 Z  M 113.403 301.552 L 110.48 301.552 L 110.48 298.629 L 113.403 298.629 L 113.403 301.552 Z  M 106.582 301.552 L 103.659 301.552 L 103.659 298.629 L 106.582 298.629 L 106.582 301.552 Z  M 99.761 301.552 L 97.448 301.552 C 97.213 301.552 96.979 301.545 96.748 301.53 L 96.928 298.613 C 97.1 298.623 97.273 298.629 97.448 298.629 L 99.761 298.629 L 99.761 301.552 Z  M 92.447 300.377 C 91.437 299.872 90.515 299.221 89.709 298.451 L 91.728 296.337 C 92.325 296.907 93.008 297.389 93.753 297.761 L 92.447 300.377 Z  M 87.162 294.8 C 86.724 293.789 86.43 292.699 86.307 291.561 L 89.213 291.247 C 89.304 292.089 89.521 292.891 89.844 293.637 L 87.162 294.8 Z  M 89.165 287.509 L 86.241 287.509 L 86.241 284.585 L 89.165 284.585 L 89.165 287.509 Z  M 89.165 280.687 L 86.241 280.687 L 86.241 277.764 L 89.165 277.764 L 89.165 280.687 Z  M 89.165 273.866 L 86.241 273.866 L 86.241 270.943 L 89.165 270.943 L 89.165 273.866 Z  M 89.165 267.045 L 86.241 267.045 L 86.241 264.122 L 89.165 264.122 L 89.165 267.045 Z  M 89.165 260.224 L 86.241 260.224 L 86.241 257.301 L 89.165 257.301 L 89.165 260.224 Z  M 89.165 253.403 L 86.241 253.403 L 86.241 250.48 L 89.165 250.48 L 89.165 253.403 Z  M 89.165 246.582 L 86.241 246.582 L 86.241 243.658 L 89.165 243.658 L 89.165 246.582 Z  M 89.165 239.761 L 86.241 239.761 L 86.241 236.837 L 89.165 236.837 L 89.165 239.761 Z  M 89.165 232.94 L 86.241 232.94 L 86.241 230.016 L 89.165 230.016 L 89.165 232.94 Z  M 89.165 226.118 L 86.241 226.118 L 86.241 223.195 L 89.165 223.195 L 89.165 226.118 Z  M 89.165 219.297 L 86.241 219.297 L 86.241 216.374 L 89.165 216.374 L 89.165 219.297 Z  M 89.165 212.476 L 86.241 212.476 L 86.241 209.553 L 89.165 209.553 L 89.165 212.476 Z  M 89.165 205.655 L 86.241 205.655 L 86.241 202.732 L 89.165 202.732 L 89.165 205.655 Z  M 89.165 198.834 L 86.241 198.834 L 86.241 195.911 L 89.165 195.911 L 89.165 198.834 Z  M 89.165 192.013 L 86.241 192.013 L 86.241 189.089 L 89.165 189.089 L 89.165 192.013 Z  M 89.165 185.192 L 86.241 185.192 L 86.241 182.268 L 89.165 182.268 L 89.165 185.192 Z  M 89.723 178.982 L 86.998 177.924 C 87.408 176.868 87.973 175.89 88.665 175.019 L 90.955 176.836 C 90.443 177.481 90.026 178.203 89.723 178.982 Z  M 93.471 174.711 L 92.065 172.148 C 93.035 171.616 94.093 171.223 95.212 170.996 L 95.792 173.861 C 94.967 174.029 94.187 174.318 93.471 174.711 Z  M 136.415 173.696 L 133.492 173.696 L 133.492 170.773 L 136.415 170.773 L 136.415 173.696 Z  M 129.594 173.696 L 126.67 173.696 L 126.67 170.773 L 129.594 170.773 L 129.594 173.696 Z  M 122.773 173.696 L 119.849 173.696 L 119.849 170.773 L 122.773 170.773 L 122.773 173.696 Z  M 115.951 173.696 L 113.028 173.696 L 113.028 170.773 L 115.951 170.773 L 115.951 173.696 Z  M 106.38 173.696 L 106.207 173.696 L 106.207 170.773 L 109.13 170.773 L 109.13 171.722 L 106.38 171.722 L 106.38 173.696 Z  M 102.309 173.696 L 99.386 173.696 L 99.386 170.773 L 102.309 170.773 L 102.309 173.696 Z " fill="rgb(243,182,68)"/><path d=" M 120.51 215.363 L 117.586 215.363 L 117.586 212.44 L 120.51 212.44 L 120.51 215.363 Z  M 113.223 214.482 C 112.181 214.041 111.22 213.447 110.369 212.73 L 112.253 210.494 C 112.883 211.026 113.593 211.464 114.362 211.789 L 113.223 214.482 Z  M 107.6 209.247 C 107.098 208.262 106.736 207.193 106.542 206.067 L 109.423 205.572 C 109.566 206.403 109.833 207.19 110.204 207.917 L 107.6 209.247 Z  M 109.303 201.93 L 106.38 201.93 L 106.38 199.007 L 109.303 199.007 L 109.303 201.93 Z  M 109.303 195.109 L 106.38 195.109 L 106.38 192.185 L 109.303 192.185 L 109.303 195.109 Z  M 109.303 188.288 L 106.38 188.288 L 106.38 185.364 L 109.303 185.364 L 109.303 188.288 Z  M 109.303 181.467 L 106.38 181.467 L 106.38 178.543 L 109.303 178.543 L 109.303 181.467 Z  M 109.303 174.645 L 106.38 174.645 L 106.38 173.696 L 109.13 173.696 L 109.13 171.722 L 109.303 171.722 L 109.303 174.645 Z " fill="rgb(250,222,234)"/><path d=" M 109.13 173.696 L 106.38 173.696 L 106.38 171.722 L 109.13 171.722 L 109.13 173.696 Z " fill="rgb(248,203,221)"/><path d=" M 109.303 167.824 L 106.38 167.824 L 106.38 164.901 L 109.303 164.901 L 109.303 167.824 Z  M 109.303 161.003 L 106.38 161.003 L 106.38 158.08 L 109.303 158.08 L 109.303 161.003 Z  M 109.303 154.182 L 106.38 154.182 L 106.38 151.259 L 109.303 151.259 L 109.303 154.182 Z  M 109.303 147.361 L 106.38 147.361 L 106.38 144.438 L 109.303 144.438 L 109.303 147.361 Z  M 109.303 140.54 L 106.38 140.54 L 106.38 137.616 L 109.303 137.616 L 109.303 140.54 Z  M 109.303 133.719 L 106.38 133.719 L 106.38 130.795 L 109.303 130.795 L 109.303 133.719 Z  M 109.303 126.898 L 106.38 126.898 L 106.38 123.974 L 109.303 123.974 L 109.303 126.898 Z  M 109.303 120.076 L 106.38 120.076 L 106.38 117.153 L 109.303 117.153 L 109.303 120.076 Z  M 109.303 113.255 L 106.38 113.255 L 106.38 110.332 L 109.303 110.332 L 109.303 113.255 Z  M 109.303 106.434 L 106.38 106.434 L 106.38 103.511 L 109.303 103.511 L 109.303 106.434 Z  M 109.303 99.613 L 106.38 99.613 L 106.38 97.202 C 106.38 97.005 106.385 96.809 106.395 96.615 L 109.315 96.766 C 109.307 96.91 109.303 97.056 109.303 97.202 L 109.303 99.613 Z  M 110.134 93.582 L 107.506 92.302 C 108 91.287 108.642 90.359 109.404 89.545 L 111.538 91.543 C 110.974 92.145 110.499 92.832 110.134 93.582 Z  M 114.218 89.632 L 113.028 86.962 C 114.036 86.513 115.123 86.208 116.259 86.074 L 116.602 88.977 C 115.762 89.076 114.962 89.301 114.218 89.632 Z  M 231.259 88.919 L 229.463 88.919 L 229.463 85.996 L 231.259 85.996 L 231.259 88.919 Z  M 225.566 88.919 L 222.642 88.919 L 222.642 85.996 L 225.566 85.996 L 225.566 88.919 Z  M 218.745 88.919 L 215.821 88.919 L 215.821 85.996 L 218.745 85.996 L 218.745 88.919 Z  M 211.923 88.919 L 209 88.919 L 209 85.996 L 211.923 85.996 L 211.923 88.919 Z  M 205.102 88.919 L 202.179 88.919 L 202.179 85.996 L 205.102 85.996 L 205.102 88.919 Z  M 198.281 88.919 L 195.358 88.919 L 195.358 85.996 L 198.281 85.996 L 198.281 88.919 Z  M 191.46 88.919 L 188.537 88.919 L 188.537 85.996 L 191.46 85.996 L 191.46 88.919 Z  M 184.639 88.919 L 181.716 88.919 L 181.716 85.996 L 184.639 85.996 L 184.639 88.919 Z  M 177.818 88.919 L 174.894 88.919 L 174.894 85.996 L 177.818 85.996 L 177.818 88.919 Z  M 170.997 88.919 L 168.073 88.919 L 168.073 85.996 L 170.997 85.996 L 170.997 88.919 Z  M 164.175 88.919 L 161.252 88.919 L 161.252 85.996 L 164.175 85.996 L 164.175 88.919 Z  M 157.354 88.919 L 154.431 88.919 L 154.431 85.996 L 157.354 85.996 L 157.354 88.919 Z  M 150.533 88.919 L 147.61 88.919 L 147.61 85.996 L 150.533 85.996 L 150.533 88.919 Z  M 143.712 88.919 L 140.789 88.919 L 140.789 85.996 L 143.712 85.996 L 143.712 88.919 Z  M 136.891 88.919 L 133.968 88.919 L 133.968 85.996 L 136.891 85.996 L 136.891 88.919 Z  M 130.07 88.919 L 127.147 88.919 L 127.147 85.996 L 130.07 85.996 L 130.07 88.919 Z  M 123.249 88.919 L 120.325 88.919 L 120.325 85.996 L 123.249 85.996 L 123.249 88.919 Z " fill="rgb(243,182,68)"/><path d=" M 606.272 221.206 L 603.348 221.206 L 603.348 218.283 L 606.272 218.283 L 606.272 221.206 Z  M 606.272 214.385 L 603.348 214.385 L 603.348 213.473 L 606.272 213.473 L 606.272 214.385 Z  M 606.272 159.816 L 603.348 159.816 L 603.348 156.893 L 606.272 156.893 L 606.272 159.816 Z  M 606.272 152.995 L 603.348 152.995 L 603.348 150.072 L 606.272 150.072 L 606.272 152.995 Z  M 606.272 146.174 L 603.348 146.174 L 603.348 143.25 L 606.272 143.25 L 606.272 146.174 Z  M 606.272 139.353 L 603.348 139.353 L 603.348 136.429 L 606.272 136.429 L 606.272 139.353 Z  M 603.194 132.824 C 603.032 131.998 602.748 131.216 602.36 130.497 L 604.932 129.109 C 605.458 130.082 605.844 131.143 606.063 132.263 L 603.194 132.824 Z  M 600.253 127.968 C 599.611 127.451 598.891 127.029 598.114 126.721 L 599.191 124.004 C 600.244 124.421 601.218 124.992 602.085 125.69 L 600.253 127.968 Z  M 594.841 126.143 L 591.918 126.143 L 591.918 123.219 L 594.841 123.219 L 594.841 126.143 Z  M 588.02 126.143 L 585.097 126.143 L 585.097 123.219 L 588.02 123.219 L 588.02 126.143 Z  M 581.199 126.143 L 578.276 126.143 L 578.276 123.219 L 581.199 123.219 L 581.199 126.143 Z  M 574.378 126.143 L 571.455 126.143 L 571.455 123.219 L 574.378 123.219 L 574.378 126.143 Z  M 567.557 126.143 L 564.633 126.143 L 564.633 123.219 L 567.557 123.219 L 567.557 126.143 Z  M 560.736 126.143 L 557.812 126.143 L 557.812 123.219 L 560.736 123.219 L 560.736 126.143 Z  M 553.915 126.143 L 550.991 126.143 L 550.991 123.219 L 553.915 123.219 L 553.915 126.143 Z  M 547.093 126.143 L 544.17 126.143 L 544.17 123.219 L 547.093 123.219 L 547.093 126.143 Z  M 540.272 126.143 L 537.349 126.143 L 537.349 123.219 L 540.272 123.219 L 540.272 126.143 Z  M 533.451 126.143 L 530.528 126.143 L 530.528 123.219 L 533.451 123.219 L 533.451 126.143 Z  M 526.63 126.143 L 523.707 126.143 L 523.707 123.219 L 526.63 123.219 L 526.63 126.143 Z  M 519.809 126.143 L 516.886 126.143 L 516.886 123.219 L 519.809 123.219 L 519.809 126.143 Z  M 512.988 126.143 L 510.064 126.143 L 510.064 123.219 L 512.988 123.219 L 512.988 126.143 Z " fill="rgb(243,182,68)"/><path d=" M 640.175 359.537 L 637.252 359.537 L 637.252 356.614 L 640.175 356.614 L 640.175 359.537 Z  M 644.384 359.247 L 643.722 356.399 C 644.541 356.209 645.312 355.898 646.019 355.484 L 647.496 358.006 C 646.541 358.566 645.494 358.989 644.384 359.247 Z  M 650.814 355.042 L 648.474 353.29 C 648.967 352.631 649.364 351.898 649.645 351.11 L 652.399 352.091 C 652.018 353.159 651.481 354.152 650.814 355.042 Z  M 653.045 347.767 L 650.122 347.767 L 650.122 344.844 L 653.045 344.844 L 653.045 347.767 Z  M 653.045 340.946 L 650.122 340.946 L 650.122 338.022 L 653.045 338.022 L 653.045 340.946 Z  M 653.045 334.125 L 650.122 334.125 L 650.122 331.201 L 653.045 331.201 L 653.045 334.125 Z  M 653.045 327.304 L 650.122 327.304 L 650.122 324.38 L 653.045 324.38 L 653.045 327.304 Z  M 653.045 320.483 L 650.122 320.483 L 650.122 317.559 L 653.045 317.559 L 653.045 320.483 Z  M 653.045 313.661 L 650.122 313.661 L 650.122 310.738 L 653.045 310.738 L 653.045 313.661 Z  M 653.045 306.84 L 650.122 306.84 L 650.122 303.917 L 653.045 303.917 L 653.045 306.84 Z  M 653.045 300.019 L 650.122 300.019 L 650.122 297.096 L 653.045 297.096 L 653.045 300.019 Z  M 653.045 293.198 L 650.122 293.198 L 650.122 290.275 L 653.045 290.275 L 653.045 293.198 Z  M 653.045 286.377 L 650.122 286.377 L 650.122 283.454 L 653.045 283.454 L 653.045 286.377 Z  M 653.045 279.556 L 650.122 279.556 L 650.122 276.632 L 653.045 276.632 L 653.045 279.556 Z  M 653.045 272.735 L 650.122 272.735 L 650.122 269.811 L 653.045 269.811 L 653.045 272.735 Z  M 653.045 265.914 L 650.122 265.914 L 650.122 262.99 L 653.045 262.99 L 653.045 265.914 Z  M 653.045 259.092 L 650.122 259.092 L 650.122 256.169 L 653.045 256.169 L 653.045 259.092 Z  M 653.045 252.271 L 650.122 252.271 L 650.122 249.348 L 653.045 249.348 L 653.045 252.271 Z  M 653.045 245.45 L 650.122 245.45 L 650.122 242.527 L 653.045 242.527 L 653.045 245.45 Z  M 653.045 238.629 L 650.122 238.629 L 650.122 235.706 L 653.045 235.706 L 653.045 238.629 Z  M 653.045 231.808 L 650.122 231.808 L 650.122 228.885 L 653.045 228.885 L 653.045 231.808 Z  M 653.045 224.987 L 650.122 224.987 L 650.122 222.063 L 653.045 222.063 L 653.045 224.987 Z  M 653.045 218.166 L 650.122 218.166 L 650.122 215.242 L 653.045 215.242 L 653.045 218.166 Z  M 653.045 211.345 L 650.122 211.345 L 650.122 208.421 L 653.045 208.421 L 653.045 211.345 Z  M 653.045 204.523 L 650.122 204.523 L 650.122 201.6 L 653.045 201.6 L 653.045 204.523 Z  M 653.045 197.702 L 650.122 197.702 L 650.122 194.779 L 653.045 194.779 L 653.045 197.702 Z  M 653.045 190.881 L 650.122 190.881 L 650.122 187.958 L 653.045 187.958 L 653.045 190.881 Z  M 653.045 184.06 L 650.122 184.06 L 650.122 182.807 C 650.122 182.324 650.081 181.851 650.002 181.393 L 652.883 180.898 C 652.99 181.519 653.045 182.157 653.045 182.807 L 653.045 184.06 Z  M 648.809 178.33 C 648.359 177.631 647.806 177.004 647.173 176.47 L 649.056 174.234 C 649.912 174.955 650.658 175.802 651.267 176.747 L 648.809 178.33 Z  M 644.287 174.892 C 643.514 174.653 642.694 174.524 641.839 174.524 L 641.839 174.524 L 641.839 171.601 L 641.839 171.601 C 642.989 171.601 644.102 171.775 645.149 172.098 L 644.287 174.892 Z  M 637.941 174.524 L 635.018 174.524 L 635.018 171.601 L 637.941 171.601 L 637.941 174.524 Z  M 631.12 174.524 L 628.197 174.524 L 628.197 171.601 L 631.12 171.601 L 631.12 174.524 Z  M 624.299 174.524 L 621.376 174.524 L 621.376 171.601 L 624.299 171.601 L 624.299 174.524 Z " fill="rgb(243,182,68)"/><path d=" M 317.145 76.982 L 313.613 76.982 L 313.613 74.059 L 317.145 74.059 L 317.145 76.982 Z  M 310.689 76.982 L 307.157 76.982 L 307.157 74.059 L 310.689 74.059 L 310.689 76.982 Z " fill="rgb(238,78,52)"/><path d=" M 313.613 80.515 L 310.689 80.515 L 310.689 76.982 L 310.689 74.059 L 310.689 70.527 L 313.613 70.527 L 313.613 74.059 L 313.613 76.982 L 313.613 80.515 Z " fill="rgb(238,78,52)"/><path d=" M 227.618 173.021 L 224.085 173.021 L 224.085 170.097 L 227.618 170.097 L 227.618 173.021 Z  M 221.162 173.021 L 217.629 173.021 L 217.629 170.097 L 221.162 170.097 L 221.162 173.021 Z " fill="rgb(205,192,215)"/><path d=" M 224.085 176.553 L 221.162 176.553 L 221.162 173.021 L 221.162 170.097 L 221.162 166.565 L 224.085 166.565 L 224.085 170.097 L 224.085 173.021 L 224.085 176.553 Z " fill="rgb(205,192,215)"/><path d=" M 141.409 122.728 L 137.877 122.728 L 137.877 119.805 L 141.409 119.805 L 141.409 122.728 Z  M 134.953 122.728 L 131.421 122.728 L 131.421 119.805 L 134.953 119.805 L 134.953 122.728 Z " fill="rgb(205,192,215)"/><path d=" M 137.877 126.261 L 134.953 126.261 L 134.953 122.728 L 134.953 119.805 L 134.953 116.273 L 137.877 116.273 L 137.877 119.805 L 137.877 122.728 L 137.877 126.261 Z " fill="rgb(205,192,215)"/><path d=" M 529.211 98.024 L 525.678 98.024 L 525.678 95.101 L 529.211 95.101 L 529.211 98.024 Z  M 522.755 98.024 L 519.223 98.024 L 519.223 95.101 L 522.755 95.101 L 522.755 98.024 Z " fill="rgb(238,78,52)"/><path d=" M 525.678 101.556 L 522.755 101.556 L 522.755 98.024 L 522.755 95.101 L 522.755 91.568 L 525.678 91.568 L 525.678 95.101 L 525.678 98.024 L 525.678 101.556 Z " fill="rgb(238,78,52)"/><path d=" M 282.517 377.27 L 278.984 377.27 L 278.984 374.347 L 282.517 374.347 L 282.517 377.27 Z  M 276.061 377.27 L 272.529 377.27 L 272.529 374.347 L 276.061 374.347 L 276.061 377.27 Z " fill="rgb(205,192,215)"/><path d=" M 278.984 380.803 L 276.061 380.803 L 276.061 377.27 L 276.061 374.347 L 276.061 370.815 L 278.984 370.815 L 278.984 374.347 L 278.984 377.27 L 278.984 380.803 Z " fill="rgb(205,192,215)"/><path d=" M 636.439 205.961 L 632.907 205.961 L 632.907 203.038 L 636.439 203.038 L 636.439 205.961 Z  M 629.983 205.961 L 626.451 205.961 L 626.451 203.038 L 629.983 203.038 L 629.983 205.961 Z " fill="rgb(205,192,215)"/><path d=" M 632.907 209.494 L 629.983 209.494 L 629.983 205.961 L 629.983 203.038 L 629.983 199.506 L 632.907 199.506 L 632.907 203.038 L 632.907 205.961 L 632.907 209.494 Z " fill="rgb(205,192,215)"/><path d=" M 468.127 361.887 L 464.595 361.887 L 464.595 358.963 L 468.127 358.963 L 468.127 361.887 Z " fill="rgb(205,192,215)"/><path d=" M 464.595 365.419 L 463.379 365.419 L 463.042 355.431 L 464.595 355.431 L 464.595 358.963 L 464.595 361.887 L 464.595 365.419 Z " fill="rgb(205,192,215)"/><path d=" M 129.542 355.366 L 109.351 355.366 L 109.351 352.442 L 129.64 352.442 L 129.542 355.366 Z " fill="rgb(250,222,234)"/><path d=" M 157.214 372.276 L 156.384 372.276 L 156.615 369.353 L 157.214 369.353 L 157.214 372.276 Z  M 128.972 372.276 L 113.363 372.276 L 113.363 369.353 L 129.071 369.353 L 128.972 372.276 Z " fill="rgb(250,222,234)"/><path d=" M 102.205 355.366 L 93.76 355.366 L 93.76 352.442 L 102.205 352.442 L 102.205 355.366 Z " fill="rgb(250,222,234)"/><path d=" M 393.68 58.062 L 348.53 58.062 L 348.53 55.139 L 393.68 55.139 L 393.68 58.062 Z " fill="rgb(243,182,68)"/><path d=" M 410.57 58.062 L 402.45 58.062 L 402.45 55.139 L 410.57 55.139 L 410.57 58.062 Z " fill="rgb(243,182,68)"/><path d=" M 462.541 76.982 L 411.869 76.982 L 411.869 74.059 L 462.541 74.059 L 462.541 76.982 Z " fill="rgb(243,182,68)"/><path d=" M 480.132 76.982 L 470.336 76.982 L 470.336 74.059 L 480.132 74.059 L 480.132 76.982 Z " fill="rgb(243,182,68)"/><path d=" M 437.326 386.776 L 426.08 386.776 L 426.392 383.852 L 437.095 383.852 L 437.326 386.776 Z  M 400.853 386.776 L 391.731 386.776 L 391.731 383.852 L 400.966 383.852 L 400.853 386.776 Z " fill="rgb(250,222,234)"/><path d=" M 384.585 386.776 L 375.815 386.776 L 375.815 383.852 L 384.585 383.852 L 384.585 386.776 Z " fill="rgb(250,222,234)"/><path d=" M 372.902 399.968 L 325.636 399.968 L 325.636 397.045 L 372.902 397.045 L 372.902 399.968 Z " fill="rgb(250,222,234)"/><path d=" M 318.49 399.968 L 309.72 399.968 L 309.72 397.045 L 318.49 397.045 L 318.49 399.968 Z " fill="rgb(250,222,234)"/><path d=" M 607.27 379.63 L 604.81 379.63 L 604.81 376.706 L 607.039 376.706 L 607.27 379.63 Z " fill="rgb(250,222,234)"/><path d=" M 660.678 379.63 L 634.366 379.63 L 634.268 376.706 L 660.678 376.706 L 660.678 379.63 Z " fill="rgb(243,182,68)"/><path d=" M 173.026 413.95 L 172.408 421.607 L 189.574 421.607 L 190.315 413.95 L 173.026 413.95 Z " fill="rgb(248,175,132)"/><path d=" M 189.574 421.607 C 189.574 421.607 203.534 427.462 207.454 429.652 C 211.373 431.842 211.258 437.264 211.258 437.264 L 170.564 437.264 L 172.408 421.607 L 189.574 421.607 Z " fill="rgb(243,182,68)"/><path d=" M 171.609 428.39 C 173.483 428.016 177.482 427.762 181.095 431.132 C 185.816 435.539 192.072 435.468 196.203 435.419 C 196.586 435.415 196.948 435.41 197.286 435.41 C 199.103 435.41 200.118 434.129 201.194 432.773 C 202.441 431.201 203.877 429.457 206.856 429.331 C 206.579 429.186 206.273 429.03 205.94 428.865 C 203.298 429.271 201.965 430.927 200.769 432.436 C 199.734 433.741 198.841 434.868 197.286 434.868 C 196.947 434.868 196.582 434.872 196.197 434.876 C 192.145 434.927 186.026 434.994 181.465 430.736 C 177.786 427.302 173.725 427.455 171.675 427.83 L 171.609 428.39 Z " fill="rgb(69,67,100)"/><path d=" M 195.496 424.006 L 193.859 427.476 L 192.06 426.628 L 193.697 423.158 L 195.496 424.006 Z " fill="rgb(69,67,100)"/><path d=" M 197.825 425.038 L 196.102 428.465 L 194.324 427.572 L 196.048 424.144 L 197.825 425.038 Z " fill="rgb(69,67,100)"/><path d=" M 200.249 426.085 L 198.654 429.574 L 196.844 428.746 L 198.44 425.257 L 200.249 426.085 Z " fill="rgb(69,67,100)"/><path d=" M 130.342 413.95 L 129.725 421.607 L 146.891 421.607 L 147.632 413.95 L 130.342 413.95 Z " fill="rgb(248,175,132)"/><path d=" M 130.497 281.324 C 130.497 281.324 127.953 293.383 131.271 304.004 L 127.464 417.069 L 152.844 417.069 L 160.016 326.299 L 169.559 415.741 L 192.802 415.741 L 187.582 281.103 L 130.497 281.324 Z " fill="rgb(0,0,0)"/><path d=" M 190.08 281.481 C 191.532 276.222 203.285 232.493 197.607 214.806 C 192.459 198.767 152.033 198.762 152.033 198.762 C 152.033 198.762 138.077 199.597 127.619 207.83 C 116.85 216.308 122.337 264.069 129.619 281.481 L 190.08 281.481 Z " fill="rgb(243,182,68)"/><path d=" M 152.843 183.897 L 150.699 201.998 C 150.699 201.998 154.272 207.713 162.488 208.428 C 170.705 209.142 173.444 203.546 173.444 203.546 L 171.062 190.685 L 152.843 183.897 Z " fill="rgb(248,175,132)"/><path d=" M 178.207 170.56 C 178.207 170.56 183.566 191.995 172.491 194.853 C 161.417 197.711 154.748 191.399 153.319 186.636 C 151.89 181.873 151.533 170.56 151.533 170.56 L 178.207 170.56 Z " fill="rgb(248,175,132)"/><path d=" M 153.041 178.697 C 153.041 178.697 150.898 173.219 147.881 176.474 C 144.864 179.729 147.96 187.271 153.438 184.81 L 153.041 178.697 Z " fill="rgb(248,175,132)"/><path d=" M 156.137 172.267 C 156.137 172.267 171.777 177.189 179.239 173.061 C 179.239 173.061 181.866 165.267 175.111 160.597 C 167.589 155.397 152.188 161.629 152.188 161.629 C 152.188 161.629 149.806 162.125 148.913 165.281 C 148.081 168.221 149.548 175.522 149.548 175.522 C 149.548 175.522 151.89 175.442 153.498 179.908 C 153.498 179.908 155.502 176.713 156.137 172.267 Z " fill="rgb(69,67,100)"/><path d=" M 172.497 198.431 L 171.94 195.425 L 172.497 198.431 C 172.497 198.431 172.497 198.431 172.497 198.431 Z " fill="rgb(252,214,194)"/><path d=" M 169.068 199.009 C 158.095 199.009 153.198 191.561 152.88 186.694 C 152.847 186.198 152.841 185.64 152.854 185.038 C 152.876 185.031 152.898 185.024 152.919 185.016 C 153.033 185.566 153.156 186.075 153.287 186.528 C 153.288 186.53 153.288 186.532 153.289 186.534 C 153.291 186.541 153.293 186.546 153.294 186.552 C 153.295 186.556 153.297 186.56 153.298 186.564 C 153.299 186.567 153.3 186.571 153.301 186.574 C 153.302 186.579 153.304 186.585 153.306 186.591 C 153.307 186.595 153.308 186.599 153.309 186.603 C 153.311 186.607 153.312 186.611 153.313 186.615 C 153.315 186.622 153.317 186.629 153.319 186.636 L 153.319 186.636 L 153.319 186.636 C 153.323 186.649 153.327 186.662 153.331 186.675 C 153.333 186.68 153.334 186.686 153.336 186.692 C 154.545 190.621 159.298 195.568 167.131 195.568 C 168.601 195.568 170.179 195.394 171.862 195.006 L 171.94 195.425 L 172.497 198.431 C 171.659 198.771 170.738 198.973 169.722 199 C 169.501 199.006 169.284 199.009 169.068 199.009 Z " fill="rgb(246,150,103)"/><path d=" M 167.131 195.568 C 159.298 195.568 154.545 190.621 153.336 186.692 C 154.545 190.62 159.299 195.562 167.131 195.562 C 168.6 195.562 170.178 195.388 171.861 195.001 L 171.862 195.006 C 170.179 195.394 168.601 195.568 167.131 195.568 Z  M 153.331 186.675 C 153.327 186.662 153.323 186.649 153.319 186.636 C 153.323 186.649 153.327 186.662 153.331 186.675 Z  M 153.319 186.636 C 153.317 186.629 153.315 186.622 153.313 186.615 C 153.315 186.622 153.317 186.629 153.319 186.636 Z  M 153.309 186.603 C 153.308 186.599 153.307 186.595 153.306 186.591 C 153.307 186.595 153.308 186.599 153.309 186.603 Z  M 153.301 186.574 C 153.3 186.571 153.299 186.567 153.298 186.564 C 153.299 186.567 153.3 186.57 153.301 186.574 Z  M 153.294 186.552 C 153.293 186.546 153.291 186.541 153.289 186.534 C 153.291 186.54 153.293 186.546 153.294 186.552 Z  M 153.287 186.528 C 153.156 186.075 153.033 185.566 152.919 185.016 C 152.92 185.016 152.92 185.016 152.92 185.016 C 153.034 185.565 153.156 186.075 153.287 186.528 Z " fill="rgb(246,150,103)"/><path d=" M 152.854 185.038 C 152.856 184.936 152.859 184.833 152.863 184.729 C 152.882 184.825 152.901 184.921 152.92 185.016 C 152.92 185.016 152.92 185.016 152.919 185.016 C 152.898 185.024 152.876 185.031 152.854 185.038 Z " fill="rgb(246,150,103)"/><path d=" M 128.142 207.54 C 128.142 207.54 115.935 218.003 111.4 242.592 C 106.866 267.181 146.49 276.829 146.49 276.829 L 128.142 207.54 Z " fill="rgb(243,182,68)"/><path d=" M 155.664 281.481 L 129.627 281.481 C 128.073 277.768 126.945 273.789 125.695 267.988 C 135.452 274.141 146.49 276.829 146.49 276.829 L 146.288 276.069 C 148.779 276.753 151.348 277.335 153.905 277.734 L 155.664 281.481 Z " fill="rgb(243,182,68)"/><path d=" M 146.49 276.829 C 146.49 276.829 135.452 274.141 125.695 267.988 C 125.694 267.981 125.692 267.974 125.69 267.967 C 125.69 267.967 125.69 267.967 125.691 267.967 C 125.713 267.967 135.226 273.029 146.288 276.069 L 146.49 276.829 Z " fill="rgb(220,146,190)"/><path d=" M 148.197 254.683 L 154.707 227.594 L 191.634 236.958 L 181.216 281.713 L 154.267 276.468 L 159.783 258.833 L 148.197 254.683 Z " fill="rgb(255,250,214)"/><path d=" M 159.331 259.988 C 159.331 259.988 164.352 258.952 168.896 259.829 C 168.896 259.829 167.381 261.901 164.91 262.38 C 164.91 262.38 171.675 262.858 178.593 262.592 C 178.593 262.592 173.957 265.715 169.932 264.983 C 167.009 264.452 175.963 264.664 177.929 264.133 C 177.929 264.133 175.192 267.374 169.294 267.427 C 163.396 267.481 174.661 266.737 176.68 266.312 C 176.68 266.312 174.475 269.314 168.391 269.978 C 162.772 270.591 173.12 268.809 174.874 268.543 C 174.874 268.543 170.888 273.432 165.096 273.963 C 159.304 274.495 155.352 273.393 155.352 273.393 L 159.331 259.988 Z " fill="rgb(248,175,132)"/><path d=" M 146.891 421.607 C 146.891 421.607 160.85 427.462 164.77 429.652 C 168.69 431.842 168.574 437.264 168.574 437.264 L 127.88 437.264 L 129.725 421.607 L 146.891 421.607 Z " fill="rgb(243,182,68)"/><path d=" M 128.925 428.39 C 130.799 428.016 134.799 427.762 138.411 431.132 C 143.132 435.539 149.389 435.468 153.519 435.419 C 153.903 435.415 154.264 435.41 154.603 435.41 C 156.419 435.41 157.435 434.129 158.51 432.773 C 159.757 431.201 161.194 429.457 164.172 429.331 C 163.895 429.186 163.59 429.03 163.257 428.865 C 160.614 429.271 159.281 430.927 158.085 432.436 C 157.051 433.741 156.157 434.868 154.603 434.868 C 154.263 434.868 153.898 434.872 153.513 434.876 C 149.461 434.927 143.343 434.994 138.781 430.736 C 135.102 427.302 131.041 427.455 128.991 427.83 L 128.925 428.39 Z " fill="rgb(69,67,100)"/><path d=" M 273.139 235.186 C 273.139 235.186 277.39 233.241 280.103 232.97 C 282.816 232.699 283.81 235.05 283.81 235.05 C 283.81 235.05 289.734 233.196 296.697 233.377 C 296.697 233.377 291.045 237.13 286.162 237.763 C 286.162 237.763 288.965 236.587 289.96 237.944 C 290.954 239.3 288.965 240.747 288.965 240.747 C 288.965 240.747 289.96 242.917 288.332 243.731 C 288.332 243.731 288.784 245.495 287.473 246.037 C 286.162 246.58 277.887 248.66 273.275 246.806 L 273.139 235.186 Z " fill="rgb(248,175,132)"/><path d=" M 152.812 424.006 L 151.175 427.476 L 149.376 426.628 L 151.013 423.158 L 152.812 424.006 Z " fill="rgb(69,67,100)"/><path d=" M 155.142 425.038 L 153.418 428.465 L 151.641 427.572 L 153.364 424.144 L 155.142 425.038 Z " fill="rgb(69,67,100)"/><path d=" M 157.566 426.085 L 155.97 429.574 L 154.16 428.746 L 155.756 425.257 L 157.566 426.085 Z " fill="rgb(69,67,100)"/><path d=" M 183.386 203.489 C 183.386 203.489 190.982 204.846 206.446 215.969 C 221.91 227.092 231.037 229.666 240.087 230.619 C 250.396 231.704 273.998 233.332 273.998 233.332 L 273.727 248.253 C 273.727 248.253 253.651 252.051 236.017 250.152 C 218.383 248.253 192.881 241.742 192.881 241.742 L 183.386 203.489 Z " fill="rgb(243,182,68)"/><path d=" M 132.307 214.702 C 132.307 214.702 132.367 214.872 132.473 215.2 C 133.214 217.495 136.189 227.437 136.189 238.845 C 136.189 241.697 136.003 244.64 135.551 247.579 L 135.522 247.765 L 146.9 254.097 L 147.164 253.623 L 135.951 247.383 L 135.819 247.62 L 136.087 247.661 C 136.544 244.691 136.731 241.721 136.731 238.845 C 136.73 225.701 132.824 214.539 132.819 214.523 L 132.307 214.702 Z " fill="rgb(69,67,100)"/><path d=" M 136.633 214.612 C 136.633 214.612 136.633 214.66 136.628 214.758 C 136.599 215.449 136.343 218.456 134.333 221.236 L 134.773 221.554 C 137.177 218.219 137.173 214.641 137.175 214.612 L 136.633 214.612 Z " fill="rgb(69,67,100)"/><path d=" M 144.454 201.846 C 146.499 205.414 151.842 212.143 162.896 212.442 C 163.154 212.449 163.409 212.452 163.659 212.452 C 168.598 212.453 172.089 211.105 174.526 209.322 C 176.965 207.541 178.347 205.336 179.11 203.64 L 178.615 203.418 C 177.879 205.051 176.55 207.172 174.206 208.884 C 171.862 210.596 168.5 211.909 163.659 211.91 C 163.414 211.91 163.164 211.906 162.911 211.899 C 152.093 211.602 146.931 205.056 144.924 201.575 L 144.454 201.846 Z " fill="rgb(69,67,100)"/><path d=" M 198.127 225.839 C 198.127 225.84 198.149 226.31 198.172 227.147 C 198.194 227.984 198.217 229.186 198.217 230.641 C 198.217 233.552 198.126 237.479 197.766 241.537 L 198.306 241.585 C 198.669 237.504 198.759 233.563 198.759 230.641 C 198.759 227.719 198.669 225.816 198.669 225.813 L 198.127 225.839 Z " fill="rgb(69,67,100)"/><path d=" M 126.147 268.024 C 126.163 268.029 140.674 276.042 152.152 277.551 L 152.222 277.013 C 146.571 276.273 140.107 273.908 135.068 271.725 C 132.547 270.634 130.381 269.589 128.846 268.818 C 128.079 268.432 127.469 268.114 127.051 267.893 C 126.633 267.672 126.41 267.549 126.409 267.549 L 126.147 268.024 Z " fill="rgb(243,182,68)"/><path d=" M 136.455 411.166 L 135.912 411.166 L 142.159 305.262 C 140.397 300.023 139.67 294.608 139.67 289.075 C 139.67 286.931 139.779 284.769 139.98 282.592 L 140.52 282.642 C 140.321 284.804 140.213 286.949 140.213 289.075 C 140.213 290.483 140.26 291.883 140.36 293.273 C 140.288 293.279 140.215 293.284 140.142 293.288 L 140.177 293.83 C 140.252 293.825 140.328 293.82 140.402 293.814 C 140.718 297.669 141.445 301.45 142.69 305.139 L 142.706 305.189 L 136.455 411.166 Z " fill="rgb(127,125,157)"/><path d=" M 152.458 411.708 L 128.991 411.708 L 128.991 411.166 L 135.912 411.166 L 135.91 411.195 L 136.451 411.227 L 136.455 411.166 L 152.458 411.166 L 152.458 411.708 Z " fill="rgb(127,125,157)"/><path d=" M 136.451 411.227 L 135.91 411.195 L 135.912 411.166 L 136.455 411.166 L 136.451 411.227 Z " fill="rgb(180,177,200)"/><path d=" M 191.208 411.708 L 170.816 411.708 L 170.816 411.166 L 191.208 411.166 L 191.208 411.708 Z " fill="rgb(127,125,157)"/><path d=" M 160.505 324.427 L 159.966 324.365 L 160.895 316.33 L 161.161 318.751 L 160.505 324.427 Z  M 161.441 316.332 L 161.409 316.047 L 160.921 316.101 L 163.095 297.3 L 163.534 297.601 L 163.621 297.474 L 161.441 316.332 Z  M 163.097 297.279 L 163.719 291.9 L 164.258 291.963 L 163.754 296.321 L 163.097 297.279 Z " fill="rgb(127,125,157)"/><path d=" M 163.621 297.474 L 163.754 296.321 L 167.427 290.964 L 167.874 291.271 L 163.621 297.474 Z  M 163.095 297.3 L 163.086 297.294 L 163.097 297.279 L 163.095 297.3 Z " fill="rgb(127,125,157)"/><path d=" M 163.534 297.601 L 163.095 297.3 L 163.097 297.279 L 163.754 296.321 L 163.621 297.474 L 163.534 297.601 Z " fill="rgb(180,177,200)"/><path d=" M 140.402 293.814 C 140.387 293.634 140.373 293.454 140.36 293.273 C 145.498 292.889 148.465 290.721 150.206 288.514 C 151.969 286.276 152.451 283.981 152.536 283.49 L 152.551 283.395 L 152.551 283.395 L 153.089 283.467 C 153.084 283.493 152.762 285.884 150.984 288.381 C 149.231 290.847 146.034 293.4 140.402 293.814 Z " fill="rgb(127,125,157)"/><path d=" M 140.177 293.83 L 140.142 293.288 C 140.215 293.284 140.288 293.279 140.36 293.273 C 140.373 293.454 140.387 293.634 140.402 293.814 C 140.328 293.82 140.252 293.825 140.177 293.83 Z " fill="rgb(180,177,200)"/><path d=" M 186.514 292.2 C 182.613 291.661 180.599 289.288 179.609 287.04 C 178.614 284.789 178.594 282.653 178.593 282.449 L 178.593 282.433 L 179.136 282.439 L 179.136 282.449 C 179.135 282.61 179.158 284.685 180.106 286.82 C 181.06 288.956 182.889 291.141 186.589 291.663 L 186.514 292.2 Z " fill="rgb(127,125,157)"/><path d=" M 170.999 408.166 L 161.161 318.751 L 161.441 316.332 L 171.538 408.107 L 170.999 408.166 Z  M 160.895 316.33 L 160.87 316.106 L 160.921 316.101 L 160.895 316.33 Z " fill="rgb(127,125,157)"/><path d=" M 161.161 318.751 L 160.895 316.33 L 160.921 316.101 L 161.409 316.047 L 161.441 316.332 L 161.161 318.751 Z " fill="rgb(180,177,200)"/><path d=" M 168.083 179.896 C 168.083 180.598 167.514 181.167 166.813 181.167 C 166.111 181.167 165.542 180.598 165.542 179.896 C 165.542 179.194 166.111 178.625 166.813 178.625 C 167.514 178.625 168.083 179.194 168.083 179.896 Z " fill="rgb(69,67,100)"/><path d=" M 175.583 179.896 C 175.583 180.598 175.014 181.167 174.313 181.167 C 173.611 181.167 173.042 180.598 173.042 179.896 C 173.042 179.194 173.611 178.625 174.313 178.625 C 175.014 178.625 175.583 179.194 175.583 179.896 Z " fill="rgb(69,67,100)"/><path d=" M 170.775 181.548 L 171.467 185.395 L 169.375 185.395 L 169.375 185.938 L 172.116 185.938 L 171.309 181.452 L 170.775 181.548 Z " fill="rgb(130,100,158)"/><path d=" M 166.162 189.101 C 166.186 189.115 167.891 190.255 170.294 190.257 C 171.494 190.258 172.869 189.967 174.267 189.106 L 173.983 188.644 C 172.673 189.449 171.408 189.714 170.294 189.715 C 169.18 189.715 168.217 189.447 167.535 189.178 C 167.193 189.044 166.922 188.91 166.738 188.81 C 166.646 188.76 166.576 188.719 166.529 188.691 L 166.463 188.649 L 166.162 189.101 Z " fill="rgb(130,100,158)"/><path d=" M 419.521 413.932 L 420.139 421.595 L 402.961 421.595 L 402.219 413.932 L 419.521 413.932 Z " fill="rgb(248,175,132)"/><path d=" M 402.961 421.595 C 402.961 421.595 388.99 427.454 385.068 429.646 C 381.145 431.838 381.261 437.264 381.261 437.264 L 421.985 437.264 L 420.139 421.595 L 402.961 421.595 Z " fill="rgb(67,173,220)"/><path d=" M 420.939 428.384 C 419.064 428.009 415.062 427.754 411.446 431.128 C 406.722 435.537 400.461 435.466 396.327 435.418 C 395.943 435.413 395.581 435.409 395.243 435.409 C 393.425 435.409 392.409 434.127 391.332 432.769 C 390.084 431.196 388.647 429.451 385.666 429.325 C 385.943 429.18 386.249 429.024 386.582 428.859 C 389.227 429.265 390.56 430.922 391.757 432.432 C 392.793 433.739 393.687 434.866 395.243 434.866 C 395.583 434.866 395.948 434.87 396.333 434.875 C 400.388 434.926 406.511 434.992 411.076 430.731 C 414.758 427.295 418.822 427.447 420.873 427.823 L 420.939 428.384 Z " fill="rgb(69,67,100)"/><path d=" M 397.034 423.996 L 398.673 427.469 L 400.473 426.62 L 398.835 423.147 L 397.034 423.996 Z " fill="rgb(69,67,100)"/><path d=" M 394.703 425.029 L 396.428 428.459 L 398.207 427.564 L 396.482 424.134 L 394.703 425.029 Z " fill="rgb(69,67,100)"/><path d=" M 392.278 426.076 L 393.875 429.568 L 395.685 428.74 L 394.088 425.248 L 392.278 426.076 Z " fill="rgb(69,67,100)"/><path d=" M 462.237 413.932 L 462.855 421.595 L 445.676 421.595 L 444.935 413.932 L 462.237 413.932 Z " fill="rgb(248,175,132)"/><path d=" M 462.082 281.208 C 462.082 281.208 464.628 293.276 461.307 303.904 L 465.118 417.054 L 439.718 417.054 L 432.541 326.216 L 422.991 415.725 L 399.731 415.725 L 404.954 280.987 L 462.082 281.208 Z " fill="rgb(67,173,220)"/><path d=" M 445.676 421.595 C 445.676 421.595 431.706 427.454 427.783 429.646 C 423.861 431.838 423.976 437.264 423.976 437.264 L 464.701 437.264 L 462.855 421.595 L 445.676 421.595 Z " fill="rgb(67,173,220)"/><path d=" M 463.655 428.384 C 461.779 428.009 457.777 427.754 454.162 431.128 C 449.438 435.537 443.176 435.466 439.043 435.418 C 438.659 435.413 438.297 435.409 437.958 435.409 C 436.14 435.409 435.124 434.127 434.048 432.769 C 432.8 431.196 431.362 429.451 428.381 429.325 C 428.659 429.18 428.965 429.024 429.298 428.859 C 431.942 429.265 433.276 430.922 434.473 432.432 C 435.509 433.739 436.403 434.866 437.958 434.866 C 438.298 434.866 438.663 434.87 439.049 434.875 C 443.104 434.926 449.227 434.992 453.792 430.731 C 457.473 427.295 461.538 427.447 463.589 427.823 L 463.655 428.384 Z " fill="rgb(69,67,100)"/><path d=" M 439.75 423.996 L 441.388 427.469 L 443.189 426.62 L 441.551 423.147 L 439.75 423.996 Z " fill="rgb(69,67,100)"/><path d=" M 437.419 425.029 L 439.144 428.459 L 440.923 427.564 L 439.198 424.134 L 437.419 425.029 Z " fill="rgb(69,67,100)"/><path d=" M 434.993 426.076 L 436.59 429.568 L 438.401 428.74 L 436.804 425.248 L 434.993 426.076 Z " fill="rgb(69,67,100)"/><path d=" M 456.663 411.146 L 456.12 411.146 L 449.863 305.09 L 449.88 305.04 C 451.126 301.348 451.853 297.565 452.169 293.708 C 452.244 293.713 452.319 293.718 452.395 293.723 L 452.429 293.181 C 452.356 293.176 452.283 293.171 452.211 293.166 C 452.311 291.774 452.359 290.374 452.359 288.964 C 452.359 286.837 452.25 284.69 452.051 282.526 L 452.051 282.526 L 452.592 282.477 C 452.793 284.655 452.902 286.818 452.902 288.964 C 452.902 294.502 452.174 299.92 450.412 305.164 L 456.663 411.146 Z " fill="rgb(127,125,157)"/><path d=" M 463.589 411.689 L 440.104 411.689 L 440.104 411.146 L 456.12 411.146 L 456.123 411.207 L 456.665 411.175 L 456.663 411.146 L 463.589 411.146 L 463.589 411.689 Z " fill="rgb(127,125,157)"/><path d=" M 456.123 411.207 L 456.12 411.146 L 456.663 411.146 L 456.665 411.175 L 456.123 411.207 Z " fill="rgb(180,177,200)"/><path d=" M 421.733 411.689 L 401.325 411.689 L 401.325 411.146 L 421.733 411.146 L 421.733 411.689 Z " fill="rgb(127,125,157)"/><path d=" M 432.052 324.343 L 431.395 318.663 L 431.662 316.241 L 432.591 324.281 L 432.052 324.343 Z  M 431.115 316.242 L 428.934 297.371 L 429.02 297.497 L 429.46 297.196 L 431.635 316.01 L 431.146 315.957 L 431.115 316.242 Z  M 429.457 297.174 L 428.8 296.215 L 428.296 291.854 L 428.835 291.792 L 429.457 297.174 Z " fill="rgb(127,125,157)"/><path d=" M 428.934 297.371 L 424.677 291.162 L 425.124 290.855 L 428.8 296.215 L 428.934 297.371 Z  M 429.46 297.196 L 429.457 297.174 L 429.468 297.19 L 429.46 297.196 Z " fill="rgb(127,125,157)"/><path d=" M 429.02 297.497 L 428.934 297.371 L 428.8 296.215 L 429.457 297.174 L 429.46 297.196 L 429.02 297.497 Z " fill="rgb(180,177,200)"/><path d=" M 452.169 293.708 C 446.533 293.293 443.334 290.738 441.58 288.27 C 439.8 285.771 439.478 283.378 439.473 283.352 L 440.011 283.28 L 440.027 283.375 C 440.038 283.441 440.057 283.538 440.084 283.664 C 440.139 283.914 440.231 284.276 440.376 284.712 C 440.666 285.586 441.171 286.761 442.022 287.955 C 443.707 290.311 446.723 292.755 452.211 293.166 C 452.198 293.347 452.184 293.527 452.169 293.708 Z " fill="rgb(127,125,157)"/><path d=" M 452.395 293.723 C 452.319 293.718 452.244 293.713 452.169 293.708 C 452.184 293.527 452.198 293.347 452.211 293.166 C 452.283 293.171 452.356 293.176 452.429 293.181 L 452.395 293.723 Z " fill="rgb(180,177,200)"/><path d=" M 406.024 292.092 L 405.948 291.554 C 409.651 291.032 411.481 288.845 412.436 286.708 C 413.385 284.571 413.408 282.495 413.407 282.333 L 413.407 282.324 L 413.407 282.321 L 413.95 282.321 L 413.95 282.333 C 413.949 282.538 413.929 284.676 412.933 286.927 C 411.943 289.177 409.927 291.553 406.024 292.092 Z " fill="rgb(127,125,157)"/><path d=" M 421.55 408.144 L 421.011 408.085 L 431.115 316.242 L 431.395 318.663 L 421.55 408.144 Z  M 431.662 316.241 L 431.635 316.01 L 431.686 316.016 L 431.662 316.241 Z " fill="rgb(127,125,157)"/><path d=" M 431.395 318.663 L 431.115 316.242 L 431.146 315.957 L 431.635 316.01 L 431.662 316.241 L 431.395 318.663 Z " fill="rgb(180,177,200)"/><path d=" M 442.241 206.644 C 442.241 206.644 464.411 212.89 469.51 215.185 C 469.51 215.185 469.595 240.426 462.456 281.389 L 402.795 281.389 C 398.384 259.587 396.469 236.958 397.356 213.4 C 397.356 213.4 405.281 210.956 420.866 208.099 L 442.241 206.644 Z " fill="rgb(238,78,52)"/><path d=" M 416.478 174.392 L 416.478 174.473 L 416.42 174.401 L 416.478 174.392 Z  M 448.423 175.267 C 448.423 173.729 447.346 172.447 445.906 172.119 C 446.098 171.705 446.213 171.249 446.213 170.763 C 446.213 168.976 444.765 167.528 442.978 167.528 C 442.583 167.528 442.208 167.609 441.858 167.739 C 441.973 167.407 442.049 167.055 442.049 166.684 C 442.049 164.897 440.601 163.449 438.814 163.449 C 438.113 163.449 437.469 163.677 436.939 164.056 C 436.408 162.995 435.322 162.259 434.055 162.259 C 433.155 162.259 432.342 162.627 431.756 163.22 C 431.419 161.794 430.145 160.729 428.616 160.729 C 427.444 160.729 426.427 161.358 425.86 162.291 C 425.267 161.552 424.367 161.069 423.346 161.069 C 421.791 161.069 420.494 162.168 420.184 163.631 C 419.711 163.361 419.171 163.194 418.587 163.194 C 416.801 163.194 415.352 164.642 415.352 166.429 C 415.352 167.001 415.513 167.53 415.774 167.997 C 414.195 168.21 412.973 169.55 412.973 171.188 C 412.973 172.077 413.332 172.882 413.913 173.467 C 412.227 173.578 410.89 174.966 410.89 176.68 C 410.89 178.292 412.073 179.618 413.615 179.863 C 413.401 180.296 413.27 180.776 413.27 181.291 C 413.27 183.077 414.718 184.525 416.505 184.525 C 417.521 184.525 418.417 184.047 419.01 183.314 L 442.464 183.314 C 442.977 183.656 443.591 183.856 444.253 183.856 C 446.04 183.856 447.488 182.408 447.488 180.622 C 447.488 179.681 447.08 178.842 446.439 178.25 C 447.604 177.761 448.423 176.61 448.423 175.267 Z " fill="rgb(69,67,100)"/><path d=" M 440.226 189.633 L 442.241 206.644 C 442.241 206.644 438.883 212.016 431.161 212.687 C 423.44 213.359 420.866 208.099 420.866 208.099 L 423.104 196.012 L 440.226 189.633 Z " fill="rgb(248,175,132)"/><path d=" M 416.389 177.099 C 416.389 177.099 411.353 197.243 421.761 199.929 C 432.169 202.615 438.436 196.684 439.779 192.207 C 441.122 187.731 441.458 177.099 441.458 177.099 L 416.389 177.099 Z " fill="rgb(248,175,132)"/><path d=" M 440.04 184.746 C 440.04 184.746 442.054 179.598 444.889 182.657 C 447.724 185.716 444.815 192.804 439.667 190.491 L 440.04 184.746 Z " fill="rgb(248,175,132)"/><path d=" M 424.978 203.835 C 424.775 203.835 424.571 203.832 424.364 203.827 C 423.409 203.802 422.543 203.612 421.756 203.292 L 422.352 200.073 C 423.934 200.438 425.417 200.601 426.798 200.602 C 434.195 200.602 438.669 195.908 439.779 192.207 L 439.779 192.207 L 439.779 192.207 C 439.914 191.756 440.039 191.244 440.155 190.685 C 440.175 190.692 440.195 190.699 440.216 190.706 C 440.228 191.271 440.222 191.796 440.192 192.262 C 439.892 196.836 435.291 203.835 424.978 203.835 Z " fill="rgb(246,150,103)"/><path d=" M 426.798 200.602 C 425.417 200.601 423.934 200.438 422.352 200.073 L 422.353 200.069 C 423.934 200.433 425.417 200.596 426.798 200.596 C 434.194 200.596 438.669 195.907 439.779 192.207 C 438.669 195.908 434.195 200.602 426.798 200.602 Z  M 439.779 192.207 C 439.914 191.757 440.038 191.243 440.153 190.685 C 440.154 190.685 440.154 190.685 440.155 190.685 C 440.039 191.244 439.914 191.756 439.779 192.207 Z " fill="rgb(246,150,103)"/><path d=" M 440.216 190.706 C 440.195 190.699 440.175 190.692 440.155 190.685 C 440.154 190.685 440.154 190.685 440.153 190.685 C 440.172 190.596 440.19 190.506 440.208 190.415 C 440.211 190.513 440.214 190.61 440.216 190.706 Z " fill="rgb(246,150,103)"/><path d=" M 415.714 177.96 C 415.714 177.96 418.008 179.618 423.235 179.618 C 428.461 179.618 433.178 177.96 435.409 178.789 C 437.64 179.618 436.429 181.721 437.066 182.932 C 437.704 184.143 438.277 185.737 437.385 188.35 L 439.425 188.35 L 441.21 182.677 L 443.249 178.47 L 441.911 174.518 L 430.82 172.734 L 422.087 172.861 L 415.777 174.518 L 415.714 177.96 Z " fill="rgb(69,67,100)"/><path d=" M 357.664 197.16 C 357.664 197.16 355.227 190.505 352.415 189.193 C 352.415 189.193 351.993 190.88 352.275 192.239 C 352.275 192.239 344.729 178.789 342.48 178.789 C 342.48 178.789 342.48 183.147 345.807 188.584 C 345.807 188.584 343.98 186.709 342.714 186.99 C 341.449 187.271 342.995 189.849 342.995 189.849 C 342.995 189.849 341.355 188.162 340.324 188.912 C 339.293 189.661 340.652 191.489 340.652 191.489 C 340.652 191.489 339.856 190.693 338.825 191.583 C 337.794 192.473 341.496 201.378 343.839 204.986 L 357.664 197.16 Z " fill="rgb(248,175,132)"/><path d=" M 397.356 213.4 C 397.356 213.4 384.608 217.309 373.9 223.598 L 358.432 195.723 L 341.435 205.411 C 341.435 205.411 350.104 236.006 360.812 248.075 C 371.52 260.143 401.096 243.995 401.096 243.995" fill="rgb(238,78,52)"/><path d=" M 469.51 215.185 C 469.51 215.185 479.709 223.343 483.533 243.485 L 463.646 265.922 L 469.51 215.185 Z " fill="rgb(238,78,52)"/><path d=" M 481.756 235.389 L 466.169 256.956 C 465.223 264.289 464.012 272.465 462.456 281.389 L 462.118 281.389 C 462.162 281.615 462.242 282.053 462.339 282.668 L 479.689 296.001 L 510.151 257.681 L 481.756 235.389 Z " fill="rgb(255,250,214)"/><path d=" M 497.762 272.357 C 497.762 272.357 494.919 270.231 493.704 271.667 C 492.506 273.083 494.698 274.923 494.698 274.923 C 494.698 274.923 492.49 273.709 491.662 274.868 C 490.834 276.027 492.324 278.015 492.324 278.015 C 492.324 278.015 490.779 277.187 489.895 278.07 C 489.012 278.953 490.116 280.444 490.116 280.444 C 490.116 280.444 488.957 279.947 488.35 280.72 C 487.742 281.492 488.239 282.762 489.564 284.032 C 490.889 285.302 494.035 285.081 497.127 281.492 C 500.218 277.904 498.893 270.894 498.893 270.894 L 497.762 272.357 Z " fill="rgb(248,175,132)"/><path d=" M 397.892 243.841 C 397.892 243.84 397.826 243.418 397.719 242.627 C 397.396 240.252 396.7 234.57 396.303 227.148 L 395.773 227.177 C 396.304 237.097 397.367 243.916 397.368 243.923 L 397.892 243.841 Z " fill="rgb(69,67,100)"/><path d=" M 393.483 228.828 C 393.494 228.847 394.366 231.965 396.302 233.729 L 396.658 233.335 C 395.773 232.536 395.097 231.368 394.653 230.402 C 394.431 229.919 394.265 229.487 394.155 229.177 C 394.1 229.021 394.06 228.897 394.033 228.811 L 393.993 228.682 L 393.483 228.828 Z " fill="rgb(69,67,100)"/><path d=" M 468.752 227.681 C 468.752 227.684 468.711 228.591 468.616 230.159 C 468.33 234.862 467.559 245.481 465.969 255.117 L 466.493 255.203 C 468.619 242.311 469.282 227.711 469.282 227.706 L 468.752 227.681 Z " fill="rgb(69,67,100)"/><path d=" M 471.406 226.954 C 471.406 226.954 471.404 227 471.396 227.094 C 471.34 227.762 470.934 230.539 468.684 231.843 L 468.952 232.301 C 470.387 231.461 471.13 230.121 471.516 229.008 C 471.901 227.892 471.935 226.99 471.936 226.974 L 471.406 226.954 Z " fill="rgb(69,67,100)"/><path d=" M 418.229 211.233 C 418.245 211.277 421.127 216.551 429.608 216.547 C 438.099 216.539 444.104 210.515 444.127 210.499 L 443.751 210.123 C 443.751 210.124 443.664 210.211 443.488 210.371 C 442.254 211.497 436.808 216.022 429.608 216.017 C 425.484 216.016 422.76 214.744 421.059 213.482 C 420.209 212.85 419.615 212.219 419.235 211.749 C 419.045 211.514 418.909 211.319 418.821 211.184 L 418.724 211.03 L 418.696 210.981 L 418.229 211.233 Z " fill="rgb(69,67,100)"/><path d=" M 424.646 184.417 C 424.646 185.119 425.215 185.688 425.917 185.688 C 426.619 185.688 427.188 185.119 427.188 184.417 C 427.188 183.715 426.619 183.146 425.917 183.146 C 425.215 183.146 424.646 183.715 424.646 184.417 Z " fill="rgb(69,67,100)"/><path d=" M 417.146 184.417 C 417.146 185.119 417.715 185.688 418.417 185.688 C 419.119 185.688 419.688 185.119 419.688 184.417 C 419.688 183.715 419.119 183.146 418.417 183.146 C 417.715 183.146 417.146 183.715 417.146 184.417 Z " fill="rgb(69,67,100)"/><path d=" M 421.42 185.973 L 420.613 190.459 L 423.354 190.459 L 423.354 189.916 L 421.262 189.916 L 421.954 186.069 L 421.42 185.973 Z " fill="rgb(130,100,158)"/><path d=" M 426.266 193.17 L 426.2 193.212 C 425.874 193.411 424.383 194.237 422.435 194.236 C 421.321 194.235 420.056 193.97 418.746 193.165 L 418.462 193.627 C 419.86 194.488 421.235 194.779 422.435 194.778 C 424.838 194.775 426.543 193.636 426.567 193.622 L 426.266 193.17 Z " fill="rgb(130,100,158)"/><path d=" M 590.031 413.932 L 590.648 421.595 L 573.47 421.595 L 572.728 413.932 L 590.031 413.932 Z " fill="rgb(248,175,132)"/><path d=" M 573.47 421.595 C 573.47 421.595 559.499 427.454 555.577 429.646 C 551.654 431.838 551.77 437.264 551.77 437.264 L 592.494 437.264 L 590.648 421.595 L 573.47 421.595 Z " fill="rgb(243,182,68)"/><path d=" M 591.448 428.384 C 589.573 428.009 585.571 427.754 581.955 431.128 C 577.231 435.537 570.97 435.466 566.836 435.418 C 566.452 435.413 566.09 435.409 565.752 435.409 C 563.934 435.409 562.918 434.127 561.841 432.769 C 560.593 431.196 559.156 429.451 556.175 429.325 C 556.452 429.18 556.758 429.024 557.091 428.859 C 559.735 429.265 561.069 430.922 562.266 432.432 C 563.302 433.739 564.196 434.866 565.752 434.866 C 566.092 434.866 566.457 434.87 566.842 434.875 C 570.897 434.926 577.02 434.992 581.585 430.731 C 585.267 427.295 589.331 427.447 591.382 427.823 L 591.448 428.384 Z " fill="rgb(69,67,100)"/><path d=" M 567.543 423.996 L 569.182 427.469 L 570.982 426.62 L 569.344 423.147 L 567.543 423.996 Z " fill="rgb(69,67,100)"/><path d=" M 565.212 425.029 L 566.937 428.459 L 568.716 427.564 L 566.991 424.134 L 565.212 425.029 Z " fill="rgb(69,67,100)"/><path d=" M 562.787 426.076 L 564.384 429.568 L 566.194 428.74 L 564.597 425.248 L 562.787 426.076 Z " fill="rgb(69,67,100)"/><path d=" M 632.746 413.932 L 633.364 421.595 L 616.185 421.595 L 615.444 413.932 L 632.746 413.932 Z " fill="rgb(248,175,132)"/><path d=" M 632.591 281.208 C 632.591 281.208 635.137 293.276 631.816 303.904 L 635.627 417.054 L 610.227 417.054 L 603.05 326.216 L 593.5 415.725 L 570.24 415.725 L 575.463 280.987 L 632.591 281.208 Z " fill="rgb(67,173,220)"/><path d=" M 616.185 421.595 C 616.185 421.595 602.215 427.454 598.292 429.646 C 594.37 431.838 594.485 437.264 594.485 437.264 L 635.21 437.264 L 633.364 421.595 L 616.185 421.595 Z " fill="rgb(243,182,68)"/><path d=" M 634.164 428.384 C 632.289 428.009 628.286 427.754 624.671 431.128 C 619.947 435.537 613.685 435.466 609.552 435.418 C 609.168 435.413 608.806 435.409 608.468 435.409 C 606.649 435.409 605.633 434.127 604.557 432.769 C 603.309 431.196 601.872 429.451 598.891 429.325 C 599.168 429.18 599.474 429.024 599.807 428.859 C 602.451 429.265 603.785 430.922 604.982 432.432 C 606.018 433.739 606.912 434.866 608.468 434.866 C 608.807 434.866 609.172 434.87 609.558 434.875 C 613.613 434.926 619.736 434.992 624.301 430.731 C 627.982 427.295 632.047 427.447 634.098 427.823 L 634.164 428.384 Z " fill="rgb(69,67,100)"/><path d=" M 610.259 423.996 L 611.897 427.469 L 613.698 426.62 L 612.06 423.147 L 610.259 423.996 Z " fill="rgb(69,67,100)"/><path d=" M 607.928 425.029 L 609.653 428.459 L 611.432 427.564 L 609.707 424.134 L 607.928 425.029 Z " fill="rgb(69,67,100)"/><path d=" M 605.502 426.076 L 607.099 429.568 L 608.91 428.74 L 607.313 425.248 L 605.502 426.076 Z " fill="rgb(69,67,100)"/><path d=" M 627.172 411.146 L 626.629 411.146 L 620.372 305.09 L 620.389 305.04 C 621.635 301.349 622.362 297.565 622.678 293.708 C 622.753 293.713 622.828 293.718 622.904 293.723 L 622.938 293.181 C 622.865 293.176 622.792 293.171 622.72 293.166 C 622.82 291.774 622.868 290.374 622.868 288.964 C 622.868 286.837 622.76 284.69 622.56 282.526 L 623.101 282.477 C 623.302 284.655 623.411 286.819 623.411 288.964 C 623.411 294.502 622.683 299.92 620.921 305.164 L 627.172 411.146 Z " fill="rgb(181,156,199)"/><path d=" M 634.098 411.689 L 610.613 411.689 L 610.613 411.146 L 626.629 411.146 L 626.632 411.207 L 627.174 411.175 L 627.172 411.146 L 634.098 411.146 L 634.098 411.689 Z " fill="rgb(181,156,199)"/><path d=" M 626.632 411.207 L 626.629 411.146 L 627.172 411.146 L 627.174 411.175 L 626.632 411.207 Z " fill="rgb(214,200,226)"/><path d=" M 592.242 411.689 L 571.834 411.689 L 571.834 411.146 L 592.242 411.146 L 592.242 411.689 Z " fill="rgb(181,156,199)"/><path d=" M 602.561 324.343 L 601.904 318.663 L 602.171 316.241 L 603.1 324.281 L 602.561 324.343 Z  M 601.624 316.242 L 599.443 297.371 L 599.529 297.497 L 599.969 297.196 L 602.144 316.01 L 601.656 315.957 L 601.624 316.242 Z  M 599.966 297.174 L 599.309 296.216 L 598.805 291.854 L 599.344 291.792 L 599.966 297.174 Z " fill="rgb(181,156,199)"/><path d=" M 599.443 297.371 L 595.185 291.162 L 595.633 290.855 L 599.309 296.216 L 599.443 297.371 Z  M 599.969 297.196 L 599.966 297.174 L 599.977 297.19 L 599.969 297.196 Z " fill="rgb(181,156,199)"/><path d=" M 599.529 297.497 L 599.443 297.371 L 599.309 296.216 L 599.966 297.174 L 599.969 297.196 L 599.529 297.497 Z " fill="rgb(214,200,226)"/><path d=" M 622.678 293.708 C 617.042 293.293 613.843 290.737 612.089 288.27 C 610.309 285.771 609.987 283.378 609.982 283.352 L 610.52 283.28 L 610.536 283.375 C 610.547 283.441 610.566 283.538 610.593 283.664 C 610.648 283.914 610.74 284.276 610.885 284.712 C 611.175 285.586 611.68 286.761 612.531 287.955 C 614.216 290.311 617.232 292.755 622.72 293.166 C 622.707 293.347 622.693 293.527 622.678 293.708 Z " fill="rgb(181,156,199)"/><path d=" M 622.904 293.723 C 622.828 293.718 622.753 293.713 622.678 293.708 C 622.693 293.527 622.707 293.347 622.72 293.166 C 622.792 293.171 622.865 293.176 622.938 293.181 L 622.904 293.723 Z " fill="rgb(214,200,226)"/><path d=" M 576.533 292.092 L 576.458 291.554 C 580.16 291.032 581.99 288.846 582.945 286.708 C 583.894 284.571 583.917 282.495 583.916 282.333 L 583.916 282.324 L 583.916 282.321 L 584.459 282.321 L 584.459 282.333 C 584.458 282.538 584.438 284.676 583.442 286.927 C 582.452 289.177 580.436 291.553 576.533 292.092 Z " fill="rgb(181,156,199)"/><path d=" M 592.059 408.144 L 591.52 408.085 L 601.624 316.242 L 601.904 318.663 L 592.059 408.144 Z  M 602.171 316.241 L 602.144 316.01 L 602.195 316.016 L 602.171 316.241 Z " fill="rgb(181,156,199)"/><path d=" M 601.904 318.663 L 601.624 316.242 L 601.656 315.957 L 602.144 316.01 L 602.171 316.241 L 601.904 318.663 Z " fill="rgb(214,200,226)"/><path d=" M 538.731 283.828 C 538.731 283.828 550.94 288.712 570.744 280.302 L 550.94 271.078 L 538.731 283.828 Z " fill="rgb(130,100,158)"/><path d=" M 571.106 212.93 C 571.106 212.93 554.466 226.675 545.785 255.614 L 582.681 255.252 L 571.106 212.93 Z " fill="rgb(67,173,220)"/><path d=" M 611.981 165.996 C 611.981 165.996 604.385 159.033 594.889 161.293 C 585.394 163.554 584.49 167.895 584.851 173.321 C 585.213 178.747 586.208 181.098 581.596 186.705 C 576.984 192.311 573.909 197.285 577.888 202.982 C 581.867 208.68 576.712 213.473 576.712 213.473 L 622.381 213.473 C 622.381 213.473 616.231 203.887 618.402 196.652 C 620.572 189.418 626.721 182.997 622.471 179.38 C 618.221 175.762 622.471 165.724 611.981 165.996 Z " fill="rgb(69,67,100)"/><path d=" M 611.136 189.633 L 613.151 206.644 C 613.151 206.644 609.794 212.016 602.072 212.687 C 594.35 213.359 591.776 208.099 591.776 208.099 L 594.014 196.012 L 611.136 189.633 Z " fill="rgb(248,175,132)"/><path d=" M 587.299 177.099 C 587.299 177.099 582.263 197.243 592.671 199.929 C 603.079 202.615 609.346 196.684 610.689 192.207 C 612.032 187.731 612.367 177.099 612.367 177.099 L 587.299 177.099 Z " fill="rgb(248,175,132)"/><path d=" M 610.95 184.746 C 610.95 184.746 612.964 179.598 615.799 182.657 C 618.635 185.716 615.725 192.804 610.577 190.491 L 610.95 184.746 Z " fill="rgb(248,175,132)"/><path d=" M 592.666 203.292 L 592.666 203.292 L 592.997 201.504 L 592.666 203.292 Z " fill="rgb(71,60,78)"/><path d=" M 595.888 203.835 C 595.685 203.835 595.481 203.832 595.274 203.827 C 594.319 203.802 593.453 203.612 592.666 203.292 L 592.997 201.504 L 593.262 200.073 C 594.844 200.438 596.327 200.601 597.708 200.602 C 605.105 200.602 609.579 195.908 610.689 192.207 L 610.689 192.207 L 610.689 192.207 C 610.691 192.2 610.693 192.192 610.696 192.184 C 610.696 192.184 610.696 192.183 610.696 192.182 C 610.829 191.738 610.951 191.233 611.064 190.685 C 611.085 190.692 611.106 190.699 611.126 190.706 C 611.138 191.271 611.132 191.796 611.102 192.262 C 610.802 196.836 606.201 203.835 595.888 203.835 Z " fill="rgb(246,150,103)"/><path d=" M 597.708 200.602 C 596.327 200.601 594.844 200.438 593.262 200.073 L 593.263 200.069 C 594.844 200.433 596.328 200.596 597.708 200.596 C 605.104 200.596 609.579 195.907 610.689 192.207 C 609.579 195.908 605.105 200.602 597.708 200.602 Z  M 610.689 192.207 C 610.691 192.2 610.693 192.192 610.696 192.184 C 610.693 192.192 610.691 192.2 610.689 192.207 Z  M 610.696 192.182 C 610.828 191.738 610.95 191.232 611.064 190.685 C 611.064 190.685 611.064 190.685 611.064 190.685 C 610.951 191.233 610.829 191.738 610.696 192.182 Z " fill="rgb(246,150,103)"/><path d=" M 611.126 190.706 C 611.106 190.699 611.085 190.692 611.064 190.685 C 611.064 190.685 611.064 190.685 611.064 190.685 C 611.082 190.596 611.1 190.506 611.118 190.415 C 611.121 190.513 611.124 190.61 611.126 190.706 Z " fill="rgb(246,150,103)"/><path d=" M 586.208 179.199 L 599.23 177.933 C 599.23 177.933 602.214 191.588 615.96 190.141 L 621.748 184.534 L 613.79 175.039 C 613.79 175.039 606.646 169.613 605.651 169.613 C 604.656 169.613 588.378 170.246 588.378 170.246 L 586.931 175.22 L 586.208 179.199 Z " fill="rgb(69,67,100)"/><path d=" M 578.476 292.781 L 624.054 292.781 L 621.748 225.635 L 606.148 219.938 L 586.751 225.229 L 578.476 292.781 Z " fill="rgb(243,182,68)"/><path d=" M 591.776 208.099 L 591.776 227.67 C 591.776 227.67 599.321 230.835 614.513 227.67 L 613.151 206.644 L 591.776 208.099 Z " fill="rgb(248,175,132)"/><path d=" M 591.776 208.099 C 591.776 208.099 584.128 210.036 571.106 212.93 C 571.106 212.93 568.574 248.017 563.871 295.404 L 597.874 295.404 L 597.874 211.483 L 591.776 208.099 Z " fill="rgb(67,173,220)"/><path d=" M 613.151 206.644 L 633.142 213.834 L 640.919 295.042 L 608.183 295.042 L 608.183 210.759 C 608.183 210.759 610.884 209.401 613.151 206.644 Z " fill="rgb(67,173,220)"/><path d=" M 588.65 275.69 L 532.22 275.69 C 529.224 275.69 526.794 273.26 526.794 270.264 L 526.794 235.176 C 526.794 232.179 529.224 229.75 532.22 229.75 L 588.65 229.75 C 591.646 229.75 594.076 232.179 594.076 235.176 L 594.076 270.264 C 594.076 273.26 591.646 275.69 588.65 275.69 Z " fill="rgb(254,254,254)"/><path d=" M 585.937 275.69 L 529.507 275.69 C 526.511 275.69 524.081 273.26 524.081 270.264 L 524.081 235.176 C 524.081 232.179 526.511 229.75 529.507 229.75 L 585.937 229.75 C 588.933 229.75 591.363 232.179 591.363 235.176 L 591.363 270.264 C 591.363 273.26 588.933 275.69 585.937 275.69 Z " fill="rgb(255,250,214)"/><path d=" M 606.439 280.987 L 526.73 280.987 C 525.267 280.987 524.081 279.801 524.081 278.338 C 524.081 276.875 525.267 275.69 526.73 275.69 L 606.439 275.69 C 607.901 275.69 609.087 276.875 609.087 278.338 C 609.087 279.801 607.901 280.987 606.439 280.987 Z " fill="rgb(254,254,254)"/><path d=" M 601.562 280.987 L 526.73 280.987 C 525.267 280.987 524.081 279.801 524.081 278.338 C 524.081 276.875 525.267 275.69 526.73 275.69 L 601.562 275.69 C 603.025 275.69 604.211 276.875 604.211 278.338 C 604.211 279.801 603.025 280.987 601.562 280.987 Z " fill="rgb(255,250,214)"/><path d=" M 555.21 252.925 C 555.107 255.075 553.336 256.786 551.156 256.786 C 548.909 256.786 547.089 254.967 547.089 252.72 C 547.089 250.473 548.909 248.654 551.156 248.654 C 553.336 248.654 555.107 250.364 555.21 252.515 C 555.107 251.491 554.24 250.684 553.186 250.684 C 552.065 250.684 551.156 251.599 551.156 252.72 C 551.156 253.84 552.065 254.756 553.186 254.756 C 554.24 254.756 555.107 253.949 555.21 252.925 Z " fill="rgb(254,254,254)"/><path d=" M 536.222 280.946 L 538.641 276.775 C 538.641 276.775 539.274 275.69 540.54 276.051 C 541.806 276.413 541.263 278.131 541.263 278.131 L 539.726 282.02 L 542.349 278.131 C 542.349 278.131 543.174 276.775 544.157 277.08 C 545.141 277.385 544.462 278.776 544.462 278.776 L 542.733 282.811 L 545.073 278.809 C 545.073 278.809 545.751 277.622 546.734 277.928 C 547.718 278.233 547.243 279.42 547.243 279.42 L 545.853 283.048 L 547.684 279.691 C 547.684 279.691 548.193 278.436 549.074 278.674 C 549.956 278.911 549.617 280.098 549.617 280.098 L 548.634 283.625 C 548.634 283.625 545.717 284.981 541.648 285.083 C 537.578 285.185 533.102 280.946 533.102 280.946 L 536.222 280.946 Z " fill="rgb(248,175,132)"/><path d=" M 606.51 263.526 C 603.164 263.526 595.296 269.857 595.296 269.857 C 595.296 269.857 596.201 270.49 598.371 269.811 C 600.541 269.133 604.339 267.189 604.339 267.189 L 598.1 270.716 C 598.1 270.716 599.094 272.027 601.039 271.168 C 602.983 270.309 605.606 269.088 605.606 269.088 L 601.039 272.253 C 601.039 272.253 601.401 272.886 603.435 272.479 C 605.47 272.072 607.459 271.394 607.459 271.394 C 607.459 271.394 608.138 275.102 615.643 276.549 C 623.149 277.996 626.134 276.639 626.134 276.639 L 626.134 268.41 C 626.134 268.41 609.856 263.526 606.51 263.526 Z " fill="rgb(248,175,132)"/><path d=" M 633.142 213.834 C 633.142 213.834 646.435 231.197 652.675 242.32 C 658.915 253.443 650.505 274.876 638.297 284.1 L 629.615 285.456 L 633.142 213.834 Z " fill="rgb(67,173,220)"/><path d=" M 634.853 256.49 L 632.14 230.808 L 631.612 230.863 L 634.325 256.546" fill="rgb(69,67,100)"/><path d=" M 632.528 234.56 C 632.546 234.537 634.006 232.871 634.22 230.269 L 633.691 230.226 C 633.593 231.435 633.2 232.436 632.831 233.133 C 632.647 233.481 632.469 233.754 632.338 233.937 C 632.272 234.029 632.219 234.099 632.182 234.145 L 632.128 234.21 L 632.528 234.56 Z " fill="rgb(69,67,100)"/><path d=" M 570.073 224.927 L 569.667 228.454 L 570.194 228.515 L 570.601 224.988" fill="rgb(69,67,100)"/><path d=" M 597.02 212.692 L 592.157 219.943 L 588.537 209.946 L 588.038 210.126 L 592.015 221.109 L 597.461 212.987 L 597.02 212.692 Z " fill="rgb(69,67,100)"/><path d=" M 608.741 212.007 L 611.073 220.266 L 617.812 209.636 L 617.364 209.351 L 611.261 218.978 L 609.252 211.863 L 608.741 212.007 Z " fill="rgb(69,67,100)"/><path d=" M 630.565 294.415 L 609.675 294.415 L 609.675 294.946 L 630.565 294.946" fill="rgb(69,67,100)"/><path d=" M 576.577 295.895 L 594.211 295.895 L 594.211 295.364 L 576.577 295.364" fill="rgb(69,67,100)"/><path d=" M 613.744 235.668 L 627.038 235.668 L 627.038 235.137 L 613.744 235.137" fill="rgb(69,67,100)"/><path d=" M 595.396 184.167 C 595.396 184.869 595.965 185.438 596.667 185.438 C 597.369 185.438 597.938 184.869 597.938 184.167 C 597.938 183.465 597.369 182.896 596.667 182.896 C 595.965 182.896 595.396 183.465 595.396 184.167 Z " fill="rgb(69,67,100)"/><path d=" M 587.896 184.167 C 587.896 184.869 588.465 185.438 589.167 185.438 C 589.869 185.438 590.438 184.869 590.438 184.167 C 590.438 183.465 589.869 182.896 589.167 182.896 C 588.465 182.896 587.896 183.465 587.896 184.167 Z " fill="rgb(69,67,100)"/><path d=" M 592.17 185.723 L 591.363 190.209 L 594.104 190.209 L 594.104 189.666 L 592.012 189.666 L 592.704 185.819 L 592.17 185.723 Z " fill="rgb(130,100,158)"/><path d=" M 597.016 192.92 L 596.95 192.962 C 596.624 193.161 595.133 193.987 593.185 193.986 C 592.071 193.985 590.806 193.72 589.496 192.915 L 589.212 193.377 C 590.61 194.238 591.985 194.529 593.185 194.528 C 595.588 194.525 597.293 193.386 597.317 193.372 L 597.016 192.92 Z " fill="rgb(130,100,158)"/><path d=" M 687.808 440.354 L 81.192 440.354 L 81.192 437.43 L 687.808 437.43 L 687.808 440.354 Z " fill="rgb(205,192,215)"/></g></g></g></svg>