<?xml version="1.0" encoding="UTF-8" standalone="no"?><!-- Generator: Gravit.io --><svg xmlns="http://www.w3.org/2000/svg" xmlns:xlink="http://www.w3.org/1999/xlink" style="isolation:isolate" viewBox="0 0 500 500" width="500pt" height="500pt"><defs><clipPath id="_clipPath_vGTOmIfWTr34hOTMGcvTwEjPMvyepjuu"><rect x="0" y="0" width="500" height="500"/></clipPath></defs><g clip-path="url(#_clipPath_vGTOmIfWTr34hOTMGcvTwEjPMvyepjuu)"><g><clipPath id="_clipPath_ed9EjC8bjUnT6SmCrDxjxmQSp8MJfuLh"><path d=" M 0 0 L 0 500 L 500 500 L 500 0 L 0 0 Z " fill="rgb(255,255,255)"/></clipPath><g clip-path="url(#_clipPath_ed9EjC8bjUnT6SmCrDxjxmQSp8MJfuLh)"><path d=" M 500 500 L 0 500 L 0 0 L 500 0 L 500 500 Z " fill="none"/><path d=" M 353.143 405.999 L 361.349 434.732 C 361.349 434.732 367.308 442.166 370.044 449.157 L 323.544 449.157 L 331.557 437.284 L 325.291 405.999 L 353.143 405.999 Z " fill="rgb(159,187,187)"/><path d=" M 331.557 437.284 L 323.544 449.157 L 370.044 449.157 C 367.308 442.166 361.349 434.732 361.349 434.732 C 338.75 428.437 331.557 437.284 331.557 437.284 Z " fill="rgb(56,66,65)"/><path d=" M 323.544 449.157 C 323.544 449.157 330.527 436.758 348.193 438.955 C 365.86 441.152 370.044 449.157 370.044 449.157 L 323.544 449.157 Z " fill="rgb(159,187,187)"/><line x1="333.878" y1="420.577" x2="335.762" y2="434.473" vector-effect="non-scaling-stroke" stroke-width="1" stroke="rgb(248,248,249)" stroke-linejoin="bevel" stroke-linecap="round" stroke-miterlimit="10"/><line x1="343.128" y1="420.577" x2="345.117" y2="432.506" vector-effect="non-scaling-stroke" stroke-width="1" stroke="rgb(248,248,249)" stroke-linejoin="bevel" stroke-linecap="round" stroke-miterlimit="10"/><line x1="352.378" y1="420.577" x2="354.247" y2="433.144" vector-effect="non-scaling-stroke" stroke-width="1" stroke="rgb(248,248,249)" stroke-linejoin="bevel" stroke-linecap="round" stroke-miterlimit="10"/><path d=" M 253.711 401.577 L 255.711 433.09 C 255.711 433.09 237.377 441.244 234.377 448.911 L 284.258 448.911 L 284.258 401.577 L 253.711 401.577 Z " fill="rgb(159,187,187)"/><path d=" M 284.258 437.854 C 278.878 442.208 272.753 440.119 268.711 439.075 C 266.029 438.381 260.091 434.756 255.592 433.144 C 254.097 433.821 237.244 441.585 234.377 448.911 L 284.258 448.911 L 284.258 437.854 Z " fill="rgb(56,66,65)"/><path d=" M 252.38 445.888 C 251.913 442.638 247.34 440.112 244.829 438.955 C 240.286 441.83 235.743 445.42 234.377 448.911 L 284.258 448.911 L 284.258 445.888 L 252.38 445.888 Z " fill="rgb(159,187,187)"/><line x1="259.318" y1="420.577" x2="259.318" y2="435.077" vector-effect="non-scaling-stroke" stroke-width="1" stroke="rgb(248,248,249)" stroke-linejoin="bevel" stroke-linecap="round" stroke-miterlimit="10"/><line x1="269.128" y1="420.577" x2="269.128" y2="439.184" vector-effect="non-scaling-stroke" stroke-width="1" stroke="rgb(248,248,249)" stroke-linejoin="bevel" stroke-linecap="round" stroke-miterlimit="10"/><line x1="278.794" y1="420.577" x2="277.794" y2="440.45" vector-effect="non-scaling-stroke" stroke-width="1" stroke="rgb(248,248,249)" stroke-linejoin="bevel" stroke-linecap="round" stroke-miterlimit="10"/><path d=" M 252.878 243.244 C 252.878 243.244 242.99 332.577 246.017 360.577 C 249.044 388.577 250.117 420.577 250.117 420.577 L 291.378 420.577 C 291.378 420.577 294.378 386.244 289.352 359.781 L 291.382 318.911 L 321.378 420.577 L 361.711 420.577 C 361.711 420.577 365.877 385.577 348.378 355.577 C 340.856 342.685 343.711 286.744 323.044 243.244 L 252.878 243.244 Z " fill="rgb(87,104,168)"/><path d=" M 259.318 350.577 C 259.318 340.269 253.735 331.911 246.847 331.911 C 246.478 331.911 246.113 331.947 245.752 331.994 C 245.309 343.657 245.293 353.876 246.017 360.577 C 246.326 363.437 246.614 366.337 246.883 369.242 C 253.754 369.212 259.318 360.869 259.318 350.577 Z " fill="rgb(73,85,125)"/><path d=" M 291.382 318.911 C 291.382 318.911 268.36 298.805 276.86 243.244" fill="none" vector-effect="non-scaling-stroke" stroke-width="1" stroke="rgb(73,85,125)" stroke-linejoin="bevel" stroke-linecap="round" stroke-miterlimit="10"/><path d=" M 330.342 349.255 C 332.201 359.021 328.906 367.852 322.983 368.979 C 317.06 370.106 310.752 363.103 308.893 353.337 C 307.035 343.572 310.33 334.741 316.253 333.614 C 322.176 332.487 328.484 339.49 330.342 349.255 Z " fill="rgb(73,85,125)"/><path d=" M 269.11 243.244 C 269.11 243.244 260.651 284.152 277.005 288.353" fill="none" vector-effect="non-scaling-stroke" stroke-width="1" stroke="rgb(73,85,125)" stroke-linejoin="bevel" stroke-linecap="round" stroke-miterlimit="10"/><path d=" M 309.86 243.244 L 320.047 282.93 L 337.031 288.353" fill="none" vector-effect="non-scaling-stroke" stroke-width="1" stroke="rgb(73,85,125)" stroke-linejoin="bevel" stroke-linecap="round" stroke-miterlimit="10"/><path d=" M 354.247 420.577 C 354.247 420.577 350.027 378.722 341.36 356.055 C 332.693 333.388 329.977 286.101 329.977 286.101" fill="none" vector-effect="non-scaling-stroke" stroke-width="1" stroke="rgb(73,85,125)" stroke-linejoin="bevel" stroke-linecap="round" stroke-miterlimit="10"/><path d=" M 283.179 420.577 L 278.061 361.158 C 277.883 359.094 277.903 357.018 278.121 354.958 L 283.179 307.011" fill="none" vector-effect="non-scaling-stroke" stroke-width="1" stroke="rgb(73,85,125)" stroke-linejoin="bevel" stroke-linecap="round" stroke-miterlimit="10"/><path d=" M 256.461 88.49 C 255.109 88.362 253.942 89.162 252.719 88.978 C 254.061 86.951 255.768 84.761 256.284 82.284 C 256.709 80.249 256.693 77.945 256.314 75.901 C 256.204 75.305 255.511 73.099 254.521 73.556 C 253.7 73.933 253.699 77.293 253.713 78.057 C 253.445 76.516 253.449 74.949 252.837 73.494 C 252.499 72.692 251.968 71.4 251.123 71.015 C 249.457 70.257 250.204 74.169 250.466 75.052 C 250.272 74.335 249.023 71.111 247.998 72.99 C 247.113 74.612 248.525 77.146 248.068 78.835 C 247.688 77.713 246.538 74.041 244.842 74.245 C 243.599 74.394 244.43 76.607 244.646 77.428 C 244.902 78.404 245.36 79.816 244.553 80.64 C 244.146 81.057 243.623 81.292 243.211 81.747 C 242.73 82.277 242.363 82.818 241.964 83.409 C 240.969 84.887 240.398 86.267 240.29 88.074 C 240.289 88.089 240.289 88.104 240.289 88.119 C 237.542 89.164 218.168 97.238 210.326 119.744 C 201.877 143.994 203.377 151.01 214.127 158.502 C 218.969 161.877 228.12 169.358 236.718 176.563 C 239.542 166.389 243.469 152.187 245.685 143.938 L 233.877 137.174 C 233.877 137.174 241.187 104.14 247.234 94.954 C 248.42 94.493 249.652 94.405 250.968 93.953 C 252.806 93.322 254.009 91.414 255.898 91.057 C 256.57 90.931 259.551 91.416 259.716 90.413 C 259.92 89.185 257.243 88.565 256.461 88.49 Z " fill="rgb(229,133,130)"/><path d=" M 233.877 137.174 C 233.877 137.174 218.891 144.173 208.954 154.099 C 210.333 155.633 212.057 157.059 214.127 158.502 C 218.969 161.877 228.12 169.358 236.718 176.563 C 239.542 166.389 243.469 152.187 245.685 143.938 L 233.877 137.174 L 233.877 137.174 Z " fill="rgb(173,76,69)"/><path d=" M 242.544 90.244 C 242.544 90.244 244.228 84.378 252.719 88.978" fill="none" vector-effect="non-scaling-stroke" stroke-width="1" stroke="rgb(215,92,81)" stroke-linejoin="bevel" stroke-linecap="round" stroke-miterlimit="10"/><path d=" M 244.553 80.64 C 244.553 80.64 248.865 80.09 252.044 82.578" fill="none" vector-effect="non-scaling-stroke" stroke-width="1" stroke="rgb(215,92,81)" stroke-linejoin="bevel" stroke-linecap="round" stroke-miterlimit="10"/><path d=" M 334.628 268.994 C 334.628 268.994 332.705 263.617 330.225 256.511 L 327.095 269.943 C 332.871 266.712 334.628 268.994 334.628 268.994 Z " fill="rgb(40,148,144)"/><path d=" M 327.851 249.662 C 323.777 237.831 319.378 224.578 319.378 222.54 C 319.378 218.744 320.179 213.221 320.179 213.221 L 329.628 236.494 L 360.999 225.697 C 358.245 218.606 353.336 206.342 347.628 194.636 C 339.878 178.744 328.378 164.911 306.878 161.974 L 300.223 160.161 L 301.001 155.534 L 275.959 153.535 L 275.281 158.502 L 233.877 137.174 C 219.819 152.725 222.319 159.98 214.951 168.73 C 225.442 177.521 250.377 190.744 250.377 190.744 C 250.377 190.744 248.627 218.87 248.627 238.953 C 248.627 250.744 243.44 260.994 243.44 260.994 C 243.44 260.994 259.005 272.744 273.691 275.244 L 283.34 262.994 L 286.878 280.494 C 286.878 280.494 306.878 287.244 319.128 275.994 C 320.594 274.647 321.925 273.534 323.143 272.599 C 324.63 271.457 325.945 270.586 327.095 269.943 C 332.871 266.712 334.628 268.994 334.628 268.994 C 334.628 268.994 332.705 263.617 330.225 256.511 C 329.472 254.354 328.668 252.035 327.851 249.662 Z " fill="rgb(40,148,144)"/><path d=" M 275.959 153.535 C 275.959 153.535 281.076 158.464 287.351 159.438 C 287.351 159.438 288.874 160.241 301.001 155.534 L 275.959 153.535 Z " fill="rgb(73,85,125)"/><path d=" M 283.34 262.994 C 283.34 262.994 275.636 215.275 283.34 180.926 C 283.34 180.926 286.695 167.267 287.036 159.422" fill="none" vector-effect="non-scaling-stroke" stroke-width="1" stroke="rgb(40,132,127)" stroke-linejoin="bevel" stroke-linecap="round" stroke-miterlimit="10"/><path d=" M 250.377 190.744 C 250.377 190.744 252.126 174.217 258.628 163.744" fill="none" vector-effect="non-scaling-stroke" stroke-width="1" stroke="rgb(40,132,127)" stroke-linejoin="bevel" stroke-linecap="round" stroke-miterlimit="10"/><line x1="320.179" y1="213.221" x2="323.128" y2="187.994" vector-effect="non-scaling-stroke" stroke-width="1" stroke="rgb(40,132,127)" stroke-linejoin="bevel" stroke-linecap="round" stroke-miterlimit="10"/><line x1="224.651" y1="175.708" x2="241.774" y2="141.698" vector-effect="non-scaling-stroke" stroke-width="1" stroke="rgb(40,132,127)" stroke-linejoin="bevel" stroke-linecap="round" stroke-miterlimit="10"/><line x1="325.804" y1="227.077" x2="355.976" y2="213.221" vector-effect="non-scaling-stroke" stroke-width="1" stroke="rgb(40,132,127)" stroke-linejoin="bevel" stroke-linecap="round" stroke-miterlimit="10"/><path d=" M 313.273 195.482 L 292.023 193.948 L 292.419 188.462 L 313.669 189.996 L 313.273 195.482 Z " fill="none" vector-effect="non-scaling-stroke" stroke-width="1" stroke="rgb(40,132,127)" stroke-linejoin="bevel" stroke-linecap="round" stroke-miterlimit="10"/><path d=" M 275.281 158.502 L 279.917 165.555 L 287.003 160.056 L 292.193 167.055 L 300.223 160.161" fill="none" vector-effect="non-scaling-stroke" stroke-width="1" stroke="rgb(40,132,127)" stroke-linejoin="bevel" stroke-linecap="round" stroke-miterlimit="10"/><path d=" M 361.581 228.5 L 360.273 225.947 L 333.945 235.027 L 334.878 236.548 L 325.628 276.244 L 325.665 276.263 C 324.547 278.391 322.068 279.008 319.878 279.467 C 318.702 279.713 317.695 280.014 316.829 280.927 C 315.473 282.356 315.601 284.357 314.554 285.933 C 314.035 286.715 312.373 288.851 314.724 288.247 C 315.892 287.947 317.115 286.407 317.88 285.545 C 319.477 283.749 321.039 283.42 323.325 283.859 C 325.511 284.279 327.786 284.927 329.977 285.494 C 331.467 285.88 332.855 286.679 334.355 286.979 C 335.127 285.22 335.759 283.336 336.176 281.462 C 337.208 280.798 356.897 267.765 362.819 237.377 C 363.407 234.363 362.981 231.234 361.581 228.5 Z " fill="rgb(229,133,130)"/><path d=" M 361.581 228.5 L 360.273 225.947 L 333.945 235.027 L 334.827 236.466 L 362.55 230.997 C 362.308 230.14 361.992 229.302 361.581 228.5 Z " fill="rgb(173,76,69)"/><path d=" M 282.342 142.513 L 280.568 156.903 C 280.568 156.903 283.443 158.904 287.036 159.422 C 289.085 159.718 289.72 159.543 293.484 158.214 L 293.484 143.562 L 282.342 142.513 Z " fill="rgb(229,133,130)"/><path d=" M 282.342 142.513 L 281.57 148.78 C 283.929 153.981 293.484 154.244 293.484 154.244 L 293.484 143.562 L 282.342 142.513 Z " fill="rgb(173,76,69)"/><path d=" M 282.203 132.798 C 282.203 132.798 278.152 124.845 275.8 129.303 C 273.846 133.01 277.746 137.064 281.847 136.234 L 282.203 132.798 Z " fill="rgb(173,76,69)"/><path d=" M 293.839 133.472 C 293.839 133.472 299.431 126.516 300.821 131.361 C 301.976 135.39 297.329 138.56 293.484 136.909 L 293.839 133.472 Z " fill="rgb(173,76,69)"/><path d=" M 279.227 134.491 C 277.766 133.413 277.191 131.114 277.013 129.411 C 276.929 128.607 276.731 127.693 276.761 126.911 C 276.788 126.231 277.319 125.288 277.381 124.67 C 275.26 124.402 275.938 121.256 276.692 120.075 C 278.186 117.735 280.224 116.203 282.956 115.638 C 284.441 115.33 285.965 115.714 287.447 115.911 C 286.905 115.537 286.6 115.019 286.642 114.348 C 287.037 115.702 290.552 115.569 291.634 115.78 C 293.908 116.224 295.09 117.372 296.144 119.291 C 297.395 118.364 300.106 119.639 300.608 120.808 C 301.443 122.753 300.751 124.943 300.328 126.909 C 299.835 129.204 300.2 132.446 298.84 134.411 C 297.278 136.669 292.416 135.6 290.228 135.328 C 287.624 135.005 284.967 134.378 282.327 134.489 C 281.55 134.522 280.154 134.376 279.227 134.491 Z " fill="rgb(56,66,65)"/><path d=" M 297.988 127.762 C 298.027 126.692 297.098 125.832 296.038 125.98 C 295.109 126.11 294.143 126.318 293.428 126.455 C 292.964 126.544 292.232 127.091 291.857 127.117 C 291.107 127.168 290.075 126.391 289.335 126.265 C 289.54 126.512 289.62 126.83 289.755 127.113 C 286.938 126.456 283.924 125.749 281.061 125.104 C 280.029 124.871 279.03 125.609 278.954 126.664 C 278.801 128.794 278.67 131.774 278.694 132.145 C 279.511 144.679 279.911 146.263 287.396 147.459 C 294.88 148.655 296.888 139.987 297.281 136.188 C 297.367 135.357 297.398 134.3 297.68 132.787 C 297.742 132.46 297.775 132.127 297.78 131.795 C 297.792 130.857 297.938 129.13 297.988 127.762 Z " fill="rgb(229,133,130)"/><path d=" M 278.643 133.658 C 278.907 133.944 278.726 135.513 278.641 136.07 C 278.472 137.176 278.021 138.124 277.644 139.158 C 276.774 141.545 276.661 144.112 278.227 146.285 C 280.564 149.528 285.929 150.2 289.564 149.471 C 291.319 149.118 293.444 148.6 294.743 147.308 C 295.947 146.111 296.566 144.429 296.974 142.811 C 297.575 140.433 298.002 137.321 297.398 134.937 C 296.704 136.384 296.39 139.782 294.393 140.161 C 292.517 140.518 292.256 138.662 291.125 137.845 C 289.821 136.904 287.502 136.811 285.979 136.804 C 284.766 136.798 283.717 137.088 282.727 137.825 C 282.133 138.266 281.636 138.887 280.849 138.536 C 279.344 137.865 279.464 135.104 278.643 133.658 Z " fill="rgb(56,66,65)"/><path d=" M 285.823 132.256 C 285.823 132.786 285.393 133.217 284.862 133.217 C 284.331 133.217 283.901 132.786 283.901 132.256 C 283.901 131.725 284.331 131.294 284.862 131.294 C 285.393 131.294 285.823 131.725 285.823 132.256 Z " fill="rgb(56,66,65)"/><path d=" M 292.282 132.823 C 292.282 133.353 291.851 133.784 291.32 133.784 C 290.79 133.784 290.359 133.353 290.359 132.823 C 290.359 132.292 290.79 131.861 291.32 131.861 C 291.851 131.861 292.282 132.292 292.282 132.823 Z " fill="rgb(56,66,65)"/><path d=" M 286.836 130.869 C 287.098 131.461 286.964 132.143 286.887 132.774 C 286.735 134.039 286.376 135.293 286.086 136.535 C 285.874 137.44 285.218 138.929 285.563 139.844 C 285.709 140.231 286.136 140.53 286.542 140.576 C 287.54 140.691 288.152 139.559 288.461 138.786 L 288.825 137.934 C 289.226 136.994 289.346 135.959 289.172 134.952 L 288.461 130.869 L 286.836 130.869 Z " fill="rgb(229,133,130)"/><path d=" M 286.836 130.869 C 287.098 131.461 286.964 132.143 286.887 132.774 C 286.735 134.039 286.376 135.293 286.086 136.535 C 285.874 137.44 285.218 138.929 285.563 139.844 C 285.709 140.231 286.136 140.53 286.542 140.576 C 287.54 140.691 288.152 139.559 288.461 138.786" fill="none" vector-effect="non-scaling-stroke" stroke-width="1" stroke="rgb(173,76,69)" stroke-linejoin="bevel" stroke-linecap="round" stroke-miterlimit="10"/><path d=" M 284.97 141.463 C 285.652 142.014 286.828 142.072 287.661 141.914 C 288.562 141.742 289.105 141.112 289.808 140.654 C 289.656 142.008 289.286 143.297 287.729 143.613 C 286.828 143.795 285.583 143.62 284.913 142.954 C 285.052 142.71 285.082 141.94 284.97 141.463 Z " fill="rgb(248,248,249)"/><path d=" M 283.211 129.411 C 283.659 128.622 285.21 128.742 285.586 129.244" fill="none" vector-effect="non-scaling-stroke" stroke-width="1" stroke="rgb(56,66,65)" stroke-linejoin="bevel" stroke-linecap="round" stroke-miterlimit="10"/><path d=" M 290.169 129.786 C 290.452 129.508 291.112 129.309 291.628 129.412 C 291.959 129.479 292.762 129.766 292.753 130.119" fill="none" vector-effect="non-scaling-stroke" stroke-width="1" stroke="rgb(56,66,65)" stroke-linejoin="bevel" stroke-linecap="round" stroke-miterlimit="10"/><path d=" M 43.647 420.055 L 38.397 434.805 C 38.397 434.805 18.397 441.055 18.647 448.305 C 18.897 455.555 59.147 447.055 59.147 447.055 L 67.647 420.055 L 43.647 420.055 Z " fill="rgb(87,104,168)"/><path d=" M 48.064 438.055 C 51.84 441.638 56.608 436.792 62.374 436.805 L 67.647 420.055 L 43.647 420.055 L 38.397 434.805 C 38.397 434.805 43.146 433.388 48.064 438.055 Z " fill="rgb(248,219,133)"/><path d=" M 26.731 439.375 C 26.731 439.375 33.064 438.972 36.897 444.055" fill="none" vector-effect="non-scaling-stroke" stroke-width="1" stroke="rgb(123,151,151)" stroke-linejoin="bevel" stroke-linecap="round" stroke-miterlimit="10"/><path d=" M 30.458 437.875 C 30.458 437.875 35.379 435.014 39.564 442.388" fill="none" vector-effect="non-scaling-stroke" stroke-width="1" stroke="rgb(123,151,151)" stroke-linejoin="bevel" stroke-linecap="round" stroke-miterlimit="10"/><path d=" M 35.011 435.994 C 35.011 435.994 40.731 432.805 42.314 441.055" fill="none" vector-effect="non-scaling-stroke" stroke-width="1" stroke="rgb(123,151,151)" stroke-linejoin="bevel" stroke-linecap="round" stroke-miterlimit="10"/><path d=" M 167.829 418.981 L 169.166 434.579 C 169.166 434.579 186.926 445.699 184.845 452.649 C 182.764 459.598 145.987 441.165 145.987 441.165 L 144.614 412.892 L 167.829 418.981 Z " fill="rgb(87,104,168)"/><path d=" M 158.991 435.271 C 154.43 437.779 151.047 431.882 145.466 430.432 L 144.614 412.892 L 167.829 418.981 L 169.166 434.579 C 169.166 434.579 164.932 432.005 158.991 435.271 Z " fill="rgb(248,219,133)"/><path d=" M 179.291 441.96 C 179.291 441.96 173.268 439.963 168.27 443.908" fill="none" vector-effect="non-scaling-stroke" stroke-width="1" stroke="rgb(123,151,151)" stroke-linejoin="bevel" stroke-linecap="round" stroke-miterlimit="10"/><path d=" M 176.067 439.564 C 176.067 439.564 172.032 435.547 166.113 441.619" fill="none" vector-effect="non-scaling-stroke" stroke-width="1" stroke="rgb(123,151,151)" stroke-linejoin="bevel" stroke-linecap="round" stroke-miterlimit="10"/><path d=" M 172.139 436.589 C 172.139 436.589 167.416 432.053 163.792 439.632" fill="none" vector-effect="non-scaling-stroke" stroke-width="1" stroke="rgb(123,151,151)" stroke-linejoin="bevel" stroke-linecap="round" stroke-miterlimit="10"/><path d=" M 89.396 219.055 C 89.396 219.055 82.896 245.555 65.896 288.055 C 48.896 330.555 38.896 426.055 38.896 426.055 L 76.563 426.055 L 124.396 311.055 L 141.311 423.555 L 172.734 421.055 C 172.734 421.055 190.813 330.555 177.896 282.555 C 168.751 248.572 160.896 223.555 160.896 223.555 L 89.396 219.055 Z " fill="rgb(56,66,65)"/><path d=" M 124.396 311.055 C 124.396 311.055 135.027 273.837 133.86 236.618" fill="none" vector-effect="non-scaling-stroke" stroke-width="1" stroke="rgb(123,151,151)" stroke-linejoin="bevel" stroke-linecap="round" stroke-miterlimit="10"/><line x1="40.246" y1="414.35" x2="81.431" y2="414.35" vector-effect="non-scaling-stroke" stroke-width="1" stroke="rgb(123,151,151)" stroke-linejoin="bevel" stroke-linecap="round" stroke-miterlimit="10"/><line x1="139.307" y1="410.226" x2="174.23" y2="412.892" vector-effect="non-scaling-stroke" stroke-width="1" stroke="rgb(123,151,151)" stroke-linejoin="bevel" stroke-linecap="round" stroke-miterlimit="10"/><path d=" M 79.406 251.681 C 79.406 251.681 97.043 250.604 103.285 229.829" fill="none" vector-effect="non-scaling-stroke" stroke-width="1" stroke="rgb(123,151,151)" stroke-linejoin="bevel" stroke-linecap="round" stroke-miterlimit="10"/><path d=" M 153.005 233.648 C 153.005 233.648 155.027 250.624 169.693 253.089" fill="none" vector-effect="non-scaling-stroke" stroke-width="1" stroke="rgb(123,151,151)" stroke-linejoin="bevel" stroke-linecap="round" stroke-miterlimit="10"/><path d=" M 132.431 268.211 C 132.431 268.211 139.86 267.055 140.693 262.388 C 141.527 257.722 141.389 236.118 141.389 236.118" fill="none" vector-effect="non-scaling-stroke" stroke-width="1" stroke="rgb(123,151,151)" stroke-linejoin="bevel" stroke-linecap="round" stroke-miterlimit="10"/><path d=" M 88.459 222.612 C 88.459 222.612 107.088 233.889 126.742 236.222 C 146.396 238.555 162.825 229.829 162.825 229.829 L 151.646 156.805 C 151.646 156.805 135.456 150.535 124.298 148.305 C 113.14 146.075 96.396 146.181 96.396 146.181 C 96.396 146.181 91.673 208.405 88.459 222.612 Z " fill="rgb(248,219,133)"/><path d=" M 208.69 120.86 C 209.03 118.731 209.42 115.81 210.492 113.949 C 210.931 113.186 211.612 112.745 212.288 112.203 C 213.337 111.362 213.96 109.984 214.444 108.774 C 214.965 107.473 215.377 106.147 215.953 104.882 C 216.212 104.314 216.82 103.368 216.829 102.77 C 216.843 101.688 215.888 101.775 215.249 102.42 C 214.336 103.343 214.303 105.126 213.334 105.917 C 213.059 106.142 212.504 106.417 212.228 106.087 C 211.893 105.687 212.627 104.799 212.815 104.43 C 213.091 103.887 215.835 98.705 213.215 99.212 C 212.207 99.408 211.637 101.858 211.312 102.714 C 211.026 103.465 210.531 105.796 209.461 105.864 C 207.61 105.982 211.44 99.107 209.23 98.27 C 207.683 97.685 207.343 100.585 207.104 101.502 C 206.959 102.058 206.615 104.765 205.867 104.801 C 204.775 104.853 206.409 99.089 204.94 98.179 C 203.13 97.058 203.366 101.221 203.282 101.94 C 203.114 103.388 202.753 104.778 202.424 106.205 C 202.332 106.609 202.333 107.518 201.831 107.699 C 200.821 108.062 200.401 105.484 200.178 104.88 C 199.923 104.189 199.632 102.81 198.85 102.502 C 197.868 102.116 197.66 103.153 197.743 103.909 C 197.912 105.437 198.407 106.837 198.329 108.401 C 198.251 109.963 198.247 111.31 199.548 112.417 C 200.098 112.884 200.823 113.007 201.206 113.641 C 201.891 114.778 201.878 116.681 201.895 117.941 C 201.913 119.22 201.791 120.513 201.882 121.783 C 204.206 121.912 206.274 121.797 208.442 121.118 C 208.434 121.224 208.381 121.307 208.69 120.86 Z " fill="rgb(229,133,130)"/><path d=" M 206.397 112.274 C 206.397 112.274 205.517 109.158 201.831 107.699" fill="none" vector-effect="non-scaling-stroke" stroke-width="1" stroke="rgb(215,92,81)" stroke-linejoin="bevel" stroke-linecap="round" stroke-miterlimit="10"/><line x1="212.935" y1="107.811" x2="203.887" y2="105.169" vector-effect="non-scaling-stroke" stroke-width="1" stroke="rgb(215,92,81)" stroke-linejoin="bevel" stroke-linecap="round" stroke-miterlimit="10"/><path d=" M 143.896 229.305 L 143.896 239.305 C 143.896 239.305 149.396 243.805 157.146 243.055 C 164.896 242.305 168.161 241.516 168.161 241.516 L 166.396 229.305 L 143.896 229.305 Z " fill="rgb(73,85,125)"/><path d=" M 198.896 122.978 L 200.021 113.714 C 200.021 113.714 205.896 113.305 211.771 116.555 L 208.771 125.68 L 198.896 122.978 Z " fill="rgb(73,85,125)"/><path d=" M 130.563 150.096 C 130.563 150.096 136.563 153.471 136.563 165.221 C 136.563 176.971 134.813 228.328 145.063 232.775 C 155.313 237.221 170.563 237.471 170.063 228.221 C 169.563 218.971 162.813 210.721 162.563 202.721 C 162.313 194.721 160.845 185.812 160.845 185.812 C 160.845 185.812 190.312 185.757 204.059 184.91 C 207.009 184.729 209.736 183.243 211.409 180.806 C 213.34 177.994 215.363 173.785 214.813 168.971 C 213.942 161.351 209.847 140.078 211.777 128.437 C 212.222 125.756 210.602 123.163 208.019 122.314 L 200.941 119.989 C 197.986 119.018 194.81 120.659 193.892 123.631 L 185.063 152.221 C 185.063 152.221 174.308 152.425 165.313 150.096 C 153.563 147.055 141.311 149.763 141.311 149.763 C 141.311 149.763 146.313 147.75 146.313 144.986 C 146.313 142.221 130.563 141.471 130.563 141.471 L 130.563 150.096 Z " fill="rgb(87,104,168)"/><path d=" M 138.52 154.831 C 138.52 154.831 137.82 151.88 141.311 149.763" fill="none" vector-effect="non-scaling-stroke" stroke-width="1" stroke="rgb(73,85,125)" stroke-linejoin="bevel" stroke-linecap="round" stroke-miterlimit="10"/><path d=" M 185.063 152.221 C 185.063 152.221 193.896 153.221 196.563 161.721" fill="none" vector-effect="non-scaling-stroke" stroke-width="1" stroke="rgb(73,85,125)" stroke-linejoin="bevel" stroke-linecap="round" stroke-miterlimit="10"/><path d=" M 156.029 202.721 C 156.029 202.721 165.037 210.402 167.345 217.723" fill="none" vector-effect="non-scaling-stroke" stroke-width="3" stroke="rgb(73,85,125)" stroke-linejoin="miter" stroke-linecap="butt" stroke-miterlimit="10"/><path d=" M 136.146 128.974 C 136.146 128.974 138.396 125.93 140.146 126.93 C 141.896 127.93 140.396 133.305 137.521 133.43 L 136.146 128.974 Z " fill="rgb(173,76,69)"/><path d=" M 117.021 133.43 L 114.896 148.305 C 114.896 148.305 117.146 157.18 128.021 158.93 C 128.021 158.93 131.646 159.305 131.896 151.43 C 131.896 151.43 130.396 138.68 130.896 135.18 L 117.021 133.43 Z " fill="rgb(229,133,130)"/><path d=" M 131.774 150.346 C 131.507 147.928 130.891 141.984 130.804 138.047 L 117.127 136.822 C 117.127 147.305 127.771 150.346 131.774 150.346 Z " fill="rgb(173,76,69)"/><path d=" M 138.23 131.721 C 137.396 125.055 141.23 114.388 128.563 112.555 C 128.563 112.555 118.063 110.721 116.396 118.888 C 115.962 121.017 115.613 123.895 115.611 126.971 C 114.609 126.208 113.263 125.725 111.771 126.68 C 108.893 128.522 112.378 134.799 116.364 134.22 C 117.52 139.26 120.185 143.69 125.563 145.055 C 136.73 147.888 139.063 138.388 138.23 131.721 Z " fill="rgb(229,133,130)"/><path d=" M 128.987 127.851 C 128.987 128.471 128.485 128.974 127.865 128.974 C 127.245 128.974 126.742 128.471 126.742 127.851 C 126.742 127.231 127.245 126.728 127.865 126.728 C 128.485 126.728 128.987 127.231 128.987 127.851 Z " fill="rgb(56,66,65)"/><path d=" M 125.896 124.93 C 126.48 124.326 128.23 124.055 129.271 124.826" fill="none" vector-effect="non-scaling-stroke" stroke-width="1" stroke="rgb(56,66,65)" stroke-linejoin="bevel" stroke-linecap="round" stroke-miterlimit="10"/><path d=" M 136.675 128.274 C 136.675 128.894 136.172 129.397 135.552 129.397 C 134.932 129.397 134.429 128.894 134.429 128.274 C 134.429 127.654 134.932 127.151 135.552 127.151 C 136.172 127.151 136.675 127.654 136.675 128.274 Z " fill="rgb(56,66,65)"/><path d=" M 137.234 125.447 C 136.685 124.81 134.953 124.442 133.87 125.154" fill="none" vector-effect="non-scaling-stroke" stroke-width="1" stroke="rgb(56,66,65)" stroke-linejoin="bevel" stroke-linecap="round" stroke-miterlimit="10"/><path d=" M 132.459 127.18 C 131.765 128.254 133.138 131.064 133.518 132.197 C 133.776 132.969 134.259 134.309 133.822 135.121 C 133.217 136.247 132.277 135.106 131.896 134.43" fill="none" vector-effect="non-scaling-stroke" stroke-width="1" stroke="rgb(215,92,81)" stroke-linejoin="bevel" stroke-linecap="round" stroke-miterlimit="10"/><path d=" M 133.396 137.055 C 131.544 137.317 129.783 136.898 128.034 136.225 C 127.078 135.858 126.138 135.521 125.52 134.703 C 125.239 135.55 125.478 136.981 125.77 137.791 C 126.353 139.409 127.888 140.446 129.601 140.369 C 131.228 140.296 133.018 138.952 133.334 137.324 C 133.319 137.41 133.367 137.417 133.396 137.055 Z " fill="rgb(56,66,65)"/><path d=" M 131.438 138.184 C 131.603 137.954 131.671 137.425 131.761 137.147 C 131.764 137.137 131.768 137.124 131.772 137.114 C 130.502 137.04 129.265 136.699 128.034 136.225 C 127.078 135.858 126.138 135.521 125.52 134.703 C 125.378 135.131 125.369 135.709 125.433 136.28 C 126.826 137.254 128.426 137.98 130.108 138.285 C 130.523 138.361 131.174 138.551 131.438 138.184 Z " fill="rgb(248,248,249)"/><path d=" M 134.897 110.805 C 133.589 109.771 131.882 109.596 130.318 109.141 C 129.176 108.809 127.966 108.485 126.764 108.684 C 125.744 108.853 124.705 109.227 123.672 109.303 C 124.215 109.412 124.777 109.579 125.287 109.786 C 122.967 109.981 120.983 110.029 119.082 111.657 C 118.18 112.429 117.377 113.914 116.238 114.323 C 116.679 114.717 117.317 115.087 117.813 115.638 C 117.831 115.623 117.854 115.615 117.873 115.601 C 117.197 116.459 116.673 117.533 116.396 118.888 C 115.962 121.017 115.613 123.895 115.611 126.971 C 115.561 126.932 116.578 127.431 117.453 128.992 C 117.922 129.828 118.42 130.8 119.087 131.471 C 119.057 129.149 118.628 127.004 119.584 124.744 C 120.109 123.504 120.789 122.381 120.834 120.992 C 120.881 119.572 120.56 118.176 120.703 116.748 C 120.764 116.137 120.856 115.641 121.061 115.134 C 121.451 115.179 121.817 115.241 122.129 115.302 C 123.595 115.59 124.945 116.389 126.264 117.055 C 128.5 118.183 130.969 118.802 133.48 118.805 C 134.82 118.806 136.665 118.628 137.081 117.157 C 137.678 115.048 136.583 112.138 134.897 110.805 Z " fill="rgb(56,66,65)"/><path d=" M 61.04 77.942 C 61.404 75.818 61.977 72.927 61.563 70.819 C 61.393 69.955 60.891 69.318 60.426 68.588 C 59.705 67.453 59.559 65.948 59.491 64.646 C 59.418 63.247 59.456 61.859 59.318 60.475 C 59.256 59.854 58.985 58.762 59.17 58.194 C 59.505 57.166 60.382 57.555 60.778 58.372 C 61.344 59.54 60.8 61.238 61.463 62.3 C 61.651 62.601 62.088 63.041 62.455 62.818 C 62.902 62.547 62.493 61.469 62.434 61.06 C 62.348 60.456 61.422 54.666 63.737 55.991 C 64.629 56.502 64.378 59.005 64.41 59.921 C 64.439 60.724 64.155 63.089 65.147 63.499 C 66.86 64.207 65.452 56.465 67.814 56.386 C 69.467 56.33 68.853 59.185 68.784 60.13 C 68.742 60.703 68.195 63.376 68.891 63.651 C 69.908 64.053 70.22 58.07 71.904 57.682 C 73.98 57.205 72.413 61.069 72.26 61.777 C 71.952 63.202 71.846 64.634 71.697 66.091 C 71.654 66.503 71.36 67.364 71.777 67.696 C 72.616 68.366 73.844 66.061 74.251 65.561 C 74.716 64.99 75.435 63.778 76.275 63.739 C 77.329 63.69 77.191 64.739 76.868 65.427 C 76.216 66.819 75.296 67.985 74.865 69.49 C 74.436 70.994 74.005 72.27 72.416 72.898 C 71.744 73.163 71.019 73.046 70.452 73.523 C 69.437 74.378 68.836 76.184 68.413 77.371 C 67.984 78.575 67.682 79.838 67.186 81.012 C 64.945 80.384 63.025 79.608 61.192 78.266 C 61.164 78.369 61.188 78.465 61.04 77.942 Z " fill="rgb(229,133,130)"/><path d=" M 65.98 70.555 C 65.98 70.555 67.818 67.889 71.777 67.696" fill="none" vector-effect="non-scaling-stroke" stroke-width="1" stroke="rgb(215,92,81)" stroke-linejoin="bevel" stroke-linecap="round" stroke-miterlimit="10"/><line x1="61.23" y1="64.221" x2="70.646" y2="64.639" vector-effect="non-scaling-stroke" stroke-width="1" stroke="rgb(215,92,81)" stroke-linejoin="bevel" stroke-linecap="round" stroke-miterlimit="10"/><path d=" M 57.896 82.805 L 57.896 72.68 C 57.896 72.68 61.646 70.18 71.896 74.93 L 69.563 86.805 L 57.896 82.805 Z " fill="rgb(73,85,125)"/><path d=" M 80.23 223.555 L 76.563 231.555 C 76.563 231.555 81.396 237.388 89.73 237.888 C 102.415 238.65 109.73 240.055 109.73 240.055 L 113.23 228.555 L 80.23 223.555 Z " fill="rgb(73,85,125)"/><path d=" M 118.381 149.246 C 121.771 143.814 117.907 137.721 112.73 136.822 C 106.396 135.721 102.73 133.43 102.73 133.43 L 103.632 139.324 C 101.825 138.823 99.845 138.381 97.646 138.055 C 84.146 136.055 70.396 122.978 70.396 122.978 C 70.396 122.978 72.646 107.305 71.896 97.305 C 71.558 92.802 71.626 89.515 71.803 87.264 C 71.993 84.842 70.557 82.59 68.294 81.71 L 60.932 78.846 C 57.683 77.583 54.081 79.597 53.487 83.033 C 52.891 86.484 51.972 90.534 50.646 93.305 C 48.203 98.413 34.908 122.265 35.126 142.074 C 35.173 146.353 37.502 150.275 41.258 152.326 C 46.436 155.155 54.585 159.374 62.146 162.305 C 78.916 168.805 90.146 180.305 90.146 180.305 C 90.146 180.305 88.646 203.055 78.916 215.555 C 71.625 224.922 84.733 229.983 89.896 231.055 C 97.396 232.612 113.857 237.305 117.127 226.055 C 120.258 215.281 127.222 173.11 118.381 149.246 Z " fill="rgb(87,104,168)"/><path d=" M 103.632 139.324 C 103.632 139.324 111.396 142.721 114.063 149.055" fill="none" vector-effect="non-scaling-stroke" stroke-width="1" stroke="rgb(73,85,125)" stroke-linejoin="bevel" stroke-linecap="round" stroke-miterlimit="10"/><line x1="70.396" y1="122.978" x2="68.73" y2="138.388" vector-effect="non-scaling-stroke" stroke-width="1" stroke="rgb(73,85,125)" stroke-linejoin="bevel" stroke-linecap="round" stroke-miterlimit="10"/><path d=" M 86.935 214.888 C 86.935 214.888 92.102 202.221 98.935 197.388" fill="none" vector-effect="non-scaling-stroke" stroke-width="3" stroke="rgb(73,85,125)" stroke-linejoin="miter" stroke-linecap="butt" stroke-miterlimit="10"/><path d=" M 146.801 184.159 C 146.801 184.159 148.825 176.866 148.704 175.942 C 148.493 174.328 145.811 172.382 144.703 171.104 C 143.477 169.691 142.656 168.031 141.412 166.721 C 140.879 166.159 137.07 163.009 138.626 162.264 C 140.019 161.597 142.497 165.409 143.99 165.754 C 142.739 164.408 140.17 161.16 140.39 158.875 C 140.448 158.281 141.206 158.04 141.608 158.482 C 142.545 159.514 143.801 161.045 144.319 161.977 C 143.772 161.099 140.933 156.281 142.792 155.806 C 144.086 155.476 146.735 162.612 148.842 162.988 C 149.094 160.947 147.267 156.337 148.512 155.527 C 150.385 154.309 150.59 158.636 150.81 159.579 C 151.313 161.747 152.389 164.542 154.207 165.932 C 153.835 162.921 156.222 159.072 157.24 161.156 C 157.492 161.673 156.765 163.433 156.81 164.155 C 156.908 165.767 157.574 167.263 157.65 168.88 C 157.784 171.781 156.296 173.334 155.352 175.809 C 154.245 178.711 154.008 184.945 154.008 184.945 L 146.801 184.159 Z " fill="rgb(230,143,103)"/><path d=" M 152.418 172.321 C 151.171 170.731 153.267 167.314 153.751 165.988" fill="none" vector-effect="non-scaling-stroke" stroke-width="1" stroke="rgb(215,92,81)" stroke-linejoin="bevel" stroke-linecap="round" stroke-miterlimit="10"/><path d=" M 145.251 168.154 C 145.842 166.983 146.985 166.135 147.955 165.273 C 148.881 164.451 150.701 162.713 151.668 162.571" fill="none" vector-effect="non-scaling-stroke" stroke-width="1" stroke="rgb(215,92,81)" stroke-linejoin="bevel" stroke-linecap="round" stroke-miterlimit="10"/><path d=" M 256.543 149.052 C 256.507 148.696 256.174 148.325 256 148.01 C 255.547 147.192 255.36 146.279 255.259 145.355 C 255.14 144.269 255.147 143.203 255.302 142.122 C 255.332 141.917 255.409 140.918 255.667 140.781 C 256.377 140.404 256.575 143.674 256.587 144.079 C 256.342 143.411 256.494 142.326 256.635 141.624 C 256.79 140.855 257.107 141.016 257.262 141.667 C 257.589 143.039 257.755 144.49 258.024 145.882 C 257.869 145.351 257.873 144.73 257.919 144.167 C 257.955 143.729 257.859 142.853 258.302 142.55 C 258.88 142.155 258.957 143.312 259.031 143.685 C 259.332 145.186 259.832 146.669 260.711 147.937 C 261.173 148.605 261.817 149.157 262.065 149.954 C 262.303 150.721 262.34 151.557 262.455 152.345 C 261.922 152.228 261.312 151.894 260.761 151.719 C 259.792 151.411 258.853 151.109 257.994 150.55 C 257.588 150.286 257.23 150.009 256.928 149.634 C 256.823 149.503 256.672 149.204 256.543 149.052 Z " fill="rgb(215,92,81)"/><path d=" M 264.585 161.385 C 264.12 159.262 261.442 155.779 259.516 154.221 C 256.081 151.441 253.385 150.619 252.889 145.756 C 252.797 144.838 252.885 143.816 252.76 142.885 C 252.646 142.037 252.18 141.311 252.285 140.41 C 254.18 139.92 254.705 144.389 255.46 145.552 C 256.428 147.044 258.439 149.076 260.068 149.934 C 260.13 149.995 260.13 149.996 260.063 149.939 C 259.091 148.831 257.418 145.76 259.043 144.552 C 259.98 146.022 259.878 146.643 261.71 147.469 C 262.833 147.974 264.418 148.094 266.168 149.802 C 267.454 151.058 267.45 153.847 268.339 155.394 C 269.357 157.164 270.586 159.603 271.501 161.385 L 264.585 161.385 Z " fill="rgb(230,143,103)"/><path d=" M 136.334 410.905 L 129.001 437.905 C 129.001 437.905 119.162 440.565 110.777 443.392 C 107.741 444.415 108.473 448.898 111.676 448.898 L 140.825 448.898 C 142.124 448.898 143.278 448.066 143.689 446.833 L 155.668 410.905 L 136.334 410.905 Z " fill="rgb(230,143,103)"/><path d=" M 134.566 417.415 L 152.963 419.016 L 155.668 410.905 L 136.334 410.905 L 134.566 417.415 Z " fill="rgb(215,92,81)"/><path d=" M 122.898 439.627 C 119.408 440.642 114.916 441.996 110.777 443.392 C 107.741 444.415 108.473 448.898 111.676 448.898 L 140.825 448.898 C 142.124 448.898 143.278 448.066 143.689 446.833 L 145.363 441.813 C 130.241 446.578 124.506 441.633 122.898 439.627 Z " fill="rgb(56,66,65)"/><path d=" M 216.501 410.905 L 210.834 437.905 C 210.834 437.905 220.673 440.565 229.059 443.392 C 232.094 444.415 231.362 448.898 228.159 448.898 L 199.01 448.898 C 197.711 448.898 196.557 448.066 196.146 446.833 L 197.168 410.905 L 216.501 410.905 Z " fill="rgb(230,143,103)"/><path d=" M 196.998 416.865 L 215.341 416.427 L 216.501 410.905 L 197.168 410.905 L 196.998 416.865 Z " fill="rgb(215,92,81)"/><path d=" M 216.937 439.627 C 220.426 440.642 224.919 441.996 229.059 443.392 C 232.094 444.415 231.362 448.898 228.159 448.898 L 199.01 448.898 C 197.711 448.898 196.557 448.066 196.146 446.833 L 196.311 441.05 C 211.432 445.815 215.329 441.633 216.937 439.627 Z " fill="rgb(56,66,65)"/><path d=" M 166.512 274.488 L 241.344 274.57 C 241.344 274.57 239.411 256.311 238.447 245.517 C 237.484 234.724 237.058 226.576 237.058 226.576 L 177.685 227.397 C 177.685 227.397 182.024 250.571 166.512 274.488 Z " fill="rgb(123,151,151)"/><path d=" M 227.899 248.488 L 214.472 247.349 L 184.06 244.738 C 184.06 244.738 175.804 252.977 166.467 281.238 C 157.131 309.498 140.513 376.125 130.59 415.738 L 161.521 415.738 L 201.852 308.471 L 188.251 413.238 L 220.001 413.238 C 220.001 413.238 228.06 330.238 234.81 299.238 C 240.464 273.271 227.899 248.488 227.899 248.488 Z " fill="rgb(73,85,125)"/><path d=" M 201.852 308.471 C 201.852 308.471 219.279 280.579 217.64 251.242" fill="none" vector-effect="non-scaling-stroke" stroke-width="1" stroke="rgb(56,66,65)" stroke-linejoin="bevel" stroke-linecap="round" stroke-miterlimit="10"/><path d=" M 217.237 264.041 C 217.237 264.041 223.25 262.091 222.43 250.573" fill="none" vector-effect="non-scaling-stroke" stroke-width="1" stroke="rgb(56,66,65)" stroke-linejoin="bevel" stroke-linecap="round" stroke-miterlimit="10"/><line x1="133.301" y1="404.915" x2="165.14" y2="406.114" vector-effect="non-scaling-stroke" stroke-width="1" stroke="rgb(56,66,65)" stroke-linejoin="bevel" stroke-linecap="round" stroke-miterlimit="10"/><line x1="189.491" y1="403.681" x2="220.485" y2="402.93" vector-effect="non-scaling-stroke" stroke-width="1" stroke="rgb(56,66,65)" stroke-linejoin="bevel" stroke-linecap="round" stroke-miterlimit="10"/><path d=" M 184.06 244.738 C 184.06 244.738 215.001 256.405 227.899 248.488 C 227.899 248.488 238.252 215.085 235.56 207.988 C 232.263 199.295 228.963 188.659 218.534 187.238 C 218.534 187.238 196.31 183.238 190.81 188.738 C 185.31 194.238 181.56 203.238 186.06 219.488 C 190.56 235.738 184.06 244.738 184.06 244.738 Z " fill="rgb(215,92,81)"/><path d=" M 216.56 186.922 C 216.56 186.922 232.56 207.988 231.56 232.238 C 230.56 256.488 226.309 288.238 226.309 288.238 C 226.309 288.238 236.81 286.238 241.56 276.988 C 241.56 276.988 235.56 222.821 237.06 214.821 C 237.06 214.821 285.81 223.404 292.06 216.988 C 298.31 210.571 298.31 197.988 291.31 187.488 C 284.31 176.988 273.31 156.004 273.31 156.004 L 261.81 157.585 L 270.7 192.238 C 270.7 192.238 249.56 191.238 240.06 189.238 C 230.56 187.238 227.899 184.363 216.56 186.922 Z " fill="rgb(159,187,187)"/><path d=" M 272.251 199.429 L 270.7 192.238 C 270.7 192.238 278.001 195.488 280.501 200.488" fill="none" vector-effect="non-scaling-stroke" stroke-width="1" stroke="rgb(123,151,151)" stroke-linejoin="bevel" stroke-linecap="round" stroke-miterlimit="10"/><line x1="237.06" y1="214.821" x2="238.251" y2="202.488" vector-effect="non-scaling-stroke" stroke-width="1" stroke="rgb(123,151,151)" stroke-linejoin="bevel" stroke-linecap="round" stroke-miterlimit="10"/><path d=" M 205.39 171.169 L 202.737 188.919 C 202.737 188.919 208.097 197.979 212.501 198.238 C 214.541 198.357 216.124 193.738 217.015 190.544 L 217.64 173.398 L 205.39 171.169 Z " fill="rgb(230,143,103)"/><path d=" M 205.793 175.631 C 205.793 175.631 203.64 188.794 217.015 190.544 L 217.39 177.294 L 205.793 175.631 Z " fill="rgb(215,92,81)"/><path d=" M 218.543 154.949 C 213.452 154.099 208.276 159.28 206.358 166.785 C 206.169 166.303 205.665 164.321 203.168 165.071 C 201.372 165.61 200.834 171.988 205.601 172.674 C 205.575 179.592 208.667 185.237 213.355 186.02 C 218.893 186.945 224.544 180.739 225.977 172.159 C 227.409 163.579 224.081 155.873 218.543 154.949 Z " fill="rgb(230,143,103)"/><path d=" M 214.089 170.485 C 214.089 170.027 214.46 169.657 214.918 169.657 C 215.375 169.657 215.745 170.027 215.745 170.485 C 215.745 170.942 215.375 171.312 214.918 171.312 C 214.46 171.312 214.089 170.942 214.089 170.485 Z " fill="rgb(56,66,65)"/><path d=" M 221.214 172.57 C 221.214 172.113 221.585 171.742 222.043 171.742 C 222.5 171.742 222.87 172.113 222.87 172.57 C 222.87 173.027 222.5 173.398 222.043 173.398 C 221.585 173.398 221.214 173.027 221.214 172.57 Z " fill="rgb(56,66,65)"/><path d=" M 213.209 167.113 C 213.209 167.113 215.543 165.321 217.39 167.363" fill="none" vector-effect="non-scaling-stroke" stroke-width="1" stroke="rgb(56,66,65)" stroke-linejoin="bevel" stroke-linecap="round" stroke-miterlimit="10"/><path d=" M 221.626 168.696 C 221.626 168.696 223.918 168.029 224.543 170.485" fill="none" vector-effect="non-scaling-stroke" stroke-width="1" stroke="rgb(56,66,65)" stroke-linejoin="bevel" stroke-linecap="round" stroke-miterlimit="10"/><path d=" M 219.91 168.942 C 218.737 170.731 219.435 172.707 219.1 174.703 C 219 175.303 218.644 176.457 217.886 176.492 C 217.578 176.505 217.254 176.284 217.05 176.061 C 216.924 175.925 216.763 175.537 216.709 175.529" fill="none" vector-effect="non-scaling-stroke" stroke-width="1" stroke="rgb(215,92,81)" stroke-linejoin="bevel" stroke-linecap="round" stroke-miterlimit="10"/><path d=" M 213.207 177.686 C 213.671 178.188 214.249 178.603 214.79 178.905 C 215.724 179.427 216.601 179.734 217.67 179.789" fill="none" vector-effect="non-scaling-stroke" stroke-width="1" stroke="rgb(215,92,81)" stroke-linejoin="bevel" stroke-linecap="round" stroke-miterlimit="10"/><path d=" M 204.348 165.396 C 204.348 165.396 204.456 166.675 204.932 167.669 C 205.407 168.662 206.473 169.835 206.473 169.835 L 209.352 161.86 C 210.023 160.496 211.22 159.467 212.673 159.018 C 214.144 158.563 216.152 158.12 218.251 158.19 C 219.536 158.232 220.771 158.681 221.799 159.454 C 223.108 160.438 224.92 162.108 225.976 164.403 C 225.976 164.403 226.708 168.836 225.736 173.398 C 225.736 173.398 227.432 172.759 227.723 170.485 C 228.015 168.21 227.987 163.294 227.307 161.044 C 226.765 159.252 225.807 154.752 217.765 153.752 C 215.324 153.449 213.227 153.837 211.589 154.412 C 209.305 155.214 207.531 157.047 206.669 159.309 L 204.348 165.396 Z " fill="rgb(56,66,65)"/><path d=" M 203.156 186.111 C 203.156 186.111 191.152 185.35 184.152 190.544 C 177.152 195.738 153.438 210.629 153.438 210.629 L 156.56 179.238 L 145.173 179.238 C 145.173 179.238 123.81 213.238 125.81 245.738 C 125.81 245.738 130.81 250.488 137.81 245.738 C 144.81 240.988 177.529 223.988 177.529 223.988 C 177.529 223.988 178.249 236.738 177.529 242.738 C 176.81 248.738 166.512 274.488 166.512 274.488 C 166.512 274.488 176.56 289.488 196.56 292.738 C 196.56 292.738 198.419 248.523 204.348 234.071 C 211.527 216.571 203.156 186.111 203.156 186.111 Z " fill="rgb(159,187,187)"/><path d=" M 202.737 214.778 L 202.318 219.208 C 202.318 219.208 197.46 219.126 195.39 220.939 C 194.561 221.666 193.751 222.213 193.078 222.608 C 192.125 223.167 190.931 223.085 190.078 222.382 L 190.078 222.382 C 188.308 220.925 186.343 219.723 184.239 218.813 L 182.586 218.097 L 183.02 213.493 L 202.737 214.778 Z " fill="none" vector-effect="non-scaling-stroke" stroke-width="1" stroke="rgb(123,151,151)" stroke-linejoin="bevel" stroke-linecap="round" stroke-miterlimit="10"/><path d=" M 190.606 218.256 C 190.658 217.706 191.146 217.303 191.695 217.354 C 192.245 217.407 192.649 217.894 192.597 218.444 C 192.545 218.994 192.057 219.398 191.507 219.346 C 190.958 219.294 190.554 218.806 190.606 218.256 Z " fill="rgb(123,151,151)"/><path d=" M 182.912 218.239 L 182.307 228.862 C 182.179 231.104 183.498 233.179 185.584 234.013 L 189.445 235.56 C 190.789 236.098 192.282 236.129 193.646 235.648 L 197.15 234.412 C 199.035 233.746 200.377 232.064 200.605 230.077 L 201.853 219.213" fill="none" vector-effect="non-scaling-stroke" stroke-width="1" stroke="rgb(123,151,151)" stroke-linejoin="bevel" stroke-linecap="round" stroke-miterlimit="10"/><path d=" M 153.438 210.629 C 153.438 210.629 153.501 215.988 149.251 223.738" fill="none" vector-effect="non-scaling-stroke" stroke-width="1" stroke="rgb(123,151,151)" stroke-linejoin="bevel" stroke-linecap="round" stroke-miterlimit="10"/><path d=" M 202.273 170.129 C 201.807 170.226 201.618 172.888 201.19 173.644 C 199.41 176.791 196.463 179.286 193.948 181.846 C 189.744 186.125 184.636 190.416 182.81 196.332 C 179.86 205.894 185.136 213.846 192.32 219.701 C 195.057 221.931 199.338 224.721 199.463 228.727 C 200.909 226.015 203.064 223.439 204.282 220.456 C 205.639 217.134 205.577 213.623 205.835 210.122 C 206.406 210.713 206.986 211.585 207.535 212.227 C 207.832 209.34 208.539 206.508 208.2 203.55 C 207.863 200.609 206.927 197.984 205.685 195.338 C 204.741 193.326 203.876 191.052 203.407 188.863 C 202.992 186.924 203.318 184.699 203.655 182.775 C 204.256 179.35 204.873 175.877 205.416 172.506 C 204.348 172.222 202.939 171.738 202.273 170.129 Z " fill="rgb(56,66,65)"/><path d=" M 359.083 418.461 L 356.136 449.008 L 385.266 450.813 C 387.265 450.936 388.185 448.372 386.564 447.198 L 372.874 437.268 L 378.11 416.419 L 359.083 418.461 Z " fill="rgb(173,76,69)"/><path d=" M 378.11 416.419 L 359.083 418.461 L 358.599 423.47 L 376.046 424.638 L 378.11 416.419 Z " fill="rgb(137,61,54)"/><path d=" M 379.978 442.42 C 377.866 447.652 362.361 443.213 356.865 441.451 L 356.136 449.008 L 385.266 450.813 C 387.265 450.936 388.185 448.372 386.564 447.198 L 379.978 442.42 Z " fill="rgb(56,66,65)"/><path d=" M 378.489 251.956 L 388.572 250.873 C 388.572 250.873 409.572 308.623 379.53 419.956 L 354.028 419.956 C 354.028 419.956 359.044 401.02 355.815 382.623 C 352.586 364.227 361.958 339.289 361.958 339.289 C 361.958 339.289 329.576 283.956 347.532 251.956 L 378.489 251.956 Z " fill="rgb(40,132,127)"/><path d=" M 346.013 391.437 L 329.814 424.205 L 358.544 437.201 C 360.368 438.027 362.138 435.957 361.041 434.283 L 350.919 418.846 L 364.015 400.068 L 346.013 391.437 Z " fill="rgb(173,76,69)"/><path d=" M 340.745 402.094 L 359.806 406.102 L 364.015 400.068 L 346.013 391.437 L 340.745 402.094 Z " fill="rgb(137,61,54)"/><path d=" M 356.044 426.662 C 351.963 431.072 338.204 420.789 333.398 416.957 L 329.814 424.205 L 358.544 437.201 C 360.368 438.027 362.138 435.957 361.041 434.283 L 356.044 426.662 Z " fill="rgb(56,66,65)"/><path d=" M 344.207 251.956 C 344.207 251.956 324.759 279.623 335.541 299.123 C 346.322 318.623 371.521 338.623 371.521 338.623 C 371.521 338.623 352.564 345.123 349.314 369.123 C 346.064 393.123 340.622 396.822 340.622 396.822 L 364.837 403.623 C 364.837 403.623 412.042 354.623 411.431 340.123 C 410.822 325.623 378.489 251.956 378.489 251.956 L 344.207 251.956 Z " fill="rgb(40,148,144)"/><line x1="344.122" y1="391.11" x2="371.861" y2="396.113" vector-effect="non-scaling-stroke" stroke-width="1" stroke="rgb(40,132,127)" stroke-linejoin="bevel" stroke-linecap="round" stroke-miterlimit="10"/><path d=" M 355.815 393.219 L 386.391 338.722 C 386.391 338.722 335.789 297.577 351.741 264.983" fill="none" vector-effect="non-scaling-stroke" stroke-width="1" stroke="rgb(40,132,127)" stroke-linejoin="bevel" stroke-linecap="round" stroke-miterlimit="10"/><path d=" M 349.399 286.101 C 349.399 286.101 360.465 284.202 360.08 265.795" fill="none" vector-effect="non-scaling-stroke" stroke-width="1" stroke="rgb(40,132,127)" stroke-linejoin="bevel" stroke-linecap="round" stroke-miterlimit="10"/><path d=" M 341.797 150.178 C 332.183 151.059 335.555 158.239 332.277 161.106 C 330.772 162.422 329.122 163.749 328.838 165.755 C 328.539 167.864 329.645 169.728 328.045 171.585 C 326.738 173.098 325.081 173.424 324.453 175.456 C 323.817 177.512 325.061 179.384 324.211 181.374 C 323.41 183.248 322.055 184.323 321.716 186.463 C 321.411 188.383 320.569 192.358 321.943 193.956 C 324.839 197.325 330.098 199.456 335.541 198.79 C 341.189 198.098 350.27 194.691 355.815 194.956 C 364.789 195.387 375.419 198.827 382.108 189.934 C 383.183 188.506 383.791 187.153 383.813 185.448 C 383.842 183.252 382.298 182.18 381.969 180.258 C 381.557 177.85 383.94 175.43 383.815 172.888 C 383.678 170.108 381.572 168.137 378.895 166.973 C 377.168 166.223 374.014 165.761 373.104 163.95 C 372.023 161.798 373.932 159.465 371.987 157.368 C 370.116 155.351 367.521 156.095 365.104 155.317 C 362.636 154.522 362.948 153.361 362.222 151.489 C 361.15 148.722 358.269 149.401 355.657 148.127 C 352.923 146.794 347.857 145.444 346.197 148.248 C 344.989 150.29 342.897 149.981 341.797 150.178 Z " fill="rgb(56,66,65)"/><path d=" M 394.323 146.123 C 391.51 143.12 388.336 140.077 387.198 139.959 C 384.97 139.728 381.793 140.115 379.771 139.209 C 379.65 137.562 379.94 135.926 379.893 134.258 C 379.854 132.835 379.246 131.55 379.195 130.293 C 379.123 128.495 380.094 129.506 381.175 128.83 C 382.398 128.066 383.104 126.774 384.252 125.914 C 386.504 124.225 389.667 126.03 391.542 127.697 C 392.799 128.816 391.71 129.904 392.332 131.276 C 392.792 132.289 394.255 132.115 394.848 133.284 C 395.208 133.991 394.98 134.644 395.169 135.406 C 395.301 135.942 398.143 138.817 400.878 141.956 L 394.323 146.123 Z " fill="rgb(173,76,69)"/><path d=" M 380.822 132.956 C 382.863 132.537 384.41 130.847 386.16 129.806 C 387.776 128.846 387.79 130.834 387.366 131.957 C 387.051 132.791 386.439 133.508 385.687 133.963 C 387.789 133.424 391.439 133.858 391.239 136.79" fill="none" vector-effect="non-scaling-stroke" stroke-width="1" stroke="rgb(137,61,54)" stroke-linejoin="bevel" stroke-linecap="round" stroke-miterlimit="10"/><path d=" M 388.155 133.54 C 389.846 132.253 391.92 131.145 392.905 129.123" fill="none" vector-effect="non-scaling-stroke" stroke-width="1" stroke="rgb(137,61,54)" stroke-linejoin="bevel" stroke-linecap="round" stroke-miterlimit="10"/><path d=" M 421.322 149.79 C 414.32 147.039 410.043 144.466 407.672 142.776 C 406.45 141.904 404.941 141.612 403.512 141.902 L 400.822 137.846 L 390.239 145.04 L 393.829 148.031 C 393.263 149.261 393.145 150.69 393.62 152.051 L 394.081 153.373 C 395.645 168.29 405.208 175.854 405.208 175.854 L 361.958 189.916 L 351.072 190.123 C 351.072 190.123 332.809 191.15 324.941 202.217 C 317.072 213.284 305.072 224.296 305.072 224.296 C 305.072 224.296 296.322 216.755 288.072 217.689 C 287.033 217.807 286.025 218.187 285.074 218.779 C 281.893 218.525 278.511 220.208 276.512 223.384 C 273.93 227.486 274.58 232.598 277.88 235.209 C 277.998 238.932 279.106 242.622 281.572 245.568 C 289.572 255.123 313.072 264.623 323.822 259.623 C 334.572 254.623 341.038 239.123 341.038 239.123 C 341.038 239.123 344.755 248.623 341.038 254.873 C 337.322 261.123 356.072 266.873 372.072 265.623 C 388.072 264.373 393.397 257.43 389.572 250.873 C 381.626 237.251 398.057 222.374 395.416 210.958 C 409.415 205.433 430.419 196.145 437.208 187.805 C 447.708 174.909 435.322 155.29 421.322 149.79 Z " fill="rgb(248,219,133)"/><path d=" M 395.645 212.367 C 395.492 210.709 394.971 209.117 393.955 207.604 C 390.27 202.122 384.7 198.825 377.136 194.197" fill="none" vector-effect="non-scaling-stroke" stroke-width="1" stroke="rgb(229,133,130)" stroke-linejoin="bevel" stroke-linecap="round" stroke-miterlimit="10"/><path d=" M 341.038 239.123 C 341.038 239.123 342.624 223.527 339.306 218.325" fill="none" vector-effect="non-scaling-stroke" stroke-width="1" stroke="rgb(229,133,130)" stroke-linejoin="bevel" stroke-linecap="round" stroke-miterlimit="10"/><path d=" M 305.072 224.296 C 305.072 224.296 315.155 228.623 317.822 237.79" fill="none" vector-effect="non-scaling-stroke" stroke-width="1" stroke="rgb(229,133,130)" stroke-linejoin="bevel" stroke-linecap="round" stroke-miterlimit="10"/><path d=" M 405.208 175.854 C 405.208 175.854 414.822 176.956 417.655 180.373" fill="none" vector-effect="non-scaling-stroke" stroke-width="1" stroke="rgb(229,133,130)" stroke-linejoin="bevel" stroke-linecap="round" stroke-miterlimit="10"/><path d=" M 280.437 232.4 C 277.715 230.605 269.666 225.998 269.666 225.998 C 267.817 225.617 265.351 225.442 263.706 224.485 C 261.316 223.096 262.779 219.175 263.786 217.291 C 264.961 215.092 264.105 214.421 263.786 212.175 C 263.394 209.416 265.129 209.092 267.271 209.553 C 268.928 209.909 268.562 209.204 270.005 208.577 C 270.899 208.188 271.346 208.53 272.196 209.089 C 273.103 209.686 273.854 210.531 274.754 211.167 C 275.847 211.942 277.021 212.334 277.595 213.614 C 278.322 215.233 278.008 217.153 278.52 218.791 C 279.443 221.743 285.559 225.852 285.559 225.852 C 287.057 230.345 283.387 233.511 280.437 232.4 Z " fill="rgb(173,76,69)"/><path d=" M 268.572 209.436 C 268.55 209.783 268.262 210.355 268.157 210.756 C 268.001 211.348 267.873 211.946 267.706 212.536 C 267.454 213.428 267.057 214.581 267.434 215.483 C 267.742 216.218 268.967 217.116 269.486 216.06 C 269.9 215.219 270.021 214.245 270.48 213.414 C 270.17 214.641 270.027 216.221 270.525 217.42 C 271.158 218.943 272.876 220.11 274.509 220.248" fill="none" vector-effect="non-scaling-stroke" stroke-width="1" stroke="rgb(137,61,54)" stroke-linejoin="bevel" stroke-linecap="round" stroke-miterlimit="10"/><path d=" M 270.78 217.915 C 270.946 218.117 270.902 218.622 270.905 218.888 C 270.913 219.569 270.882 220.24 270.801 220.915 C 270.639 222.263 269.934 224.197 268.28 224.206" fill="none" vector-effect="non-scaling-stroke" stroke-width="1" stroke="rgb(137,61,54)" stroke-linejoin="bevel" stroke-linecap="round" stroke-miterlimit="10"/><path d=" M 360.177 173.017 C 363.022 171.617 366.553 172.358 368.571 174.963 C 370.878 177.939 370.335 182.221 367.358 184.528 C 364.381 186.834 360.099 186.291 357.793 183.314 C 355.716 180.635 355.95 176.897 358.188 174.495" fill="none" vector-effect="non-scaling-stroke" stroke-width="1" stroke="rgb(248,219,133)" stroke-linejoin="bevel" stroke-linecap="round" stroke-miterlimit="10"/><path d=" M 361.813 192.252 L 359.11 176.418 L 347.532 175.854 L 349.178 191.776 C 347.532 192.04 346.409 193.108 346.239 193.956 C 345.489 197.706 350.483 200.043 355.366 201.143 C 360.248 202.243 364.734 200.788 365.386 197.893 C 365.834 195.908 364.359 193.76 361.813 192.252 Z " fill="rgb(173,76,69)"/><path d=" M 361.958 193.1 L 361.958 193.1 L 359.11 176.418 L 347.532 175.854 C 347.532 175.854 352.343 188.16 361.958 193.1 Z " fill="rgb(137,61,54)"/><path d=" M 363.275 169.546 C 363.53 166.874 362.956 164.085 361.608 161.837 C 361.455 161.779 361.302 161.735 361.158 161.734 C 360.152 161.73 359.447 161.76 358.402 161.469 C 357.243 161.146 356.8 160.874 355.861 161.663 C 354.755 162.593 352.937 162.157 351.607 161.806 C 350.732 161.576 349.114 160.653 348.292 161.381 C 347.898 161.729 347.928 162.343 347.956 162.864 C 347.983 163.373 348.107 163.851 347.892 164.366 C 347.712 164.798 347.189 165.042 347.105 165.472 C 346.958 166.233 347.745 167.043 347.673 167.864 C 347.627 168.406 347.257 168.729 347.177 169.216 C 346.916 170.819 348.62 171.903 348.787 173.328 C 348.955 174.757 346.838 173.714 346.332 173.171 C 345.983 172.796 345.763 172.252 345.291 172.024 C 344.791 171.783 344.166 171.964 343.649 171.833 C 343.033 171.677 342.458 170.837 341.854 170.611 C 341.794 170.692 341.731 170.761 341.672 170.852 C 339.567 174.159 343 177.311 347.587 177.152 C 349.363 181.329 353.466 188.407 360.31 186.373 C 368.782 183.855 362.64 176.207 363.275 169.546 Z " fill="rgb(173,76,69)"/><path d=" M 352.766 170.904 C 352.579 170.487 352.765 169.996 353.182 169.809 C 353.599 169.622 354.089 169.808 354.277 170.225 C 354.464 170.643 354.277 171.133 353.86 171.32 C 353.443 171.507 352.954 171.321 352.766 170.904 Z " fill="rgb(56,66,65)"/><path d=" M 359.523 169.889 C 359.337 169.472 359.522 168.982 359.94 168.795 C 360.357 168.608 360.846 168.794 361.034 169.211 C 361.221 169.629 361.035 170.118 360.618 170.305 C 360.201 170.493 359.711 170.306 359.523 169.889 Z " fill="rgb(56,66,65)"/><path d=" M 350.527 167.114 C 350.527 167.114 352.519 165.598 355.041 166.704" fill="none" vector-effect="non-scaling-stroke" stroke-width="1" stroke="rgb(56,66,65)" stroke-linejoin="bevel" stroke-linecap="round" stroke-miterlimit="10"/><path d=" M 359.068 166.3 C 359.068 166.3 360.818 164.596 363.182 166.3" fill="none" vector-effect="non-scaling-stroke" stroke-width="1" stroke="rgb(56,66,65)" stroke-linejoin="bevel" stroke-linecap="round" stroke-miterlimit="10"/><path d=" M 357.986 167.114 C 357.648 169.225 359.094 170.742 359.606 172.701 C 359.76 173.289 359.908 174.489 359.231 174.829 C 358.956 174.968 358.569 174.899 358.292 174.78 C 358.122 174.706 357.816 174.419 357.763 174.433" fill="none" vector-effect="non-scaling-stroke" stroke-width="1" stroke="rgb(137,61,54)" stroke-linejoin="bevel" stroke-linecap="round" stroke-miterlimit="10"/><path d=" M 359.904 178.48 C 358.859 178.713 357.932 178.653 356.892 178.401 C 356.29 178.255 355.622 178.01 355.041 177.651 C 355.518 177.596 355.809 177.287 356.221 177.041 C 356.751 176.725 356.875 176.763 357.436 176.979 C 357.588 177.037 357.916 177.256 358.071 177.25 C 358.371 177.24 358.276 177.104 358.53 176.975 C 358.967 176.754 359.306 176.642 359.735 176.992 C 360.115 177.304 360.194 178.04 359.904 178.48 Z " fill="none" vector-effect="non-scaling-stroke" stroke-width="1" stroke="rgb(215,92,81)" stroke-linejoin="bevel" stroke-linecap="round" stroke-miterlimit="10"/><path d=" M 346.297 176.266 C 349.404 176.902 351.741 179.651 351.741 182.946 C 351.741 186.711 348.689 189.763 344.923 189.763 C 341.158 189.763 338.105 186.711 338.105 182.946 C 338.105 179.556 340.579 176.744 343.82 176.217" fill="none" vector-effect="non-scaling-stroke" stroke-width="1" stroke="rgb(248,219,133)" stroke-linejoin="bevel" stroke-linecap="round" stroke-miterlimit="10"/><path d=" M 407.694 137.007 C 408.401 132.954 409.471 122.765 410.359 122.043 C 412.095 120.63 414.965 119.212 416.162 117.346 C 415.36 115.902 414.221 114.693 413.345 113.272 C 412.599 112.06 412.404 110.651 411.757 109.572 C 410.833 108.029 410.574 109.407 409.3 109.433 C 407.858 109.464 406.56 108.77 405.129 108.679 C 402.32 108.5 400.662 111.743 400.007 114.165 C 399.568 115.79 401.075 116.103 401.306 117.592 C 401.477 118.692 400.158 119.347 400.301 120.651 C 400.388 121.439 400.937 121.861 401.196 122.601 C 401.379 123.122 400.495 132.989 399.927 137.113 L 407.694 137.007 Z " fill="rgb(229,133,130)"/><path d=" M 414.856 117.289 C 412.815 116.869 411.268 115.18 409.518 114.138 C 407.902 113.178 407.888 115.166 408.312 116.289 C 408.627 117.123 409.239 117.84 409.991 118.295 C 407.889 117.756 404.239 118.19 404.439 121.122" fill="none" vector-effect="non-scaling-stroke" stroke-width="1" stroke="rgb(215,92,81)" stroke-linejoin="bevel" stroke-linecap="round" stroke-miterlimit="10"/><path d=" M 407.522 117.872 C 405.831 116.585 403.758 115.477 402.772 113.455" fill="none" vector-effect="non-scaling-stroke" stroke-width="1" stroke="rgb(215,92,81)" stroke-linejoin="bevel" stroke-linecap="round" stroke-miterlimit="10"/><path d=" M 468.448 127.323 C 468.812 124.442 470.363 112.329 470.363 112.329 C 471.177 110.859 472.489 109.09 472.796 107.423 C 473.241 105.002 469.742 103.718 467.884 103.306 C 465.716 102.827 465.759 101.859 464.425 100.341 C 462.787 98.477 461.563 99.462 460.632 101.178 C 459.913 102.506 459.648 101.849 458.388 102.461 C 457.607 102.84 457.578 103.34 457.464 104.239 C 457.342 105.199 457.477 106.196 457.386 107.173 C 457.276 108.362 456.861 109.383 457.393 110.513 C 458.067 111.942 459.547 112.843 460.358 114.138 C 461.819 116.474 461.052 126.991 461.052 126.991 C 463.222 130.608 467.489 129.962 468.448 127.323 Z " fill="rgb(229,133,130)"/><path d=" M 459.798 101.99 C 460.047 102.176 460.6 102.314 460.932 102.474 C 461.423 102.712 461.902 102.972 462.397 103.201 C 463.146 103.547 464.156 103.948 464.547 104.725 C 464.866 105.36 464.762 106.709 463.749 106.448 C 462.939 106.24 462.211 105.758 461.382 105.586 C 462.392 106.087 463.544 106.907 464.065 107.938 C 464.728 109.248 464.521 111.086 463.668 112.272" fill="none" vector-effect="non-scaling-stroke" stroke-width="0.891" stroke="rgb(215,92,81)" stroke-linejoin="bevel" stroke-linecap="round" stroke-miterlimit="10"/><path d=" M 464.252 108.398 C 464.293 108.627 464.659 108.89 464.838 109.047 C 465.294 109.447 465.765 109.814 466.268 110.151 C 467.273 110.822 468.99 111.468 469.955 110.354" fill="none" vector-effect="non-scaling-stroke" stroke-width="0.891" stroke="rgb(215,92,81)" stroke-linejoin="bevel" stroke-linecap="round" stroke-miterlimit="10"/><path d=" M 460.227 412.137 C 460.227 412.137 469.977 432.387 470.727 445.137 C 470.727 445.137 460.333 450.137 441.155 448.637 C 441.155 448.637 434.977 446.046 443.977 441.842 C 452.977 437.637 453.727 435.866 453.727 435.866 L 446.227 414.387 L 460.227 412.137 Z " fill="rgb(229,133,130)"/><path d=" M 460.227 412.137 L 446.227 414.387 L 451.787 430.31 L 467.1 429.169 C 464.056 420.092 460.227 412.137 460.227 412.137 Z " fill="rgb(173,76,69)"/><path d=" M 441.155 448.637 C 460.333 450.137 470.727 445.137 470.727 445.137 C 470.663 444.047 470.529 442.9 470.344 441.717 C 466.352 442.206 461.877 442.761 457.977 443.137 C 449.477 443.956 448.385 439.638 448.385 439.638 L 448.382 439.639 C 447.192 440.284 445.75 441.014 443.977 441.842 C 434.977 446.046 441.155 448.637 441.155 448.637 Z " fill="rgb(87,104,168)"/><path d=" M 412.178 410.637 L 403.136 440.625 C 403.136 440.625 392.715 450.772 394.06 458.262 C 395.199 464.609 410.306 451.645 414.896 447.535 C 415.752 446.77 416.419 445.822 416.846 444.756 L 430.56 410.637 L 412.178 410.637 Z " fill="rgb(229,133,130)"/><path d=" M 429.893 412.296 L 422.115 410.637 L 412.178 410.637 L 406.181 430.528 L 422.565 430.528 L 429.893 412.296 Z " fill="rgb(173,76,69)"/><path d=" M 399.445 444.817 C 396.596 448.456 393.263 453.825 394.06 458.262 C 395.199 464.609 410.306 451.645 414.896 447.535 C 415.752 446.77 416.419 445.822 416.846 444.756 L 417.777 442.441 C 415.623 444.51 412.509 446.811 408.727 447.637 C 403.778 448.718 400.857 446.46 399.445 444.817 Z " fill="rgb(87,104,168)"/><path d=" M 419.047 191.208 C 418.8 187.535 416.534 182.841 417.323 178.202 C 418.156 173.3 420.143 169.221 424.407 166.557 C 433.86 160.651 440.937 164.497 448.166 172.012 C 455.317 179.448 456.848 189.704 460.6 198.929 C 464.235 207.866 472.31 214.531 477.252 222.616 C 482.565 231.311 485.305 247.93 473.456 252.463 C 470.373 253.643 466.889 253.329 463.65 253.86 C 458.983 254.624 454.716 256.757 450.287 258.246 C 444.962 260.037 440.085 262.643 434.582 264.02 C 427.714 265.74 416.269 266.116 410.712 260.687 C 402.904 253.061 411.394 236.056 414.882 228.33 C 420.257 216.422 422.366 204.627 419.961 192.166 C 419.88 192.45 419.773 192.725 419.047 191.208 Z " fill="rgb(56,66,65)"/><path d=" M 420.763 258.117 C 420.763 258.117 401.145 277.073 400.424 296.064 C 398.643 343.011 446.125 403.204 444.653 427.907 L 471.87 425.514 C 471.87 425.514 465.214 374.963 446.404 340.075 C 446.404 340.075 470.811 297.616 461.45 261.094 L 420.763 258.117 Z " fill="rgb(215,92,81)"/><path d=" M 434.961 259.156 L 403.988 427.907 L 432.876 427.907 C 432.876 427.907 442.956 349.557 453.87 332.355 C 464.785 315.153 473.038 302.07 461.45 261.094 L 434.961 259.156 Z " fill="rgb(215,92,81)"/><path d=" M 416.291 360.876 C 416.291 360.876 422.652 270.722 429.014 258.72" fill="none" vector-effect="non-scaling-stroke" stroke-width="1" stroke="rgb(173,76,69)" stroke-linejoin="bevel" stroke-linecap="round" stroke-miterlimit="10"/><line x1="436.294" y1="404.398" x2="441.155" y2="376.519" vector-effect="non-scaling-stroke" stroke-width="1" stroke="rgb(173,76,69)" stroke-linejoin="bevel" stroke-linecap="round" stroke-miterlimit="10"/><path d=" M 447.227 266.534 C 447.227 266.534 455.385 286.894 467.056 295.64" fill="none" vector-effect="non-scaling-stroke" stroke-width="0.891" stroke="rgb(173,76,69)" stroke-linejoin="bevel" stroke-linecap="round" stroke-miterlimit="10"/><path d=" M 423.366 258.307 C 423.366 258.307 416.291 279.593 424.365 279.593" fill="none" vector-effect="non-scaling-stroke" stroke-width="1" stroke="rgb(173,76,69)" stroke-linejoin="bevel" stroke-linecap="round" stroke-miterlimit="10"/><line x1="406.096" y1="416.419" x2="434.472" y2="416.419" vector-effect="non-scaling-stroke" stroke-width="1" stroke="rgb(173,76,69)" stroke-linejoin="bevel" stroke-linecap="round" stroke-miterlimit="10"/><line x1="443.069" y1="416.957" x2="469.977" y2="413.943" vector-effect="non-scaling-stroke" stroke-width="1" stroke="rgb(173,76,69)" stroke-linejoin="bevel" stroke-linecap="round" stroke-miterlimit="10"/><path d=" M 461.887 240.904 C 464.594 222.175 475.249 210.498 470.795 183.837 C 467.644 164.979 471.795 124.012 471.795 124.012 L 458.433 124.012 C 449.629 137.106 447.798 178.314 446.626 192.52 C 446.287 196.63 442.85 199.786 438.727 199.786 C 438.727 199.786 434.806 200.634 431.212 202.547 C 411.559 191.018 410.232 131.743 410.232 131.743 L 396.277 131.743 L 394.793 157.056 C 389.55 190.788 408.275 214.248 417.262 223.331 C 416.827 224.112 416.447 224.94 416.162 225.849 C 414.083 232.47 418.834 234.371 420.912 240.607 C 421.996 243.858 419.851 253.242 417.549 261.482 C 415.437 269.045 461.533 267.45 461.45 261.094 C 461.313 250.651 461.887 240.904 461.887 240.904 Z " fill="rgb(73,85,125)"/><path d=" M 416.162 225.849 C 418.24 219.228 425.069 216.578 425.366 209.589" fill="none" vector-effect="non-scaling-stroke" stroke-width="0.891" stroke="rgb(56,66,65)" stroke-linejoin="bevel" stroke-linecap="round" stroke-miterlimit="10"/><path d=" M 425.366 239.387 C 425.366 239.387 435.043 237.637 442.384 240.387" fill="none" vector-effect="non-scaling-stroke" stroke-width="0.891" stroke="rgb(56,66,65)" stroke-linejoin="bevel" stroke-linecap="round" stroke-miterlimit="10"/><line x1="446.758" y1="190.83" x2="445.227" y2="209.589" vector-effect="non-scaling-stroke" stroke-width="0.891" stroke="rgb(56,66,65)" stroke-linejoin="bevel" stroke-linecap="round" stroke-miterlimit="10"/><path d=" M 431.383 204.425 L 432.269 193.396 L 442.384 190.065 L 443.924 197.468 C 444.379 199.648 443.687 201.909 442.092 203.462 L 434.07 213.173 L 431.383 204.425 Z " fill="rgb(229,133,130)"/><path d=" M 442.384 190.065 L 432.269 193.396 L 431.383 204.425 C 442.384 200.634 442.384 190.065 442.384 190.065 Z " fill="rgb(215,92,81)"/><path d=" M 445.853 182.039 L 442.384 185.751 C 440.746 183.12 437.079 182.425 433.494 181.26 C 429.041 179.812 427.815 176.472 427.815 176.472 C 426.494 183.962 423.58 186.512 423.517 186.566 C 423.543 186.859 423.563 187.151 423.602 187.447 C 424.582 194.906 429.541 200.405 434.679 199.73 C 438.263 199.26 441.257 195.484 442.384 190.065 C 448.443 187.927 445.853 182.039 445.853 182.039 Z " fill="rgb(229,133,130)"/><path d=" M 435.379 182.555 C 435.379 182.555 432.877 181.008 431.244 183.224" fill="none" vector-effect="non-scaling-stroke" stroke-width="1" stroke="rgb(56,66,65)" stroke-linejoin="bevel" stroke-linecap="round" stroke-miterlimit="10"/><path d=" M 427.218 184.314 C 427.218 184.314 425.039 183.341 424.085 185.688" fill="none" vector-effect="non-scaling-stroke" stroke-width="1" stroke="rgb(56,66,65)" stroke-linejoin="bevel" stroke-linecap="round" stroke-miterlimit="10"/><path d=" M 428.858 184.512 C 429.941 186.356 429.145 188.295 429.38 190.305 C 429.452 190.909 429.751 192.08 430.505 192.151 C 430.812 192.18 431.147 191.975 431.362 191.763 C 431.494 191.633 431.673 191.254 431.728 191.249" fill="none" vector-effect="non-scaling-stroke" stroke-width="1" stroke="rgb(215,92,81)" stroke-linejoin="bevel" stroke-linecap="round" stroke-miterlimit="10"/><path d=" M 430.852 193.83 C 431.922 193.827 433.058 193.225 434.017 192.751 C 434.573 192.476 435.171 192.09 435.659 191.612 C 435.659 191.612 436.725 195.007 433.311 196.048 L 430.852 193.83 Z " fill="rgb(248,248,249)"/><path d=" M 427.768 186.548 C 427.056 186.229 425.641 186.963 425.31 187.548" fill="none" vector-effect="non-scaling-stroke" stroke-width="1" stroke="rgb(215,92,81)" stroke-linejoin="bevel" stroke-linecap="round" stroke-miterlimit="10"/><path d=" M 434.59 184.814 C 433.963 184.351 432.423 184.767 431.975 185.269" fill="none" vector-effect="non-scaling-stroke" stroke-width="1" stroke="rgb(215,92,81)" stroke-linejoin="bevel" stroke-linecap="round" stroke-miterlimit="10"/></g></g></g></svg>