<?xml version="1.0" encoding="UTF-8" standalone="no"?><!-- Generator: Gravit.io --><svg xmlns="http://www.w3.org/2000/svg" xmlns:xlink="http://www.w3.org/1999/xlink" style="isolation:isolate" viewBox="321 109 727 508" width="727pt" height="508pt"><clipPath id="_clipPath_GaOxmj2TWo0oUUznI65riYN8nKfZpLFF"><path d=" M 321 109 L 321 617 L 1048 617 L 1048 109 L 321 109 Z " fill="rgb(255,255,255)"/></clipPath><g clip-path="url(#_clipPath_GaOxmj2TWo0oUUznI65riYN8nKfZpLFF)"><path d=" M 1048 617 L 321 617 L 321 109 L 1048 109 L 1048 617 Z " fill="rgb(255,255,255)"/><path d=" M 443.542 179.303 C 537.257 140.406 632.507 174.795 697.106 249.694 C 729.414 287.155 779.479 274.212 830.451 261.269 C 881.392 248.333 933.239 235.398 969.179 272.775 C 1018.248 323.807 995.771 455.011 928.49 511.84 C 837.037 589.082 496.341 591.401 439.813 564.895 C 343.216 519.602 439.196 435.725 394.106 355.321 C 340.91 260.464 402.127 196.492 443.542 179.303 Z " fill="rgb(231,243,254)"/><path d=" M 971.058 542.566 C 924.146 540.001 764.565 544.344 716.03 546.038 C 667.495 547.731 611.158 543.803 581.895 538.028 C 552.631 532.251 383.474 538.52 391.15 554.049 C 398.826 569.577 466.517 560.996 543.28 567.236 C 620.042 573.479 792.683 566.456 831.627 567.236 C 870.568 568.017 906.279 565.676 956.463 562.555 C 1006.648 559.435 998.25 544.051 971.058 542.566 Z " fill="rgb(204,226,255)"/><path d=" M 833.642 244.373 L 828.871 236.129 C 827.479 236.307 826.065 236.401 824.629 236.401 C 822.525 236.401 820.464 236.202 818.455 235.823 L 813.303 243.773 C 810.782 243.042 808.346 242.072 806.018 240.887 L 806.492 231.085 C 803.443 229.16 800.664 226.765 798.232 223.986 L 797.43 224.279 L 797.43 163.752 L 799.633 164.702 C 802.189 162.074 805.077 159.845 808.217 158.1 L 808.206 148.283 C 810.585 147.24 813.063 146.416 815.618 145.835 L 820.389 154.079 C 821.781 153.901 823.195 153.806 824.629 153.806 C 826.734 153.806 828.797 154.006 830.805 154.384 L 835.958 146.434 C 838.479 147.166 840.914 148.135 843.242 149.321 L 842.768 159.122 C 845.816 161.047 848.595 163.443 851.028 166.221 L 859.373 163.177 C 861.008 165.399 862.475 167.782 863.755 170.299 L 858.222 177.91 C 859.654 181.401 860.663 185.154 861.176 189.087 L 869.52 192.105 C 869.572 193.097 869.601 194.097 869.601 195.104 C 869.601 197.012 869.503 198.895 869.318 200.749 L 860.845 203.27 C 860.147 207.157 858.96 210.846 857.362 214.255 L 862.528 222.184 C 861.132 224.62 859.553 226.912 857.813 229.037 L 849.627 225.506 C 847.072 228.133 844.184 230.363 841.041 232.108 L 841.052 241.924 C 838.675 242.968 836.198 243.792 833.642 244.373 Z  M 824.629 175.383 C 814.887 175.383 806.99 184.212 806.99 195.104 C 806.99 205.995 814.887 214.824 824.629 214.824 C 834.371 214.824 842.268 205.995 842.268 195.104 C 842.268 184.212 834.371 175.383 824.629 175.383 Z " fill="rgb(206,227,255)"/><path d=" M 848.687 217.874 C 848.482 217.874 848.277 217.797 848.106 217.639 C 847.721 217.28 847.668 216.64 847.99 216.208 C 852.384 210.299 854.805 202.803 854.805 195.104 C 854.805 191.416 854.267 187.796 853.202 184.343 C 853.039 183.812 853.291 183.234 853.766 183.051 C 854.24 182.869 854.758 183.151 854.922 183.681 C 856.05 187.348 856.623 191.191 856.623 195.104 C 856.623 203.277 854.053 211.234 849.387 217.508 C 849.207 217.749 848.947 217.874 848.687 217.874 Z " fill="rgb(255,255,255)"/><path d=" M 846.134 171.329 C 845.91 171.329 845.687 171.237 845.511 171.052 C 842.557 167.943 839.135 165.586 835.342 164.046 C 834.869 163.855 834.626 163.272 834.796 162.745 C 834.967 162.217 835.489 161.945 835.961 162.136 C 839.989 163.771 843.622 166.273 846.757 169.573 C 847.123 169.958 847.139 170.601 846.795 171.009 C 846.617 171.221 846.376 171.329 846.134 171.329 Z " fill="rgb(255,255,255)"/><path d=" M 817.788 163.11 C 817.381 163.11 817.012 162.803 816.907 162.342 C 816.785 161.798 817.079 161.246 817.566 161.108 C 820.069 160.402 822.659 160.044 825.264 160.044 C 825.767 160.044 826.172 160.499 826.172 161.06 C 826.172 161.621 825.767 162.076 825.264 162.076 C 822.808 162.076 820.369 162.413 818.01 163.078 C 817.935 163.1 817.861 163.11 817.788 163.11 Z " fill="rgb(255,255,255)"/><path d=" M 794.486 269.821 L 794.486 225.353 L 797.43 224.279 L 797.43 269.209 C 796.449 269.417 795.464 269.622 794.486 269.821 Z  M 797.43 163.752 L 794.486 162.482 L 794.486 150.584 L 530.054 150.584 L 530.054 163.276 C 527.657 163.189 525.245 163.145 522.837 163.145 C 520.68 163.145 518.526 163.18 516.361 163.251 L 516.361 145.978 L 797.43 145.978 L 797.43 163.752 Z " fill="rgb(206,227,255)"/><path d=" M 797.43 334.727 L 516.361 334.727 L 516.361 163.251 C 518.526 163.18 520.68 163.145 522.837 163.145 C 525.245 163.145 527.657 163.189 530.054 163.276 L 530.054 323.86 L 794.486 323.86 L 794.486 269.821 C 795.464 269.622 796.449 269.417 797.43 269.209 L 797.43 334.727 Z " fill="rgb(194,221,255)"/><path d=" M 794.486 225.353 L 794.486 162.482 L 797.43 163.752 L 797.43 224.279 L 794.486 225.353 Z " fill="rgb(182,213,255)"/><path d=" M 794.486 323.86 L 530.054 323.86 L 530.054 150.584 L 794.486 150.584 L 794.486 323.86 Z " fill="rgb(255,255,255)"/><path d=" M 755.541 240.134 C 768.143 226.723 789.681 227.028 789.226 247.449 C 788.772 267.871 790.28 269.79 795.466 280.503 C 813.459 317.674 774.019 315.488 757.571 316.707 C 741.122 317.926 742.486 283.28 745.394 264.078 C 748.302 244.875 751.853 244.058 755.541 240.134 Z " fill="rgb(48,60,96)"/><path d=" M 761.415 357.225 C 757.374 395.156 750.034 423.196 749.216 441.179 C 748.398 459.16 745.126 529.965 745.126 529.965 C 745.126 529.965 754.123 529.262 754.941 527.738 C 755.759 526.214 771.844 486.288 771.026 461.599 C 770.208 436.912 787.091 399.375 787.091 399.375 L 783.019 362.545 L 761.415 357.225 Z " fill="rgb(68,118,189)"/><path d=" M 765.295 373.737 L 758.978 376.694 C 757.26 388.721 755.353 399.535 753.681 409.128 C 763.736 416.395 768.928 440.608 771.155 455.411 C 772.289 438.846 779.279 418.831 783.616 407.763 L 765.295 373.737 Z " fill="rgb(62,107,171)"/><path d=" M 794.47 353.401 C 794.47 353.401 808.086 372.821 807.659 394.852 C 807.01 428.39 803.739 437.965 809.431 473.13 C 811.654 486.865 804.524 531.794 804.524 531.794 C 804.524 531.794 798.434 532.327 795.162 530.506 C 795.435 527.206 791.225 473.504 783.028 448.819 C 779.057 436.865 773.479 403.386 770.48 384.184 C 767.482 364.983 766.936 361.021 768.027 361.021 C 769.117 361.021 794.47 353.401 794.47 353.401 Z " fill="rgb(68,118,189)"/><path d=" M 716.89 299.469 C 716.89 299.469 717.495 289.42 716.526 286.316 C 715.556 283.213 707.195 280.503 707.195 280.503 C 707.195 280.503 706.832 294.863 707.68 296.624 C 708.529 298.385 713.496 303.397 713.496 303.397 L 716.89 299.469 Z " fill="rgb(240,153,89)"/><path d=" M 763.899 292.147 C 744.757 315.183 738.509 324.876 737.055 324.876 C 732.511 315.908 717.42 296.943 717.42 296.943 L 710.985 301.568 C 710.985 301.568 725.855 345.007 735.306 345.456 C 744.757 345.905 763.967 330.476 764.21 328.704 C 764.454 326.932 763.899 292.147 763.899 292.147 Z " fill="rgb(162,223,242)"/><path d=" M 743.934 343.204 C 753.3 338.941 764.028 330.025 764.21 328.704 C 764.454 326.932 763.899 292.147 763.899 292.147 C 759.726 297.169 756.084 301.623 752.922 305.518 C 749.492 319.796 749.717 335.342 743.934 343.204 Z " fill="rgb(150,207,224)"/><path d=" M 783.348 276.981 C 783.348 276.981 801.667 287.247 805.665 305.418 C 809.664 323.589 797.832 346.041 796.378 358.022 C 794.924 370.002 761.484 372.109 761.484 359.286 C 761.484 346.99 753.105 320.893 753.578 314.244 C 754.688 298.647 775.081 279.54 775.081 279.54 L 783.348 276.981 Z " fill="rgb(162,223,242)"/><path d=" M 778.025 253.44 L 785.889 280.553 C 785.889 280.553 777.492 287.798 763.121 305.226 C 763.679 293.628 772.371 280.986 772.371 280.986 L 766.422 255.383 L 778.025 253.44 Z " fill="rgb(240,153,89)"/><path d=" M 781.693 266.086 L 778.025 253.44 L 766.422 255.383 L 772.371 280.986 C 772.371 280.986 771.789 282.021 770.933 283.648 C 776.536 278.997 779.975 273.21 781.693 266.086 Z " fill="rgb(227,133,64)"/><path d=" M 773.692 259.559 C 771.571 268.187 763.358 272.937 757.52 271.144 C 751.684 269.35 750.435 261.693 752.556 253.065 C 754.677 244.436 761.129 238.896 766.965 240.689 C 772.801 242.483 775.813 250.931 773.692 259.559 Z " fill="rgb(240,153,89)"/><path d=" M 760.023 347.128 C 762.569 365.17 753.112 403.768 753.112 403.768 C 753.112 403.768 758.752 405.201 775.655 403.372 C 792.558 401.543 800.009 382.682 802.554 382.156 C 805.098 381.629 806.405 399.708 807.659 401.137 C 808.915 402.565 809.106 378.307 805.825 368.769 C 800.009 351.865 801.147 344.694 803.321 334.452 C 807.187 316.24 760.023 347.128 760.023 347.128 Z " fill="rgb(162,223,242)"/><path d=" M 745.537 521.086 C 747.06 528 744.054 533.485 740.032 537.484 C 736.76 540.735 726.704 542.117 727.188 543.742 C 727.673 545.368 739.547 545.882 743.545 545.205 C 747.544 544.527 748.634 542.361 753.61 542.363 C 756.875 542.365 757.48 539.398 756.026 535.732 C 754.572 532.064 754.063 530.039 755.377 526.751 C 756.691 523.463 745.537 521.086 745.537 521.086 Z " fill="rgb(68,118,189)"/><path d=" M 804.875 521.086 C 804.631 528.265 803.886 533.613 805.462 536.941 C 811.545 542.631 816.601 549.095 814.671 549.54 C 805.462 551.667 801.949 545.496 796.738 543.742 C 790.344 541.588 797.343 532.607 794.839 521.086 C 793.445 514.679 804.493 516.215 804.493 516.215 L 804.875 521.086 Z " fill="rgb(68,118,189)"/><path d=" M 807.199 374.656 C 806.832 372.404 806.378 370.376 805.825 368.769 C 800.009 351.865 801.147 344.694 803.321 334.452 C 803.494 333.644 803.563 332.935 803.541 332.313 C 804.032 330.488 804.49 328.637 804.891 326.774 L 802.917 306.851 L 788.685 287.954 C 778.018 305.429 785.217 327.172 783.616 339.161 C 782.016 351.149 764.143 366.436 764.143 366.436 L 764.724 370.689 C 765.522 376.523 770.361 380.577 775.589 379.766 C 782.956 378.622 792.619 376.326 796.92 371.866 C 801.08 367.548 804.766 370.888 807.199 374.656 Z " fill="rgb(150,207,224)"/><path d=" M 768.321 365.749 C 768.321 365.749 760.432 368.218 759.488 368.769 C 758.545 369.322 758.023 372.237 758.023 372.237 C 758.023 372.237 753.507 376.623 755.237 378.175 C 756.967 379.727 760.057 383.657 764.143 381.829 C 766.649 380.707 768.594 370.407 770.237 370.323 C 771.882 370.242 768.321 365.749 768.321 365.749 Z " fill="rgb(240,153,89)"/><path d=" M 790.667 285.651 C 799.112 285.918 806.769 302.922 809.437 317.674 C 812.105 332.429 814.913 353.401 814.913 353.401 C 814.913 353.401 800.918 365.749 787.091 369.358 C 775.026 372.508 768.868 373.737 768.868 373.737 L 766.422 366.038 L 795.284 347.085 C 795.284 347.085 784.672 324.733 783.616 307.867 C 782.561 291.002 784.25 285.448 790.667 285.651 Z " fill="rgb(162,223,242)"/><path d=" M 712.115 292.067 L 691.065 296.79 L 688.384 281.843 L 709.434 277.121 L 712.115 292.067 Z " fill="rgb(245,220,149)"/><path d=" M 711.826 298.249 C 712.115 292.067 709.376 283.636 707.802 283.648 C 706.226 283.66 708.286 289.173 707.439 292.831 C 706.979 294.813 711.826 298.249 711.826 298.249 Z " fill="rgb(240,153,89)"/><path d=" M 754.103 243.385 C 754.572 260.319 772.262 259.021 777.109 257.976 C 781.956 256.932 771.207 293.7 780.44 295.822 C 787.22 297.38 785.693 285.523 793.225 286.316 C 796.556 286.667 799.904 292.425 799.904 292.425 C 799.904 292.425 799.404 288.878 796.86 286.316 C 794.315 283.754 787.643 268.04 785.889 256.797 C 784.137 245.553 772.262 238.28 768.748 238.056 C 765.235 237.831 756.631 242.301 756.631 242.301 L 754.103 243.385 Z " fill="rgb(48,60,96)"/><path d=" M 780.284 299.655 C 780.044 299.655 779.802 299.626 779.555 299.567 C 776.6 298.864 775.168 295.392 775.046 288.641 C 774.941 282.854 775.797 275.428 776.702 267.565 C 777.069 264.388 777.447 261.103 777.76 257.922 C 777.785 257.65 778.001 257.454 778.247 257.484 C 778.49 257.514 778.666 257.758 778.639 258.03 C 778.327 261.22 777.947 264.51 777.581 267.691 C 775.828 282.905 774.172 297.274 779.739 298.599 C 779.911 298.64 780.084 298.66 780.257 298.66 C 783.454 298.661 786.333 291.694 788.01 284.909 C 788.076 284.646 788.319 284.491 788.556 284.564 C 788.792 284.637 788.93 284.91 788.864 285.173 C 787.756 289.651 784.777 299.653 780.284 299.655 Z " fill="rgb(48,60,96)"/><path d=" M 779.101 303.59 C 778.094 303.591 777.216 303.155 776.484 302.29 C 770.453 295.162 776.416 259.403 776.673 257.884 C 776.718 257.615 776.951 257.439 777.191 257.49 C 777.431 257.54 777.589 257.799 777.543 258.068 C 777.481 258.435 771.406 294.847 777.127 301.609 C 777.792 302.395 778.581 302.709 779.535 302.568 C 782.667 302.105 784.473 297.355 786.069 293.164 C 787.616 289.098 789.072 285.258 791.663 285.359 C 791.909 285.369 792.1 285.598 792.091 285.871 C 792.083 286.145 791.878 286.364 791.633 286.349 C 791.611 286.348 791.591 286.347 791.569 286.347 C 789.626 286.347 788.294 289.848 786.883 293.551 C 785.197 297.986 783.283 303.013 779.65 303.549 C 779.464 303.577 779.281 303.59 779.101 303.59 Z " fill="rgb(48,60,96)"/><path d=" M 777.765 261.229 C 776.518 263.025 774.564 263.663 773.401 262.654 C 772.238 261.645 772.307 259.371 773.554 257.575 C 774.799 255.778 776.753 255.14 777.916 256.149 C 779.079 257.158 779.012 259.432 777.765 261.229 Z " fill="rgb(240,153,89)"/><path d=" M 640.313 323.933 C 644.631 333.589 641.056 344.708 632.561 348.636 C 624.012 352.59 614.663 350.345 610.344 340.689 C 606.026 331.035 609.232 319.456 617.509 314.829 C 625.784 310.202 635.993 314.279 640.313 323.933 Z " fill="rgb(48,60,96)"/><path d=" M 617.031 349.796 C 616.078 349.796 614.199 349.42 611.811 347.049 C 609.85 345.106 608.443 342.125 607.849 338.657 C 607.096 334.278 607.587 329.246 609.303 323.697 C 609.383 323.439 609.634 323.303 609.866 323.392 C 610.097 323.482 610.219 323.762 610.139 324.02 C 608.474 329.403 607.996 334.263 608.718 338.47 C 609.277 341.725 610.584 344.509 612.398 346.309 C 615.428 349.314 617.458 348.768 617.48 348.762 C 617.714 348.693 617.958 348.847 618.021 349.109 C 618.085 349.371 617.95 349.642 617.716 349.715 C 617.687 349.725 617.447 349.796 617.031 349.796 Z " fill="rgb(48,60,96)"/><path d=" M 630.239 361.506 C 635.155 362.738 641.36 378.008 644.399 387.792 C 647.463 397.66 652.659 409.901 656.062 413.702 C 659.462 417.506 681.817 426.323 681.817 426.323 C 681.817 426.323 626.585 426.443 627.716 426.321 C 628.848 426.199 630.239 361.506 630.239 361.506 Z " fill="rgb(168,206,255)"/><path d=" M 659.56 421.418 C 656.538 420.934 645.629 422.505 650.273 420.331 C 654.917 418.159 654.27 415.381 654.27 415.381 C 654.27 415.381 647.681 421.538 646.494 416.153 C 645.469 411.512 645.077 395.12 641.189 378.689 C 637.977 370.543 633.774 362.392 630.239 361.506 C 630.239 361.506 630.115 367.292 629.91 375.403 C 631.265 393.352 633.568 419.723 634.152 426.372 C 641.473 426.384 653.724 426.372 663.975 426.356 L 670.792 425.992 C 670.792 425.992 662.585 421.902 659.56 421.418 Z " fill="rgb(147,187,240)"/><path d=" M 612.167 358.123 C 612.167 358.123 596.531 367.889 592.887 369.968 C 589.243 372.044 603.098 433.015 606.18 435.628 C 609.261 438.241 636.391 436.077 639.479 432.785 C 642.568 429.493 637.109 419.39 639.782 399.161 C 642.454 378.931 631.629 361.468 630.239 361.506 C 628.848 361.545 619.772 358.123 619.772 358.123 L 612.167 358.123 Z " fill="rgb(168,206,255)"/><path d=" M 606.18 435.628 C 609.261 438.241 628.674 438.298 636.938 435.425 C 637.87 435.099 642.105 433.214 642.203 431.44 C 641.207 431.23 637.247 431.763 635.64 431.348 C 630.051 429.914 626.972 422.174 626.972 422.174 C 626.972 422.174 623.895 420.934 617.011 417.675 C 610.126 414.416 612.961 404.544 612.8 400.198 C 612.636 395.851 605.995 381.633 593.521 370.858 L 592.378 371.431 C 591.488 381.339 603.329 433.21 606.18 435.628 Z " fill="rgb(147,187,240)"/><path d=" M 713.6 387.792 L 675.952 387.792 L 658.804 428.587 L 700.276 428.587 L 715.797 391.659 C 716.553 389.859 715.379 387.792 713.6 387.792 Z " fill="rgb(117,161,222)"/><path d=" M 661.049 429.166 L 638.394 429.166 C 636.989 429.166 635.849 427.892 635.849 426.321 C 635.849 424.75 636.989 423.476 638.394 423.476 L 659.426 423.476 L 673.644 389.264 C 674.237 387.837 675.751 387.219 677.025 387.882 C 678.299 388.544 678.851 390.235 678.259 391.659 L 663.355 427.52 C 662.939 428.524 662.039 429.166 661.049 429.166 Z " fill="rgb(62,107,171)"/><path d=" M 621.762 420.453 C 631.591 422.505 634.006 425.027 639.364 425.992 C 645.436 427.087 644.715 428.587 640.204 428.587 C 635.695 428.587 624.359 428.784 620.469 427.817 C 616.578 426.852 621.762 420.453 621.762 420.453 Z " fill="rgb(240,153,89)"/><path d=" M 591.658 371.112 C 584.127 398.036 573.449 428.587 575.15 428.587 C 576.851 428.587 620.101 430.542 621.802 428.914 C 623.503 427.286 623.016 421.038 622.774 420.223 C 622.531 419.408 598.185 414.578 598.185 414.578 C 598.185 414.578 601.391 407.592 602.607 393.941 C 603.821 380.29 593.087 366.005 591.658 371.112 Z " fill="rgb(168,206,255)"/><path d=" M 617.894 334.727 L 611.827 359.515 C 611.827 359.515 622.078 377.407 624.897 375.818 C 627.716 374.227 623.321 361.275 623.321 359.515 C 623.321 357.755 627.716 339.593 627.716 339.593 L 617.894 334.727 Z " fill="rgb(240,153,89)"/><path d=" M 623.532 360.779 C 623.401 360.192 623.321 359.751 623.321 359.515 C 623.321 357.755 627.716 339.593 627.716 339.593 L 617.894 334.727 L 615.886 342.93 C 617.64 351.403 620.804 357.046 623.532 360.779 Z " fill="rgb(227,133,64)"/><path d=" M 640.596 334.316 C 641.752 341.503 640.991 351.052 635.282 353.478 C 629.572 355.906 622.696 351.261 619.921 343.107 C 617.147 334.95 619.526 326.371 625.237 323.943 C 630.946 321.517 639.215 325.729 640.596 334.316 Z " fill="rgb(240,153,89)"/><path d=" M 621.275 338.362 C 622.074 340.874 621.38 343.446 619.722 344.106 C 618.065 344.765 616.071 343.263 615.271 340.75 C 614.472 338.238 615.166 335.666 616.824 335.005 C 618.481 334.347 620.475 335.848 621.275 338.362 Z " fill="rgb(240,153,89)"/><path d=" M 640.664 325.286 C 638.719 342.154 620.39 339.979 620.39 339.979 C 620.39 339.979 616.609 334.424 614.908 337.338 C 613.207 340.252 617.267 320.237 627.785 319.607 C 631.242 319.399 640.664 325.286 640.664 325.286 Z " fill="rgb(48,60,96)"/><path d=" M 622.033 318.154 C 622.033 323.906 617.587 328.568 612.104 328.568 C 606.622 328.568 602.176 323.906 602.176 318.154 C 602.176 312.403 606.622 307.74 612.104 307.74 C 617.587 307.74 622.033 312.403 622.033 318.154 Z " fill="rgb(48,60,96)"/><path d=" M 592.329 551.151 L 594.599 551.151 L 609.259 475.213 L 604.265 475.213 L 592.329 551.151 Z " fill="rgb(46,91,154)"/><path d=" M 662.912 551.151 L 660.642 551.151 L 643.581 472.529 L 648.575 472.529 L 662.912 551.151 Z " fill="rgb(46,91,154)"/><path d=" M 618.232 478.058 C 609.137 478.058 603.376 476.233 599.699 472.228 C 595.143 467.264 594.199 459.575 594.185 449.557 C 594.174 441.673 594.007 436.538 593.625 432.387 C 593.481 430.824 594.497 429.426 595.895 429.266 C 597.293 429.105 598.543 430.241 598.687 431.804 C 599.087 436.156 599.263 441.462 599.274 449.547 C 599.288 459.701 600.441 465.092 603.25 468.152 C 606.135 471.293 611.347 472.588 620.15 472.342 C 628.65 472.106 634.502 470.777 639.202 469.708 C 645.387 468.304 649.855 467.288 655.153 470.119 C 656.421 470.798 656.958 472.494 656.352 473.913 C 655.745 475.331 654.226 475.93 652.959 475.252 C 649.199 473.244 646.007 473.97 640.217 475.284 C 635.318 476.398 629.224 477.782 620.275 478.029 C 619.577 478.048 618.896 478.058 618.232 478.058 Z " fill="rgb(46,91,154)"/><path d=" M 597.571 428.914 L 611.493 429.562 L 607.787 472.531 C 607.787 472.531 597.409 465.126 597.571 457.157 C 597.734 449.189 597.571 428.914 597.571 428.914 Z " fill="rgb(46,91,154)"/><path d=" M 666.29 432.917 C 678.061 430.92 682.061 431.55 689.265 446.54 C 696.468 461.528 706.057 488.515 711.572 492.002 C 719.876 497.25 722.628 510.119 726.037 509.542 C 729.447 508.963 731.642 510.647 727.931 514.095 C 724.221 517.542 718.229 520.478 716.181 519.866 C 714.133 519.255 712.542 509.357 707.191 506.144 C 701.841 502.93 703.449 500.29 703.8 497.447 C 704.151 494.605 688.18 481.518 676.14 465.242 C 668.784 455.295 664.995 448.732 664.433 442.782 C 663.871 436.833 666.29 432.917 666.29 432.917 Z " fill="rgb(240,153,89)"/><path d=" M 695.47 487.269 C 692.737 479.515 689.994 466.717 687.417 454.985 C 683.751 438.298 679.909 434.337 677.475 432.557 C 674.533 431.732 671.047 432.11 666.29 432.917 C 666.29 432.917 663.871 436.833 664.433 442.782 C 664.995 448.732 668.784 455.295 676.14 465.242 C 682.479 473.811 689.907 481.496 695.47 487.269 Z " fill="rgb(227,133,64)"/><path d=" M 669.875 446.109 C 669.875 446.109 666.743 472.529 663.826 475.215 C 661.741 477.135 660.264 477.263 658.804 469.383 C 657.347 461.503 661.072 432.094 661.072 432.094 L 669.875 446.109 Z " fill="rgb(46,91,154)"/><path d=" M 667.379 460.406 L 638.394 465.852 L 654.758 439.617 L 667.212 436.782 L 674.68 438.702 L 667.379 460.406 Z " fill="rgb(240,153,89)"/><path d=" M 703.8 497.447 C 702.86 501.682 702.973 504.811 704.607 506.38 C 706.239 507.947 712.408 519.602 712.408 519.602 L 714.331 519.275 L 709.88 508.611 L 703.8 497.447 Z " fill="rgb(46,91,154)"/><path d=" M 716.181 519.866 C 718.229 520.478 724.221 517.542 727.931 514.095 C 731.642 510.647 729.447 508.963 726.037 509.542 C 725.846 509.574 725.655 509.56 725.466 509.509 C 723.763 513.762 718.162 516.952 716.355 512.46 C 714.563 508.008 706.89 499.146 703.798 497.25 C 703.805 497.319 703.807 497.386 703.8 497.447 C 703.449 500.29 701.841 502.93 707.191 506.144 C 712.542 509.357 714.133 519.255 716.181 519.866 Z " fill="rgb(46,91,154)"/><path d=" M 607.129 433.976 C 596.846 454.609 603.87 467.721 616.369 469.058 C 628.868 470.393 648.599 467.843 660.1 457.157 C 671.603 446.473 681.043 435.173 679.725 433.488 C 678.406 431.801 607.129 433.976 607.129 433.976 Z " fill="rgb(227,133,64)"/><path d=" M 665.447 449.37 C 667.552 442.307 669.98 436.888 674.68 436.788 C 679.622 436.686 682.663 439.56 682.873 448.598 C 683.124 459.362 683.464 495.007 683.019 510.856 C 682.683 522.855 685.81 526.696 685.545 539.203 C 685.347 548.623 694.329 543.864 690.859 548.751 C 688.473 552.11 681.37 551.011 677.008 550.391 C 673.121 549.838 679.02 536.813 673.64 533.33 C 669.024 530.343 668.933 525.491 671.848 521.819 C 674.764 518.145 672.172 507.28 670.229 499.672 C 668.284 492.067 665.269 483.837 663.29 465.852 C 662.725 460.723 664.16 453.684 665.447 449.37 Z " fill="rgb(240,153,89)"/><path d=" M 687.786 544.905 C 686.298 545.413 684.462 545.973 682.864 546.032 C 679.624 546.152 678.651 542.168 678.437 536.756 C 678.248 532.03 675.178 524.587 672.028 521.569 C 671.97 521.654 671.912 521.74 671.848 521.819 C 668.933 525.491 669.024 530.343 673.64 533.33 C 679.02 536.813 673.121 549.838 677.008 550.391 C 681.37 551.011 688.473 552.11 690.859 548.751 C 693.115 545.575 690.316 545.323 687.786 544.905 Z " fill="rgb(46,91,154)"/><path d=" M 672.577 520.472 C 672.577 520.472 667.852 525.989 668.284 528.283 C 668.717 530.577 670.173 536.372 670.416 540.841 C 670.66 545.307 670.876 550.436 670.876 550.436 C 670.876 550.436 672.577 550.436 672.712 549.895 C 672.848 549.357 673.793 531.737 673.793 531.737 L 672.577 520.472 Z " fill="rgb(46,91,154)"/><path d=" M 602.176 432.094 C 602.176 432.094 596.077 461.036 603.783 469.058 C 611.489 477.081 643.492 469.865 651.029 469.383 C 656.132 469.058 661.072 476.022 661.072 476.022 C 661.072 476.022 657.508 459.874 659.938 446.834 C 662.368 433.795 666.29 432.917 666.29 432.917 L 661.072 432.094 L 602.176 432.094 Z " fill="rgb(117,161,222)"/><path d=" M 600.795 424.527 C 603.403 430.714 597.987 441.401 599.884 444.479 C 601.784 447.558 612.651 444.91 619.772 438.503 C 626.893 432.094 640.369 430.686 640.369 430.686 L 600.795 424.527 Z " fill="rgb(168,206,255)"/><path d=" M 611.827 477.261 C 633.372 478.166 656.051 477.739 656.051 474.148 C 656.051 470.56 655.078 468.024 638.394 469.473 C 621.709 470.922 610.37 472.915 605.348 471.647 C 600.326 470.379 611.827 477.261 611.827 477.261 Z " fill="rgb(46,91,154)"/><path d=" M 841.585 435.144 L 538.022 435.144 C 536.726 435.144 535.676 433.97 535.676 432.521 L 535.676 431.21 C 535.676 429.761 536.726 428.587 538.022 428.587 L 841.585 428.587 C 842.881 428.587 843.931 429.761 843.931 431.21 L 843.931 432.521 C 843.931 433.97 842.881 435.144 841.585 435.144 Z " fill="rgb(46,91,154)"/><path d=" M 881.92 340.703 C 884.007 348.93 878.909 357.408 873.293 359.19 C 867.679 360.97 863.671 355.38 861.583 347.152 C 859.496 338.925 862.357 330.813 867.971 329.031 C 873.587 327.251 879.832 332.475 881.92 340.703 Z " fill="rgb(240,153,89)"/><path d=" M 850.434 500.123 C 850.434 500.123 864.827 525.117 866.77 526.202 C 868.715 527.289 873.575 527.562 871.752 531.636 C 869.929 535.71 869.2 551.738 867.499 552.553 C 865.799 553.368 851.219 555.27 853.406 552.553 C 855.594 549.836 856.939 551.196 858.042 546.305 C 859.145 541.416 860.696 532.178 858.631 530.278 C 856.565 528.376 843.931 511.261 843.931 511.261 L 850.434 500.123 Z " fill="rgb(240,153,89)"/><path d=" M 777.996 510.856 C 777.996 510.856 760.501 543.094 757.26 545.992 C 754.021 548.889 743.329 553.238 752.076 553.961 C 760.824 554.687 765.037 550.702 770.544 548.889 C 776.051 547.079 782.856 545.992 780.264 541.284 C 777.672 536.575 778.748 526.296 784.335 519.775 C 789.924 513.254 777.996 510.856 777.996 510.856 Z " fill="rgb(240,153,89)"/><path d=" M 867.277 436.101 C 867.277 436.101 823.968 434.835 806.796 450.589 C 796.752 467.615 772.454 517.847 770.566 523.382 C 771.862 524.831 779.152 527.446 782.392 527.082 C 791.951 514.341 804.582 503.326 809.608 493.332 C 815.798 481.017 817.706 474.86 827.75 473.772 C 837.793 472.685 860.472 469.064 867.277 469.064 C 874.08 469.064 867.277 436.101 867.277 436.101 Z " fill="rgb(103,145,201)"/><path d=" M 905.045 554.049 L 902.774 554.049 L 886.495 478.111 L 891.49 478.111 L 905.045 554.049 Z " fill="rgb(46,91,154)"/><path d=" M 837.037 554.049 L 839.309 554.049 L 857.989 475.426 L 852.995 475.426 L 837.037 554.049 Z " fill="rgb(46,91,154)"/><path d=" M 891.949 432.785 L 866.77 437.643 C 866.77 437.643 833.31 437.987 818.015 441.173 C 804.099 444.071 802.049 461.747 818.015 486.088 C 827.085 499.916 834.753 510.946 850.434 523.382 C 854.424 520.108 855.948 518.869 857.052 510.991 C 855.916 509.251 852.979 498.362 852.066 496.23 C 843.393 475.959 831.816 468.587 831.656 466.593 C 833.599 463.062 883.145 485.001 892.996 472.096 C 902.402 459.774 891.949 432.785 891.949 432.785 Z " fill="rgb(117,161,222)"/><path d=" M 892.996 369.053 C 886.364 368.011 879.61 369.421 873.293 374.534 C 867.773 380.825 861.528 391.198 861.912 408.31 C 862.397 430.042 858.904 431.438 862.548 437.414 C 877.749 444.432 903.747 474.585 897.626 442.258 C 893.191 418.852 907.347 401.405 895.928 375.44 C 894.997 373.327 893.836 371.276 892.996 369.053 Z " fill="rgb(243,113,104)"/><path d=" M 861.906 416.488 C 861.612 427.819 860.18 431.155 861.274 434.707 C 867.471 435.414 878.807 438.188 881.641 442.622 C 884.879 447.692 888.12 448.417 886.608 444.674 C 885.096 440.931 881.101 435.618 887.257 417.386 C 893.411 399.155 896.328 386.839 890.279 374.162 L 861.906 416.488 Z " fill="rgb(213,74,65)"/><path d=" M 892.996 369.053 C 888.912 358.245 887.909 346.102 887.909 346.102 L 877.219 349.634 C 877.219 349.634 883.293 364.845 877.462 370.279 C 876.223 371.433 874.783 372.835 873.293 374.534 C 879.61 369.421 886.364 368.011 892.996 369.053 Z " fill="rgb(240,153,89)"/><path d=" M 888.231 348.979 C 887.598 348.349 886.806 347.563 885.974 346.74 L 877.253 349.621 L 877.235 349.674 C 877.446 350.213 879.667 356.008 879.959 361.582 C 882.558 359.818 885.403 356.945 888.656 351.924 C 888.48 350.81 888.34 349.816 888.231 348.979 Z " fill="rgb(227,133,64)"/><path d=" M 885.479 372.451 C 874.469 376.757 875.69 389.727 865.556 408.854 C 860.31 418.752 855.44 418.604 855.44 418.604 C 855.44 418.604 843.14 418.715 828.262 416.681 C 818.946 415.407 818.355 418.508 824.835 421.099 C 837.902 426.321 851.463 431.944 862.397 430.586 C 873.331 429.227 892.031 398.038 892.996 389.918 C 894.33 378.689 891.024 370.283 885.479 372.451 Z " fill="rgb(240,153,89)"/><path d=" M 879.812 480.958 C 879.129 480.958 878.429 480.947 877.711 480.927 C 868.762 480.679 862.668 479.295 857.77 478.182 C 851.979 476.867 848.787 476.142 845.027 478.151 C 843.76 478.828 842.241 478.229 841.636 476.81 C 841.029 475.392 841.565 473.695 842.833 473.017 C 848.131 470.186 852.601 471.202 858.784 472.606 C 863.486 473.675 869.336 475.004 877.837 475.24 C 887.409 475.504 893.265 473.898 896.257 470.19 C 898.929 466.878 899.716 461.357 898.732 452.812 C 898.4 449.919 898.067 447.513 897.775 445.392 C 896.949 439.436 896.406 435.5 897.078 429.434 C 897.704 423.779 899.383 416.236 903.269 401.6 C 903.669 400.094 905.086 399.237 906.433 399.684 C 907.78 400.131 908.549 401.714 908.149 403.219 C 900.877 430.597 901.246 433.271 902.804 444.522 C 903.102 446.678 903.44 449.122 903.78 452.087 C 904.966 462.399 903.776 469.363 900.036 474 C 896.181 478.779 889.896 480.958 879.812 480.958 Z " fill="rgb(46,91,154)"/><path d=" M 779.184 538.028 C 767.576 544.374 761.329 548.014 757.607 547.666 C 756.729 547.585 756 547.483 755.39 547.378 C 751.25 550.113 744.641 553.346 752.076 553.961 C 760.824 554.687 765.037 550.702 770.544 548.889 C 776.053 547.079 782.856 545.992 780.264 541.284 C 779.768 540.381 779.406 539.274 779.184 538.028 Z " fill="rgb(213,74,65)"/><path d=" M 868.037 526.732 C 867.751 537.008 866.488 547.191 860.867 549.115 C 859.378 549.625 858.019 549.698 856.817 549.519 C 855.934 550.741 854.854 550.755 853.406 552.553 C 851.219 555.27 865.799 553.368 867.499 552.553 C 869.2 551.738 869.929 535.71 871.752 531.636 C 873.249 528.289 870.236 527.507 868.037 526.732 Z " fill="rgb(213,74,65)"/><path d=" M 823.321 429.166 L 786.442 429.166 C 785.451 429.166 784.552 428.524 784.135 427.52 L 769.232 391.659 C 768.639 390.235 769.192 388.544 770.466 387.882 C 771.742 387.219 773.254 387.837 773.846 389.264 L 788.065 423.476 L 823.321 423.476 C 824.727 423.476 825.865 424.75 825.865 426.321 C 825.865 427.892 824.727 429.166 823.321 429.166 Z " fill="rgb(117,161,222)"/><path d=" M 831.036 417.039 C 823.584 416.919 816.194 411.953 812.523 412.678 C 808.852 413.402 796.863 422.698 798.375 423.062 C 799.888 423.424 809.391 417.917 809.715 417.831 C 810.038 417.748 812.09 421.648 817.167 423.078 C 822.243 424.511 817.203 418.825 832.937 424.139 C 843.168 427.593 831.036 417.039 831.036 417.039 Z " fill="rgb(240,153,89)"/><path d=" M 891.9 359.19 L 892.996 369.053 C 892.996 369.053 883.353 369.693 878.554 372.713 C 873.756 375.73 866.675 384.452 866.675 384.452 L 872.46 373.316 L 873.293 366.192 L 891.9 359.19 Z " fill="rgb(242,229,222)"/><path d=" M 887.796 371.264 C 880.634 369.762 877.32 376.937 872.677 388.65 C 868.033 400.362 860.105 414.586 858.529 416.421 C 856.953 418.254 831.963 416.421 831.963 416.421 C 831.963 416.421 831.207 424.511 831.963 425.476 C 832.717 426.441 837.037 426.321 837.037 426.321 C 837.037 426.321 838.766 427.863 840.385 429.085 C 842.006 430.306 855.721 432.6 862.093 432.238 C 868.464 431.875 874.296 431.271 875.159 430.184 C 876.025 429.099 893.411 399.155 894.492 388.408 C 895.572 377.663 891.451 372.03 887.796 371.264 Z " fill="rgb(242,229,222)"/><path d=" M 866.675 322 C 853.129 322.726 855.254 345.509 855.254 345.509 C 855.254 345.509 858.773 346.724 866.143 345.364 C 865.576 342.92 865.819 336.671 865.819 336.671 C 865.819 336.671 866.675 341.743 867.762 344.822 C 869.322 345.62 871.083 344.911 874.08 344.102 C 875.619 351.34 879.968 354.401 882.946 355.447 C 886.235 356.603 889.718 357.981 893.605 355.809 C 897.493 353.635 895.355 331.419 893.291 326.952 C 890.192 320.245 885.041 314.244 876.132 317.412 C 871.664 319.003 866.675 322 866.675 322 Z " fill="rgb(48,60,96)"/><path d=" M 890.232 349.058 L 895.77 358.103 C 895.77 358.103 889.632 375.249 907.482 383.015 C 921.462 389.099 919.815 399.818 913.498 410.598 C 907.182 421.377 917.278 430.792 917.278 430.792 C 917.278 430.792 918.818 418.85 932.402 416.596 C 950.924 413.524 956.167 385.722 942.334 371.821 C 930.886 360.318 927.403 369.844 919.654 359.521 C 911.906 349.199 897.278 356.17 897.278 356.17 L 891.917 347.429 L 890.232 349.058 Z " fill="rgb(48,60,96)"/><path d=" M 948.705 399.771 C 948.634 399.771 948.561 399.751 948.492 399.71 C 948.277 399.578 948.199 399.277 948.317 399.038 C 952.985 389.499 949.175 377.943 947.26 374.814 C 947.058 374.483 946.865 374.148 946.662 373.794 C 944.779 370.506 942.436 366.416 929.944 363.902 C 926.951 363.301 924.525 361.307 921.955 359.198 C 916.626 354.825 910.584 349.869 897.462 356.62 C 897.24 356.735 896.977 356.626 896.875 356.378 C 896.773 356.13 896.869 355.835 897.093 355.721 C 910.69 348.725 916.953 353.866 922.478 358.402 C 924.963 360.44 927.311 362.366 930.101 362.929 C 942.972 365.52 945.431 369.811 947.409 373.26 C 947.607 373.607 947.796 373.936 947.99 374.253 C 949.144 376.141 950.571 380.048 951.155 384.525 C 951.662 388.406 951.714 394.159 949.093 399.513 C 949.013 399.678 948.861 399.771 948.705 399.771 Z " fill="rgb(48,60,96)"/><path d=" M 887.273 358.27 C 886.39 358.27 885.434 358.184 884.405 358.011 C 879.683 357.221 873.349 354.22 872.851 337.352 C 872.842 337.078 873.035 336.85 873.278 336.84 C 873.531 336.828 873.727 337.045 873.736 337.32 C 873.942 344.302 875.183 349.469 877.422 352.679 C 879.127 355.122 881.388 356.506 884.536 357.032 C 888.943 357.772 891.868 356.857 893.225 354.315 C 893.351 354.082 893.623 354.004 893.832 354.145 C 894.043 354.285 894.11 354.59 893.985 354.823 C 892.76 357.115 890.508 358.27 887.273 358.27 Z " fill="rgb(48,60,96)"/><path d=" M 464.523 370.238 C 448.801 380.29 426.933 422.07 431.549 428.89 C 436.166 435.707 460.95 417.779 460.95 417.779 L 464.523 370.238 Z " fill="rgb(150,207,224)"/><path d=" M 493.896 321.787 C 487.892 321.604 490.12 316.616 483.216 318.607 C 479.587 319.655 482.266 321.324 477.551 320.781 C 472.836 320.237 470.515 319.694 469.921 323.134 C 469.327 326.576 469.039 327.664 466.771 328.206 C 464.503 328.749 463.479 333.278 466.771 336.356 C 470.064 339.435 468.463 340.703 467.734 343.239 C 467.005 345.775 469.49 345.956 470.839 348.309 C 472.189 350.664 469.597 351.109 471.541 353.151 C 473.485 355.191 476.211 355.01 476.211 355.01 L 484.395 337.468 L 493.896 321.787 Z " fill="rgb(48,60,96)"/><path d=" M 616.209 532.345 C 616.209 532.345 624.957 532.617 631.76 529.628 C 638.563 526.639 643.179 522.022 641.965 527.454 C 640.751 532.887 635.162 542.208 630.302 543.116 C 625.442 544.025 623.741 550.003 621.069 550.003 C 618.396 550.003 614.508 543.116 607.705 539.676 C 601.504 536.541 616.209 532.345 616.209 532.345 Z " fill="rgb(46,91,154)"/><path d=" M 547.275 531.428 C 547.275 531.428 550.956 537.1 557.357 541.046 C 563.969 545.12 571.599 547.081 566.868 548.924 C 562.139 550.767 555.221 552.2 548.476 550.009 C 543.744 548.473 538.197 548.152 536.732 545.652 C 535.267 543.153 538.457 536.876 537.13 527.496 C 536.067 519.98 547.275 531.428 547.275 531.428 Z " fill="rgb(46,91,154)"/><path d=" M 506.316 440.261 C 506.316 440.261 556.986 461.473 561.07 467.404 C 565.152 473.334 618.414 527.352 618.414 531.335 C 618.414 535.32 609.343 542.566 609.343 542.566 C 609.343 542.566 563.662 511.232 552.322 495.295 C 540.981 479.356 513.306 471.673 498.594 470.198 C 483.881 468.721 506.316 440.261 506.316 440.261 Z " fill="rgb(62,107,171)"/><path d=" M 508.259 440.261 C 508.259 440.261 542.926 438.812 550.378 440.261 C 557.829 441.71 574.174 441.693 563.484 475.426 C 555.103 501.867 552.339 535.342 552.339 535.342 L 535.676 539.918 C 535.676 539.918 536.337 479.724 544.287 463.698 C 538.498 464.765 527.871 466.845 513.142 471.556 C 485.82 480.291 470.839 475.916 470.839 475.916 L 466.771 459.977 L 508.259 440.261 Z " fill="rgb(68,118,189)"/><path d=" M 479.31 340.193 L 470.839 368.173 L 481.541 376.052 L 487.605 351.875 L 479.31 340.193 Z " fill="rgb(168,107,72)"/><path d=" M 482.498 372.235 L 487.605 351.875 L 479.31 340.193 L 476.211 350.428 C 477.281 359.672 479.864 367.318 482.498 372.235 Z " fill="rgb(122,78,52)"/><path d=" M 500.917 344.929 C 501.191 353.439 497.452 360.805 491.509 361.46 C 485.567 362.116 480.143 355.776 479.396 347.301 C 478.648 338.827 482.86 331.427 488.803 330.77 C 494.746 330.116 500.483 331.5 500.917 344.929 Z " fill="rgb(168,107,72)"/><path d=" M 466.771 367.359 C 440.771 386.99 456.942 418.713 462.652 441.896 C 467.515 461.641 467.356 473.575 468.085 473.575 C 468.814 473.575 486.695 470.586 496.901 460.264 C 507.107 449.941 514.006 439.942 514.006 439.942 C 514.006 439.942 500.931 437.339 496.658 418.429 C 494.488 408.83 495.475 403.618 490.529 388.404 C 485.584 373.193 466.771 367.359 466.771 367.359 Z " fill="rgb(162,223,242)"/><path d=" M 466.771 367.359 L 469.556 359.741 C 469.556 359.741 478.385 366.261 481.908 369.34 C 485.431 372.418 487.605 373.144 487.605 373.144 C 487.605 373.144 488.878 384.064 488.051 383.072 C 477.631 370.585 466.771 367.359 466.771 367.359 Z " fill="rgb(162,223,242)"/><path d=" M 455.248 554.049 L 457.518 554.049 L 473.798 478.111 L 468.803 478.111 L 455.248 554.049 Z " fill="rgb(46,91,154)"/><path d=" M 523.253 554.049 L 520.983 554.049 L 502.303 475.426 L 507.297 475.426 L 523.253 554.049 Z " fill="rgb(46,91,154)"/><path d=" M 480.538 480.956 C 471.444 480.956 465.682 479.131 462.006 475.126 C 457.448 470.162 456.505 462.472 456.491 452.455 C 456.462 431.393 455.421 427.038 450.117 414.178 C 449.529 412.751 450.086 411.061 451.363 410.402 C 452.639 409.746 454.151 410.368 454.739 411.796 C 460.344 425.391 461.55 430.387 461.58 452.447 C 461.594 462.598 462.746 467.989 465.557 471.05 C 468.44 474.191 473.652 475.485 482.456 475.24 C 490.956 475.004 496.807 473.675 501.509 472.606 C 507.692 471.202 512.161 470.186 517.459 473.017 C 518.728 473.695 519.264 475.392 518.657 476.81 C 518.052 478.229 516.532 478.828 515.265 478.151 C 511.505 476.142 508.313 476.867 502.522 478.182 C 497.625 479.295 491.53 480.679 482.581 480.927 C 481.883 480.947 481.201 480.956 480.538 480.956 Z " fill="rgb(46,91,154)"/><path d=" M 592.883 428.837 L 556.003 428.837 C 554.598 428.837 553.458 427.565 553.458 425.992 C 553.458 424.421 554.598 423.147 556.003 423.147 L 591.259 423.147 L 605.479 388.934 C 606.071 387.51 607.583 386.89 608.857 387.553 C 610.133 388.215 610.686 389.906 610.093 391.332 L 595.19 427.191 C 594.774 428.195 593.872 428.837 592.883 428.837 Z " fill="rgb(62,107,171)"/><path d=" M 467.734 395.941 C 467.734 395.941 474.214 418.037 482.232 427.183 C 490.251 436.329 506.389 439.403 511.441 439.044 C 507.414 437.233 499.742 432.08 496.658 418.429 C 494.488 408.83 495.475 403.618 490.529 388.404 C 486.859 377.112 475.548 370.988 469.961 368.582 C 476.934 374.182 485.652 383.401 488.331 390.418 C 491.304 398.206 467.734 395.941 467.734 395.941 Z " fill="rgb(150,207,224)"/><path d=" M 557.17 415.332 C 557.17 415.332 568.345 409.628 569.561 410.171 C 570.775 410.715 583.167 419.081 583.167 420.467 C 583.167 421.853 572.233 415.302 572.233 415.302 C 572.233 415.302 573.449 418.923 572.72 420.66 C 571.991 422.395 563.585 422.395 556.003 421.853 C 548.422 421.31 557.17 415.332 557.17 415.332 Z " fill="rgb(168,107,72)"/><path d=" M 468.091 378.87 C 457.788 402.48 493.131 426.413 514.098 428.54 C 535.067 430.67 559.978 422.997 559.978 422.997 L 557.17 415.332 C 557.17 415.332 515.162 409.204 514.098 408.344 C 513.035 407.487 471.865 370.224 468.091 378.87 Z " fill="rgb(162,223,242)"/><path d=" M 481.487 340.989 C 482.442 343.798 481.742 346.699 479.923 347.473 C 478.105 348.248 475.856 346.598 474.901 343.789 C 473.946 340.981 474.646 338.08 476.465 337.305 C 478.284 336.533 480.532 338.181 481.487 340.989 Z " fill="rgb(168,107,72)"/><path d=" M 500.931 323.014 C 503.777 321.685 506.983 320.263 505.991 325.67 C 505.56 328.025 505.991 327.361 506.747 329.535 C 507.503 331.707 504.842 333.414 503.979 334.621 C 503.113 335.828 505.236 337.141 503.508 338.59 C 501.78 340.038 499.502 338.053 497.892 338.59 C 493.086 340.193 493.68 335.966 490.98 335.088 C 488.28 334.209 486.957 334.345 486.444 336.277 C 485.932 338.21 488.334 344.566 486.282 343.962 C 484.23 343.359 483.768 348.489 483.216 351.389 C 482.664 354.287 481.257 349.388 481.348 346.073 C 481.487 340.989 480.358 338.854 478.683 337.431 C 477.008 336.009 476.295 323.075 484.395 322.592 C 492.495 322.108 492.546 321.234 496.002 320.417 C 499.458 319.601 499.633 323.62 500.931 323.014 Z " fill="rgb(48,60,96)"/><path d=" M 955.033 470.716 C 960.197 475.987 957.952 481.26 954.133 491.051 C 950.317 500.841 949.642 536.992 949.642 536.992 L 952.787 536.49 C 952.787 536.49 952.338 499.335 956.603 489.293 C 960.871 479.251 962.667 474.232 966.483 477.495 C 970.302 480.758 955.033 470.716 955.033 470.716 Z " fill="rgb(116,181,112)"/><path d=" M 952.196 463.891 C 952.823 460.766 956.547 457.386 961.527 454.517 C 960.787 459.126 958.414 466.66 960.871 468.207 C 964.184 470.29 961.193 459.77 962.472 453.989 C 967.149 451.435 972.775 449.348 977.957 448.309 C 977.948 448.332 977.943 448.352 977.935 448.374 C 975.016 456.659 971.2 459.922 972.772 461.176 C 973.953 462.121 977.805 452.552 982.892 447.647 C 986.708 447.419 989.938 447.997 991.848 449.689 C 994.802 452.302 996.785 454.621 993.815 462.58 C 992.117 463.936 989.92 464.907 987.366 465.193 C 980.631 465.947 977.486 466.197 982.201 468.709 C 984.511 469.938 988.381 468.64 991.519 467.847 C 990.502 469.944 989.249 472.318 987.73 475.022 C 986.765 476.737 985.702 478.225 984.573 479.513 C 982.403 479.978 980.509 479.982 979.508 479.503 C 976.363 477.997 968.281 473.226 966.26 475.235 C 964.282 477.2 981.231 478.446 980.056 483.441 C 971.839 488.732 962.439 486.214 960.778 481.356 C 958.546 474.831 950.308 473.295 952.196 463.891 Z " fill="rgb(156,212,153)"/><path d=" M 969.179 499.587 C 960.197 492.054 950.991 499.083 946.275 507.118 C 941.56 515.15 944.928 533.225 944.928 533.225 C 944.928 533.225 946.723 533.225 946.723 532.473 C 946.723 531.719 941.783 511.135 953.461 501.845 C 960.765 496.035 966.034 498.833 966.709 501.595 C 967.381 504.356 963.79 509.377 963.79 509.377 L 969.179 499.587 Z " fill="rgb(116,181,112)"/><path d=" M 948.521 484.105 C 957.503 484.105 960.422 499.67 957.952 508.707 C 955.482 517.745 952.112 534.564 952.112 534.564 L 949.868 532.054 C 949.868 532.054 958.401 508.457 956.38 497.913 C 954.359 487.369 949.419 485.611 948.521 485.611 C 947.623 485.611 948.521 484.105 948.521 484.105 Z " fill="rgb(156,212,153)"/><path d=" M 956.054 508.778 C 956.685 507.841 957.467 507.069 958.417 506.555 C 958.294 507.305 958.137 508.024 957.952 508.707 C 956.825 512.825 955.515 518.558 954.419 523.579 C 954.321 522.937 954.166 521.945 953.93 520.417 C 953.873 520.055 953.83 519.663 953.799 519.249 C 954.679 515.904 955.511 512.259 956.054 508.778 Z " fill="rgb(116,181,112)"/><path d=" M 958.51 508.853 C 975.574 500.818 966.583 489.795 981.629 497.075 C 982.688 497.587 983.979 498.882 985.273 500.664 C 983.931 501.089 982.31 501.395 980.505 501.093 C 976.014 500.339 977.586 504.356 984.996 505.36 C 986.392 505.549 987.526 505.811 988.468 506.179 C 991.999 513.76 993.59 523.733 986.12 527.2 C 984.647 527.885 982.828 528.275 980.802 528.421 C 978.497 526.373 981.365 514.518 977.81 516.154 C 974.399 517.727 978.88 526.316 978.266 528.48 C 974.898 528.413 971.169 527.797 967.607 526.81 C 966.196 525.926 965.118 524.741 964.788 523.185 C 963.664 517.912 971.074 514.648 971.3 510.129 C 971.505 505.976 968.583 519.269 960.842 521.226 C 953.841 517.57 950.533 512.608 958.51 508.853 Z " fill="rgb(156,212,153)"/><path d=" M 946.349 494.649 C 948.147 490.382 943.43 489.376 943.656 492.64 C 943.854 495.533 943.877 502.562 941.224 504.476 C 936.649 503.921 930.424 501.861 925.719 498.719 C 925.659 498.295 925.717 497.858 925.917 497.411 C 927.938 492.892 940.96 489.126 936.92 487.621 C 933.701 486.42 928.06 493.501 923.514 497.067 C 920.784 494.751 918.956 491.991 918.956 488.911 C 918.956 484.739 923.489 480.019 929.35 477.761 C 931.989 478.06 934.439 479.671 938.267 482.098 C 943.921 485.68 942.612 479.887 937.267 476.451 C 941.882 476.717 946.484 478.922 949.877 484.188 C 949.877 484.188 949.557 486.44 951.687 489.923 C 957.501 499.422 950.791 504.968 942.77 504.608 C 943.225 502.105 945.11 497.598 946.349 494.649 Z " fill="rgb(156,212,153)"/><path d=" M 968.639 499.16 C 973.03 502.954 977.906 507.39 983.895 510.401 C 989.884 513.415 988.686 523.233 988.686 523.233 C 988.686 523.233 989.584 514.754 984.593 511.852 C 979.604 508.952 976.311 505.492 972.517 504.823 C 968.726 504.153 966.629 503.484 966.629 503.484 C 966.629 503.484 967.826 500.806 967.129 499.802 C 966.431 498.799 968.639 499.16 968.639 499.16 Z " fill="rgb(116,181,112)"/><path d=" M 990.282 454.613 C 974.215 459.41 962.438 470.903 960.242 473.693 C 958.046 476.481 958.046 477.263 958.046 477.263 L 959.744 480.834 L 960.542 480.387 C 960.542 480.387 959.244 477.375 962.637 473.47 C 968.49 466.734 975.611 461.418 980.502 459.075 C 985.393 456.732 990.282 454.613 990.282 454.613 Z " fill="rgb(116,181,112)"/><path d=" M 945.929 554.049 L 952.069 554.049 C 956.434 554.049 959.973 550.092 959.973 545.211 L 959.973 529.443 L 938.025 529.443 L 938.025 545.211 C 938.025 550.092 941.564 554.049 945.929 554.049 Z " fill="rgb(117,161,222)"/><path d=" M 959.973 533.989 L 938.025 533.989 L 938.025 532.262 L 959.973 532.262 L 959.973 533.989 Z " fill="rgb(255,255,255)"/><path d=" M 959.973 536.427 L 938.025 536.427 L 938.025 535.411 L 959.973 535.411 L 959.973 536.427 Z " fill="rgb(255,255,255)"/><path d=" M 685.572 200.148 C 685.572 181.552 672.196 166.45 655.613 166.213 C 638.953 165.974 625.13 180.973 624.864 199.596 C 624.735 208.687 627.805 216.975 632.896 223.147 C 635.24 225.99 636.542 229.716 636.542 233.584 L 636.542 248.797 C 636.542 258.639 643.744 266.692 652.548 266.692 L 657.885 266.692 C 666.689 266.692 673.891 258.639 673.891 248.797 L 673.891 233.585 C 673.891 229.685 675.236 225.953 677.594 223.079 C 682.548 217.04 685.572 208.989 685.572 200.148 Z " fill="rgb(245,220,149)"/><path d=" M 657.512 259.673 L 652.921 259.673 C 645.347 259.673 639.152 252.745 639.152 244.278 L 639.152 231.19 C 639.152 227.863 638.032 224.658 636.013 222.212 C 631.634 216.902 628.994 209.772 629.104 201.951 C 629.332 186.054 641.04 173.228 655.22 173.228 C 655.333 173.228 655.445 173.229 655.558 173.231 C 669.824 173.435 681.33 186.428 681.33 202.425 C 681.33 210.031 678.729 216.958 674.467 222.153 C 672.439 224.626 671.281 227.836 671.281 231.192 L 671.281 244.278 C 671.281 252.745 665.085 259.673 657.512 259.673 Z " fill="rgb(250,238,202)"/><path d=" M 659.704 239.685 L 649.708 239.685 C 649.237 239.685 648.844 239.285 648.802 238.762 C 648.784 238.544 646.918 216.97 638.29 210.928 C 637.863 210.63 637.736 210.003 638.001 209.528 C 638.268 209.052 638.828 208.908 639.253 209.206 C 647.672 215.099 650.064 233.278 650.524 237.653 L 658.742 237.653 C 658.71 236.152 658.786 233.255 659.56 229.506 C 660.594 224.495 663.13 216.935 669.337 209.38 C 669.676 208.966 670.251 208.939 670.622 209.319 C 670.991 209.698 671.016 210.341 670.676 210.754 C 659.329 224.563 660.593 238.416 660.605 238.554 C 660.634 238.842 660.553 239.13 660.38 239.345 C 660.209 239.561 659.962 239.685 659.704 239.685 Z " fill="rgb(148,189,242)"/><path d=" M 641.46 200.749 C 640.86 200.749 640.342 200.872 639.929 201.146 C 639.037 201.737 638.575 203.156 638.557 205.365 C 638.539 207.708 639.001 209.215 639.929 209.845 C 642.172 211.364 647.41 208.54 652.436 205.575 C 648.374 203.153 644.11 200.749 641.46 200.749 Z  M 656.296 205.581 C 661.285 208.547 666.507 211.386 668.811 209.867 C 669.776 209.232 670.278 207.709 670.305 205.343 C 670.333 203.108 669.9 201.671 669.02 201.073 C 666.792 199.557 661.381 202.565 656.296 205.581 Z  M 667.186 212.318 C 663.811 212.318 659.209 209.637 654.364 206.731 C 648.105 210.459 642.259 213.8 638.988 211.583 C 637.45 210.541 636.714 208.501 636.74 205.347 C 636.763 202.378 637.525 200.376 639.004 199.398 C 642.281 197.228 648.139 200.689 654.368 204.427 C 660.718 200.64 666.699 197.114 669.965 199.337 C 671.432 200.336 672.157 202.365 672.123 205.369 C 672.088 208.494 671.283 210.597 669.735 211.618 C 668.999 212.103 668.141 212.318 667.186 212.318 Z " fill="rgb(148,189,242)"/><path d=" M 658.432 271.52 L 652.616 271.52 C 650.565 271.52 648.89 269.645 648.89 267.354 L 648.89 266.744 C 648.89 264.453 650.565 262.579 652.616 262.579 L 658.432 262.579 C 660.48 262.579 662.157 264.453 662.157 266.744 L 662.157 267.354 C 662.157 269.645 660.48 271.52 658.432 271.52 Z " fill="rgb(148,189,242)"/><path d=" M 635.66 237.856 L 635.66 248.617 C 635.66 258.924 643.203 267.357 652.423 267.357 L 658.01 267.357 C 667.23 267.357 674.773 258.924 674.773 248.617 L 674.773 237.856 L 635.66 237.856 Z " fill="rgb(148,189,242)"/><path d=" M 674.607 241.243 L 636.318 241.243 C 635.119 241.243 634.137 240.145 634.137 238.804 L 634.137 238.533 C 634.137 237.192 635.119 236.095 636.318 236.095 L 674.607 236.095 C 675.807 236.095 676.788 237.192 676.788 238.533 L 676.788 238.804 C 676.788 240.145 675.807 241.243 674.607 241.243 Z " fill="rgb(158,200,255)"/><path d=" M 674.744 245.102 L 636.745 250.35 C 635.555 250.514 634.459 249.56 634.313 248.229 L 634.282 247.96 C 634.135 246.629 634.989 245.405 636.18 245.241 L 674.18 239.993 C 675.371 239.828 676.465 240.783 676.612 242.114 L 676.641 242.383 C 676.788 243.714 675.934 244.938 674.744 245.102 Z " fill="rgb(158,200,255)"/><path d=" M 674.744 252.537 L 636.745 257.785 C 635.555 257.95 634.459 256.995 634.313 255.664 L 634.282 255.395 C 634.135 254.064 634.989 252.841 636.18 252.676 L 674.18 247.428 C 675.371 247.264 676.465 248.218 676.612 249.55 L 676.641 249.818 C 676.788 251.149 675.934 252.373 674.744 252.537 Z " fill="rgb(158,200,255)"/><path d=" M 672.399 260.494 L 640.751 264.865 C 639.659 265.016 638.654 264.14 638.519 262.918 L 638.445 262.251 C 638.31 261.03 639.093 259.907 640.186 259.756 L 671.836 255.385 C 672.928 255.235 673.931 256.111 674.068 257.332 L 674.14 257.999 C 674.275 259.22 673.491 260.343 672.399 260.494 Z " fill="rgb(158,200,255)"/><path d=" M 946.413 270.141 L 966.812 270.141 C 966.812 282.652 957.603 292.947 946.413 292.947 C 935.222 292.947 926.015 282.652 926.015 270.141 C 926.015 257.629 935.222 247.334 946.413 247.334 L 946.413 270.141 Z " fill="rgb(158,200,255)"/><path d=" M 970.229 266.947 C 970.229 254.352 961.096 244.141 949.83 244.141 L 949.83 266.947 L 970.229 266.947 Z " fill="rgb(243,152,146)"/><path d=" M 929.43 266.947 C 929.43 279.543 938.563 289.754 949.83 289.754 C 938.639 289.754 929.43 279.459 929.43 266.947 Z " fill="rgb(243,152,146)"/><path d=" M 949.83 244.141 C 938.563 244.141 929.43 254.352 929.43 266.947 C 929.43 254.436 938.639 244.141 949.83 244.141 Z " fill="rgb(243,152,146)"/><path d=" M 949.83 289.754 C 961.096 289.754 970.229 279.543 970.229 266.947 C 970.229 279.459 961.02 289.754 949.83 289.754 Z " fill="rgb(243,152,146)"/><path d=" M 551.633 269.468 L 547.179 269.468 L 547.179 255.055 L 551.633 255.055 L 551.633 269.468 Z " fill="rgb(158,200,255)"/><path d=" M 608.739 269.468 L 604.283 269.468 L 604.283 259.744 L 608.739 259.744 L 608.739 269.468 Z " fill="rgb(158,200,255)"/><path d=" M 570.515 269.468 L 566.059 269.468 L 566.059 235.746 L 570.515 235.746 L 570.515 269.468 Z " fill="rgb(158,200,255)"/><path d=" M 579.956 269.468 L 575.501 269.468 L 575.501 254.31 L 579.956 254.31 L 579.956 269.468 Z " fill="rgb(158,200,255)"/><path d=" M 589.396 269.468 L 584.941 269.468 L 584.941 250.02 L 589.396 250.02 L 589.396 269.468 Z " fill="rgb(158,200,255)"/><path d=" M 561.074 269.468 L 556.619 269.468 L 556.619 245.539 L 561.074 245.539 L 561.074 269.468 Z " fill="rgb(158,200,255)"/><path d=" M 598.868 269.468 L 594.414 269.468 L 594.414 239.996 L 598.868 239.996 L 598.868 269.468 Z " fill="rgb(158,200,255)"/><clipPath id="_clipPath_7gNFN1HlRYmeuWwHCm0QyvhtjxuJsE5T"><path d=" M 405.071 227.013 C 397.507 227.013 391.376 220.158 391.376 211.702 C 391.376 203.246 397.507 196.391 405.071 196.391 C 412.634 196.391 418.766 203.246 418.766 211.702 C 418.766 220.158 412.634 227.013 405.071 227.013 Z  M 405.071 182.8 C 390.793 182.8 379.219 195.74 379.219 211.702 C 379.219 227.665 390.793 240.605 405.071 240.605 C 419.348 240.605 430.922 227.665 430.922 211.702 C 430.922 195.74 419.348 182.8 405.071 182.8 Z " fill-rule="evenodd" fill="rgb(255,255,255)"/></clipPath><g clip-path="url(#_clipPath_7gNFN1HlRYmeuWwHCm0QyvhtjxuJsE5T)"><path d=" M 428.436 227.676 L 405.071 211.702 L 400.845 241.955 C 411.821 243.889 422.707 238.14 428.436 227.676 Z " fill="rgb(162,223,242)"/></g><clipPath id="_clipPath_jJwBQBgdfmsuo3PIXXfpU9SOKKypmrwc"><path d=" M 405.071 227.013 C 397.507 227.013 391.376 220.158 391.376 211.702 C 391.376 203.246 397.507 196.391 405.071 196.391 C 412.634 196.391 418.766 203.246 418.766 211.702 C 418.766 220.158 412.634 227.013 405.071 227.013 Z  M 405.071 182.8 C 390.793 182.8 379.219 195.74 379.219 211.702 C 379.219 227.665 390.793 240.605 405.071 240.605 C 419.348 240.605 430.922 227.665 430.922 211.702 C 430.922 195.74 419.348 182.8 405.071 182.8 Z " fill-rule="evenodd" fill="rgb(255,255,255)"/></clipPath><g clip-path="url(#_clipPath_jJwBQBgdfmsuo3PIXXfpU9SOKKypmrwc)"><path d=" M 428.46 227.64 C 428.523 227.525 428.606 227.366 428.602 227.372 C 433.537 218.131 433.736 206.652 429.209 197.231 C 420.941 202.074 425.864 199.132 405.071 211.702 C 428.474 227.703 424.84 225.235 428.46 227.64 Z " fill="rgb(156,212,153)"/></g><clipPath id="_clipPath_mcBm01HA4oRyitSR7TkkPPL8thKIC0Da"><path d=" M 405.071 227.013 C 397.507 227.013 391.376 220.158 391.376 211.702 C 391.376 203.246 397.507 196.391 405.071 196.391 C 412.634 196.391 418.766 203.246 418.766 211.702 C 418.766 220.158 412.634 227.013 405.071 227.013 Z  M 405.071 182.8 C 390.793 182.8 379.219 195.74 379.219 211.702 C 379.219 227.665 390.793 240.605 405.071 240.605 C 419.348 240.605 430.922 227.665 430.922 211.702 C 430.922 195.74 419.348 182.8 405.071 182.8 Z " fill-rule="evenodd" fill="rgb(255,255,255)"/></clipPath><g clip-path="url(#_clipPath_mcBm01HA4oRyitSR7TkkPPL8thKIC0Da)"><path d=" M 379.387 201.121 L 405.071 211.702 L 429.165 197.136 C 417.895 173.834 387.558 176.629 379.387 201.121 Z " fill="rgb(158,200,255)"/></g><clipPath id="_clipPath_0MPccmNEJSpL7inPtfmTjDIyigGgXB8u"><path d=" M 405.071 227.013 C 397.507 227.013 391.376 220.158 391.376 211.702 C 391.376 203.246 397.507 196.391 405.071 196.391 C 412.634 196.391 418.766 203.246 418.766 211.702 C 418.766 220.158 412.634 227.013 405.071 227.013 Z  M 405.071 182.8 C 390.793 182.8 379.219 195.74 379.219 211.702 C 379.219 227.665 390.793 240.605 405.071 240.605 C 419.348 240.605 430.922 227.665 430.922 211.702 C 430.922 195.74 419.348 182.8 405.071 182.8 Z " fill-rule="evenodd" fill="rgb(255,255,255)"/></clipPath><g clip-path="url(#_clipPath_0MPccmNEJSpL7inPtfmTjDIyigGgXB8u)"><path d=" M 400.845 241.955 L 405.071 211.702 L 379.387 201.121 C 373.279 219.428 384.12 239.007 400.845 241.955 Z " fill="rgb(243,152,146)"/></g><clipPath id="_clipPath_TSV5fxCZSRqUUQmS95Vo5FpetGDUg5D0"><path d=" M 405.071 227.013 C 397.507 227.013 391.376 220.158 391.376 211.702 C 391.376 203.246 397.507 196.391 405.071 196.391 C 412.634 196.391 418.766 203.246 418.766 211.702 C 418.766 220.158 412.634 227.013 405.071 227.013 Z  M 405.071 182.8 C 390.793 182.8 379.219 195.74 379.219 211.702 C 379.219 227.665 390.793 240.605 405.071 240.605 C 419.348 240.605 430.922 227.665 430.922 211.702 C 430.922 195.74 419.348 182.8 405.071 182.8 Z " fill-rule="evenodd" fill="rgb(255,255,255)"/></clipPath><g clip-path="url(#_clipPath_TSV5fxCZSRqUUQmS95Vo5FpetGDUg5D0)"><path d=" M 377.706 206.13 C 378.184 206.13 378.624 206.267 379.004 206.505 C 379.226 205.133 379.535 203.772 379.937 202.431 L 393.883 208.176 L 393.882 208.162 C 393.853 207.451 394.093 206.786 394.488 206.26 L 393.092 205.684 L 380.571 200.526 C 381.599 197.731 382.965 195.188 384.605 192.942 C 384.015 192.7 383.532 192.232 383.213 191.635 C 381.442 194.058 379.97 196.804 378.867 199.824 L 378.852 199.818 L 378.536 200.766 L 378.217 201.722 L 378.232 201.728 C 377.79 203.195 377.451 204.686 377.21 206.187 C 377.373 206.151 377.539 206.13 377.706 206.13 Z " fill="rgb(255,255,255)"/></g><clipPath id="_clipPath_Jasq53OedEbAUHydF6j7pKGxRbzVwDkP"><path d=" M 405.071 227.013 C 397.507 227.013 391.376 220.158 391.376 211.702 C 391.376 203.246 397.507 196.391 405.071 196.391 C 412.634 196.391 418.766 203.246 418.766 211.702 C 418.766 220.158 412.634 227.013 405.071 227.013 Z  M 405.071 182.8 C 390.793 182.8 379.219 195.74 379.219 211.702 C 379.219 227.665 390.793 240.605 405.071 240.605 C 419.348 240.605 430.922 227.665 430.922 211.702 C 430.922 195.74 419.348 182.8 405.071 182.8 Z " fill-rule="evenodd" fill="rgb(255,255,255)"/></clipPath><g clip-path="url(#_clipPath_Jasq53OedEbAUHydF6j7pKGxRbzVwDkP)"><path d=" M 428.138 226.244 L 427.965 226.13 C 427.01 225.498 426.595 225.223 424.693 223.926 L 406.892 211.756 L 421.669 202.823 C 423.839 201.517 424.729 200.997 426.932 199.709 C 427.471 199.394 428.087 199.034 428.82 198.605 C 432.671 207.329 432.419 217.767 428.138 226.244 Z  M 401.885 241.093 L 405.759 213.364 L 415.84 220.257 C 419.904 223.036 422.229 224.626 423.693 225.624 L 427.173 228.004 C 421.622 237.417 411.867 242.465 401.885 241.093 Z  M 430.381 197.556 L 430.396 197.547 L 429.964 196.653 L 429.937 196.599 L 429.584 195.864 L 429.57 195.872 C 426.844 190.576 422.956 186.352 418.281 183.629 C 413.702 180.962 408.497 179.768 403.226 180.178 C 397.028 180.659 391.382 183.257 386.897 187.459 C 387.424 187.817 387.828 188.374 388.052 189.032 C 392.253 185.092 397.543 182.656 403.352 182.205 C 413.488 181.417 422.819 186.965 427.92 196.734 L 420.804 201.036 C 419.335 201.919 417.281 203.162 413.843 205.242 C 411.64 206.574 408.868 208.251 405.318 210.398 L 405.099 210.53 L 404.383 210.041 L 404.344 210.32 L 399.333 208.255 C 399.338 208.968 399.078 209.629 398.663 210.145 L 404.058 212.368 L 400.09 240.776 C 392.594 239.159 386.109 234.005 382.196 226.516 C 379.857 222.04 378.644 217.06 378.589 212.045 C 378.306 212.16 378.008 212.226 377.706 212.226 C 377.373 212.226 377.061 212.156 376.772 212.035 C 376.825 217.409 378.121 222.746 380.627 227.541 C 384.817 235.56 391.772 241.071 399.809 242.783 L 399.807 242.801 L 400.702 242.959 L 401.602 243.117 L 401.604 243.1 C 402.767 243.262 403.932 243.344 405.094 243.344 C 409.18 243.344 413.228 242.345 416.991 240.386 C 421.81 237.878 425.858 233.956 428.75 229.014 L 428.768 229.026 L 428.946 228.701 L 429.236 228.169 C 429.28 228.088 429.334 227.987 429.364 227.929 L 429.383 227.893 L 429.397 227.866 L 429.685 227.339 L 429.672 227.33 C 434.315 218.206 434.58 206.939 430.381 197.556 Z " fill="rgb(231,243,254)"/></g><path d=" M 554.9 217.301 L 479.553 217.301 C 478.733 217.301 478.068 216.558 478.068 215.641 L 478.068 179.391 C 478.068 178.474 478.733 177.731 479.553 177.731 L 554.9 177.731 C 555.719 177.731 556.384 178.474 556.384 179.391 L 556.384 215.641 C 556.384 216.558 555.719 217.301 554.9 217.301 Z " fill="rgb(158,200,255)"/><path d=" M 553.044 215.444 L 481.409 215.444 C 480.746 215.444 480.209 214.844 480.209 214.103 L 480.209 189.468 C 480.209 188.728 480.746 188.127 481.409 188.127 L 553.044 188.127 C 553.705 188.127 554.243 188.728 554.243 189.468 L 554.243 214.103 C 554.243 214.844 553.705 215.444 553.044 215.444 Z " fill="rgb(255,255,255)"/><path d=" M 483.7 183.73 L 481.961 183.73 C 481.594 183.73 481.296 183.398 481.296 182.987 L 481.296 181.386 C 481.296 180.976 481.594 180.643 481.961 180.643 L 483.7 180.643 C 484.067 180.643 484.365 180.976 484.365 181.386 L 484.365 182.987 C 484.365 183.398 484.067 183.73 483.7 183.73 Z " fill="rgb(255,255,255)"/><path d=" M 489.278 183.73 L 487.54 183.73 C 487.173 183.73 486.875 183.398 486.875 182.987 L 486.875 181.386 C 486.875 180.976 487.173 180.643 487.54 180.643 L 489.278 180.643 C 489.645 180.643 489.943 180.976 489.943 181.386 L 489.943 182.987 C 489.943 183.398 489.645 183.73 489.278 183.73 Z " fill="rgb(255,255,255)"/><path d=" M 494.857 183.73 L 493.118 183.73 C 492.751 183.73 492.453 183.398 492.453 182.987 L 492.453 181.386 C 492.453 180.976 492.751 180.643 493.118 180.643 L 494.857 180.643 C 495.224 180.643 495.521 180.976 495.521 181.386 L 495.521 182.987 C 495.521 183.398 495.224 183.73 494.857 183.73 Z " fill="rgb(255,255,255)"/><path d=" M 551.23 194.115 L 512.07 194.115 C 511.427 194.115 510.9 193.525 510.9 192.805 C 510.9 192.084 511.427 191.495 512.07 191.495 L 551.23 191.495 C 551.875 191.495 552.402 192.084 552.402 192.805 C 552.402 193.525 551.875 194.115 551.23 194.115 Z " fill="rgb(158,200,255)"/><path d=" M 521.777 214.322 L 482.617 214.322 C 481.972 214.322 481.445 213.732 481.445 213.012 C 481.445 212.291 481.972 211.702 482.617 211.702 L 521.777 211.702 C 522.421 211.702 522.948 212.291 522.948 213.012 C 522.948 213.732 522.421 214.322 521.777 214.322 Z " fill="rgb(158,200,255)"/><path d=" M 528.991 214.322 L 524.938 214.322 C 524.718 214.322 524.538 214.12 524.538 213.874 L 524.538 212.15 C 524.538 211.904 524.718 211.702 524.938 211.702 L 528.991 211.702 C 529.211 211.702 529.391 211.904 529.391 212.15 L 529.391 213.874 C 529.391 214.12 529.211 214.322 528.991 214.322 Z " fill="rgb(158,200,255)"/><path d=" M 535.1 214.322 L 531.047 214.322 C 530.827 214.322 530.647 214.12 530.647 213.874 L 530.647 212.15 C 530.647 211.904 530.827 211.702 531.047 211.702 L 535.1 211.702 C 535.32 211.702 535.5 211.904 535.5 212.15 L 535.5 213.874 C 535.5 214.12 535.32 214.322 535.1 214.322 Z " fill="rgb(158,200,255)"/><path d=" M 551.608 199.821 L 486.759 199.821 C 486.321 199.821 485.964 199.421 485.964 198.932 C 485.964 198.444 486.321 198.044 486.759 198.044 L 551.608 198.044 C 552.044 198.044 552.402 198.444 552.402 198.932 C 552.402 199.421 552.044 199.821 551.608 199.821 Z " fill="rgb(158,200,255)"/><path d=" M 551.608 203.657 L 486.759 203.657 C 486.321 203.657 485.964 203.257 485.964 202.768 C 485.964 202.279 486.321 201.879 486.759 201.879 L 551.608 201.879 C 552.044 201.879 552.402 202.279 552.402 202.768 C 552.402 203.257 552.044 203.657 551.608 203.657 Z " fill="rgb(158,200,255)"/><path d=" M 747.246 192.105 L 713.804 192.105 L 713.804 170.313 L 738.954 170.313 C 742.193 173.933 744.009 175.963 747.246 179.583 L 747.246 192.105 Z " fill="rgb(255,184,179)"/><path d=" M 738.34 170.313 L 738.34 181.945 L 747.246 181.945 L 747.246 179.71 L 738.898 170.376 L 738.34 170.313 Z " fill="rgb(243,152,146)"/><path d=" M 738.954 170.313 L 738.954 179.71 L 747.246 179.71 L 738.954 170.313 Z " fill="rgb(255,184,179)"/><path d=" M 732.478 178.49 L 717.575 178.49 C 717.251 178.49 716.984 178.193 716.984 177.83 C 716.984 177.467 717.251 177.17 717.575 177.17 L 732.478 177.17 C 732.804 177.17 733.069 177.467 733.069 177.83 C 733.069 178.193 732.804 178.49 732.478 178.49 Z " fill="rgb(255,255,255)"/><path d=" M 732.478 181.869 L 717.575 181.869 C 717.251 181.869 716.984 181.572 716.984 181.209 C 716.984 180.845 717.251 180.548 717.575 180.548 L 732.478 180.548 C 732.804 180.548 733.069 180.845 733.069 181.209 C 733.069 181.572 732.804 181.869 732.478 181.869 Z " fill="rgb(255,255,255)"/><path d=" M 732.478 185.425 L 717.575 185.425 C 717.251 185.425 716.984 185.128 716.984 184.765 C 716.984 184.401 717.251 184.104 717.575 184.104 L 732.478 184.104 C 732.804 184.104 733.069 184.401 733.069 184.765 C 733.069 185.128 732.804 185.425 732.478 185.425 Z " fill="rgb(255,255,255)"/><path d=" M 730.525 171.988 C 730.525 172.605 730.077 173.106 729.525 173.106 C 728.974 173.106 728.525 172.605 728.525 171.988 C 728.525 171.371 728.974 170.87 729.525 170.87 C 730.077 170.87 730.525 171.371 730.525 171.988 Z " fill="rgb(62,107,171)"/><path d=" M 598.587 199.51 L 577.718 195.002 L 582.58 166.87 L 603.449 171.378 L 598.587 199.51 Z " fill="rgb(250,232,182)"/><path d=" M 599.032 183.54 L 587.969 181.15 C 587.675 181.086 587.48 180.765 587.536 180.436 C 587.593 180.107 587.882 179.889 588.176 179.953 L 599.239 182.343 C 599.534 182.406 599.728 182.728 599.672 183.057 C 599.614 183.386 599.326 183.603 599.032 183.54 Z " fill="rgb(158,200,255)"/><path d=" M 598.498 186.632 L 587.435 184.242 C 587.14 184.179 586.946 183.857 587.002 183.528 C 587.058 183.199 587.346 182.982 587.64 183.045 L 598.705 185.435 C 598.999 185.499 599.194 185.82 599.137 186.149 C 599.079 186.479 598.792 186.696 598.498 186.632 Z " fill="rgb(158,200,255)"/><path d=" M 597.949 189.81 L 586.886 187.42 C 586.589 187.356 586.397 187.035 586.453 186.706 C 586.509 186.377 586.797 186.159 587.091 186.223 L 598.156 188.613 C 598.45 188.676 598.645 188.998 598.587 189.327 C 598.53 189.656 598.243 189.873 597.949 189.81 Z " fill="rgb(158,200,255)"/><path d=" M 591.542 170.643 C 591.448 171.194 590.971 171.554 590.479 171.448 C 589.985 171.341 589.663 170.808 589.757 170.257 C 589.854 169.706 590.33 169.346 590.822 169.453 C 591.315 169.559 591.638 170.092 591.542 170.643 Z " fill="rgb(62,107,171)"/><path d=" M 762.68 222.595 L 730.385 218.791 L 732.517 196.158 L 758.123 199.174 C 760.461 202.402 761.771 204.212 764.108 207.44 L 762.68 222.595 Z " fill="rgb(158,200,255)"/><path d=" M 757.665 200.789 L 733.625 197.958 L 731.828 217.054 L 761.713 220.574 L 762.767 209.392 L 756.92 208.704 L 757.665 200.789 Z " fill="rgb(255,255,255)"/><path d=" M 754.407 207.727 L 738.834 205.893 C 738.478 205.851 738.216 205.49 738.254 205.091 C 738.291 204.692 738.614 204.4 738.97 204.442 L 754.543 206.276 C 754.901 206.318 755.161 206.679 755.124 207.078 C 755.086 207.477 754.765 207.769 754.407 207.727 Z " fill="rgb(158,200,255)"/><path d=" M 754.045 211.564 L 738.472 209.729 C 738.116 209.687 737.855 209.327 737.893 208.928 C 737.931 208.529 738.253 208.237 738.609 208.279 L 754.183 210.113 C 754.539 210.155 754.799 210.516 754.763 210.915 C 754.725 211.313 754.403 211.606 754.045 211.564 Z " fill="rgb(158,200,255)"/><path d=" M 753.669 215.569 L 738.096 213.735 C 737.738 213.693 737.478 213.332 737.515 212.934 C 737.553 212.535 737.875 212.242 738.233 212.285 L 753.805 214.119 C 754.161 214.161 754.423 214.521 754.385 214.92 C 754.347 215.319 754.025 215.611 753.669 215.569 Z " fill="rgb(158,200,255)"/><path d=" M 745.601 201.384 C 745.601 202.001 745.154 202.502 744.601 202.502 C 744.05 202.502 743.601 202.001 743.601 201.384 C 743.601 200.767 744.05 200.266 744.601 200.266 C 745.154 200.266 745.601 200.767 745.601 201.384 Z " fill="rgb(62,107,171)"/><path d=" M 923.149 183.73 C 923.149 190.615 918.156 196.196 911.998 196.196 C 905.841 196.196 900.848 190.615 900.848 183.73 C 900.848 176.846 905.841 171.264 911.998 171.264 C 918.156 171.264 923.149 176.846 923.149 183.73 Z " fill="rgb(156,212,153)"/><path d=" M 910.891 187.997 L 910.871 187.997 C 910.721 187.991 910.581 187.916 910.482 187.79 L 907.453 183.943 C 907.255 183.69 907.276 183.305 907.502 183.082 C 907.729 182.86 908.072 182.885 908.272 183.137 L 910.921 186.503 L 916.98 179.872 C 917.195 179.637 917.54 179.641 917.751 179.882 C 917.962 180.122 917.958 180.508 917.743 180.744 L 911.273 187.823 C 911.171 187.935 911.033 187.997 910.891 187.997 Z " fill="rgb(255,255,255)"/><path d=" M 409.607 299.453 L 473.892 299.453 C 475.54 299.453 476.888 297.946 476.888 296.104 L 476.888 270.425 C 476.888 268.583 475.54 267.076 473.892 267.076 L 409.607 267.076 C 407.959 267.076 406.611 268.583 406.611 270.425 L 406.611 296.104 C 406.611 297.946 407.959 299.453 409.607 299.453 Z " fill="rgb(158,200,255)"/><path d=" M 468.4 294.568 L 468.4 312.432 L 449.988 291.847 C 449.988 291.847 468.025 294.568 468.4 294.568 Z " fill="rgb(158,200,255)"/><path d=" M 412.786 296.243 L 470.713 296.243 C 472.11 296.243 473.253 294.965 473.253 293.404 L 473.253 273.125 C 473.253 271.563 472.11 270.286 470.713 270.286 L 412.786 270.286 C 411.389 270.286 410.246 271.563 410.246 273.125 L 410.246 293.404 C 410.246 294.965 411.389 296.243 412.786 296.243 Z " fill="rgb(255,255,255)"/><path d=" M 438.941 276.705 L 467.401 276.705 C 468.088 276.705 468.649 276.077 468.649 275.31 C 468.649 274.542 468.088 273.914 467.401 273.914 L 438.941 273.914 C 438.254 273.914 437.693 274.542 437.693 275.31 C 437.693 276.077 438.254 276.705 438.941 276.705 Z " fill="rgb(158,200,255)"/><path d=" M 415.169 282.041 L 467.955 282.041 C 468.337 282.041 468.649 281.692 468.649 281.265 L 468.649 281.249 C 468.649 280.822 468.337 280.473 467.955 280.473 L 415.169 280.473 C 414.788 280.473 414.475 280.822 414.475 281.249 L 414.475 281.265 C 414.475 281.692 414.788 282.041 415.169 282.041 Z " fill="rgb(158,200,255)"/><path d=" M 415.169 285.078 L 467.955 285.078 C 468.337 285.078 468.649 284.729 468.649 284.303 L 468.649 284.287 C 468.649 283.86 468.337 283.511 467.955 283.511 L 415.169 283.511 C 414.788 283.511 414.475 283.86 414.475 284.287 L 414.475 284.303 C 414.475 284.729 414.788 285.078 415.169 285.078 Z " fill="rgb(158,200,255)"/><path d=" M 885.059 276.831 L 888.429 276.831 C 889.141 276.831 889.718 276.187 889.718 275.391 L 889.718 272.289 C 889.718 271.494 889.141 270.849 888.429 270.849 L 885.059 270.849 C 884.349 270.849 883.773 271.494 883.773 272.289 L 883.773 275.391 C 883.773 276.187 884.349 276.831 885.059 276.831 Z " fill="rgb(158,200,255)"/><path d=" M 874.249 276.831 L 877.618 276.831 C 878.331 276.831 878.907 276.187 878.907 275.391 L 878.907 272.289 C 878.907 271.494 878.331 270.849 877.618 270.849 L 874.249 270.849 C 873.538 270.849 872.962 271.494 872.962 272.289 L 872.962 275.391 C 872.962 276.187 873.538 276.831 874.249 276.831 Z " fill="rgb(158,200,255)"/><path d=" M 863.438 276.831 L 866.808 276.831 C 867.52 276.831 868.097 276.187 868.097 275.391 L 868.097 272.289 C 868.097 271.494 867.52 270.849 866.808 270.849 L 863.438 270.849 C 862.728 270.849 862.152 271.494 862.152 272.289 L 862.152 275.391 C 862.152 276.187 862.728 276.831 863.438 276.831 Z " fill="rgb(158,200,255)"/></g></svg>